<svg width="302" height="362" viewBox="0 0 302 362" fill="none" xmlns="http://www.w3.org/2000/svg">
<path d="M1 31C1 14.4314 14.4315 1 31 1H271C287.569 1 301 14.4315 301 31V328C301 334.627 295.627 340 289 340H13C6.37259 340 1 334.627 1 328V31Z" fill="#2A2A2A" stroke="#767676" stroke-linecap="round"/>
<path d="M39 98C39 81.4315 52.4315 68 69 68H242C258.569 68 272 81.4315 272 98V340H39V98Z" fill="#303030" stroke="#767676" stroke-linecap="round"/>
<path d="M272 102.999C272 119.568 258.569 132.999 242 132.999L69 132.999C52.4315 132.999 39 119.568 39 102.999L39 97.9993C39 81.4307 52.4315 67.9993 69 67.9993L242 67.9993C258.569 67.9993 272 81.4307 272 97.9993L272 102.999Z" fill="#303030" stroke="#767676" stroke-width="1.74556" stroke-linecap="round"/>
<path d="M65 274C65 257.432 78.4315 244 95 244H215C231.569 244 245 257.432 245 274V340H65V274Z" fill="#383838" stroke="#767676" stroke-linecap="round"/>
<rect x="150.386" y="226.615" width="48.7714" height="73.7714" rx="9.3857" transform="rotate(90 150.386 226.615)" fill="#2B2B2B" stroke="#767676" stroke-width="1.22861"/>
<path d="M105.675 248.105C107.334 248.105 108.437 247.087 108.437 245.785C108.437 244.283 107.523 243.779 105.759 243.538C104.457 243.349 104.205 243.044 104.205 242.435C104.205 241.858 104.646 241.448 105.497 241.448C106.358 241.448 106.809 241.784 106.946 242.572H108.227C108.08 241.133 107.114 240.398 105.497 240.398C103.932 240.398 102.882 241.322 102.882 242.551C102.882 243.958 103.733 244.504 105.528 244.745C106.746 244.945 107.093 245.207 107.093 245.9C107.093 246.593 106.505 247.055 105.675 247.055C104.405 247.055 104.1 246.425 104.006 245.669H102.662C102.767 247.087 103.628 248.105 105.675 248.105ZM111.238 248.095C111.626 248.095 111.899 248.032 112.099 247.958V246.95C111.92 247.024 111.731 247.055 111.479 247.055C111.08 247.055 110.849 246.835 110.849 246.352V243.464H112.057V242.509H110.849V241.301H109.579V242.509H108.844V243.464H109.579V246.467C109.579 247.507 110.146 248.095 111.238 248.095ZM114.419 248.105C115.259 248.105 115.742 247.801 116.099 247.328V248H117.349V244.399C117.349 242.897 116.383 242.393 115.154 242.393C113.926 242.393 112.907 242.929 112.802 244.21H114.031C114.094 243.664 114.419 243.349 115.081 243.349C115.826 243.349 116.078 243.716 116.078 244.451V244.735H115.396C113.821 244.735 112.582 245.197 112.582 246.478C112.582 247.622 113.411 248.105 114.419 248.105ZM114.724 247.192C114.094 247.192 113.842 246.887 113.842 246.425C113.842 245.753 114.461 245.533 115.427 245.533H116.078V246.079C116.078 246.782 115.501 247.192 114.724 247.192ZM118.711 248H119.981V243.464H121.913V248H123.184V243.464H124.433V242.509H123.184V241.721C123.184 241.249 123.394 240.913 123.908 240.913C124.139 240.913 124.339 240.955 124.486 241.007V240.02C124.255 239.947 124.066 239.915 123.751 239.915C122.585 239.915 121.913 240.566 121.913 241.774V242.509H119.981V241.784C119.981 241.312 120.191 240.976 120.706 240.976C120.937 240.976 121.126 241.028 121.273 241.081V240.094C121.042 240.02 120.853 239.989 120.548 239.989C119.372 239.989 118.711 240.629 118.711 241.847V242.509H117.965V243.464H118.711V248ZM82.7507 261H84.0107V255.33L86.2892 261H86.7407L88.9772 255.33V261H90.3737V253.493H88.5257L86.5937 258.617L84.6197 253.493H82.7507V261ZM93.0592 261.105C93.8992 261.105 94.3822 260.801 94.7392 260.328V261H95.9887V257.399C95.9887 255.897 95.0227 255.393 93.7942 255.393C92.5657 255.393 91.5472 255.929 91.4422 257.21H92.6707C92.7337 256.664 93.0592 256.349 93.7207 256.349C94.4662 256.349 94.7182 256.716 94.7182 257.451V257.735H94.0357C92.4607 257.735 91.2217 258.197 91.2217 259.478C91.2217 260.622 92.0512 261.105 93.0592 261.105ZM93.3637 260.192C92.7337 260.192 92.4817 259.887 92.4817 259.425C92.4817 258.753 93.1012 258.533 94.0672 258.533H94.7182V259.079C94.7182 259.782 94.1407 260.192 93.3637 260.192ZM97.1299 261H98.4004V257.766C98.4004 256.895 98.9779 256.454 99.6919 256.454C100.448 256.454 100.784 256.832 100.784 257.661V261H102.054V257.546C102.054 256.034 101.277 255.393 100.175 255.393C99.2719 255.393 98.6629 255.845 98.4004 256.38V255.509H97.1299V261ZM104.642 261.105C105.482 261.105 105.965 260.801 106.322 260.328V261H107.571V257.399C107.571 255.897 106.605 255.393 105.377 255.393C104.148 255.393 103.13 255.929 103.025 257.21H104.253C104.316 256.664 104.642 256.349 105.303 256.349C106.049 256.349 106.301 256.716 106.301 257.451V257.735H105.618C104.043 257.735 102.804 258.197 102.804 259.478C102.804 260.622 103.634 261.105 104.642 261.105ZM104.946 260.192C104.316 260.192 104.064 259.887 104.064 259.425C104.064 258.753 104.684 258.533 105.65 258.533H106.301V259.079C106.301 259.782 105.723 260.192 104.946 260.192ZM111.054 263.016C112.755 263.016 113.836 262.208 113.847 260.591V255.509H112.576V256.349C112.261 255.803 111.715 255.393 110.812 255.393C109.395 255.393 108.345 256.548 108.345 258.092V258.165C108.345 259.751 109.405 260.78 110.781 260.78C111.589 260.78 112.272 260.286 112.576 259.761V260.57C112.576 261.557 112.03 262.05 111.043 262.05C110.214 262.05 109.794 261.735 109.689 261.189H108.408C108.555 262.239 109.332 263.016 111.054 263.016ZM111.096 259.803C110.277 259.803 109.647 259.173 109.647 258.155V258.071C109.647 257.073 110.193 256.391 111.138 256.391C112.051 256.391 112.618 257.01 112.618 258.05V258.123C112.618 259.173 111.978 259.803 111.096 259.803ZM117.457 261.105C118.864 261.105 119.798 260.475 119.977 259.32H118.748C118.654 259.856 118.255 260.16 117.488 260.16C116.543 260.16 116.018 259.572 115.976 258.533H119.998V258.165C119.998 256.202 118.769 255.393 117.404 255.393C115.84 255.393 114.674 256.527 114.674 258.228V258.312C114.674 260.045 115.84 261.105 117.457 261.105ZM115.997 257.682C116.123 256.832 116.638 256.317 117.404 256.317C118.192 256.317 118.675 256.737 118.738 257.682H115.997ZM120.818 261H122.088V257.714C122.088 256.874 122.666 256.454 123.296 256.454C123.915 256.454 124.272 256.8 124.272 257.609V261H125.543V257.714C125.543 256.874 126.12 256.454 126.75 256.454C127.38 256.454 127.727 256.8 127.727 257.609V261H128.997V257.525C128.997 256.013 128.178 255.393 127.17 255.393C126.488 255.393 125.732 255.698 125.312 256.38C125.039 255.698 124.472 255.393 123.758 255.393C122.949 255.393 122.351 255.834 122.088 256.349V255.509H120.818V261ZM132.556 261.105C133.963 261.105 134.898 260.475 135.076 259.32H133.848C133.753 259.856 133.354 260.16 132.588 260.16C131.643 260.16 131.118 259.572 131.076 258.533H135.097V258.165C135.097 256.202 133.869 255.393 132.504 255.393C130.939 255.393 129.774 256.527 129.774 258.228V258.312C129.774 260.045 130.939 261.105 132.556 261.105ZM131.097 257.682C131.223 256.832 131.737 256.317 132.504 256.317C133.291 256.317 133.774 256.737 133.837 257.682H131.097ZM135.917 261H137.188V257.766C137.188 256.895 137.765 256.454 138.479 256.454C139.235 256.454 139.571 256.832 139.571 257.661V261H140.842V257.546C140.842 256.034 140.065 255.393 138.962 255.393C138.059 255.393 137.45 255.845 137.188 256.38V255.509H135.917V261ZM143.859 261.095C144.248 261.095 144.521 261.032 144.72 260.958V259.95C144.542 260.024 144.353 260.055 144.101 260.055C143.702 260.055 143.471 259.835 143.471 259.352V256.464H144.678V255.509H143.471V254.301H142.2V255.509H141.465V256.464H142.2V259.467C142.2 260.507 142.767 261.095 143.859 261.095Z" fill="#959595"/>
<rect x="235.386" y="226.615" width="48.7714" height="73.7713" rx="9.3857" transform="rotate(90 235.386 226.615)" fill="#2B2B2B" stroke="#767676" stroke-width="1.22861"/>
<path d="M176.689 254L178.096 254L178.096 246.493L176.689 246.493L176.689 254ZM179.447 254L180.718 254L180.718 250.766C180.718 249.895 181.295 249.454 182.009 249.454C182.765 249.454 183.101 249.832 183.101 250.661L183.101 254L184.372 254L184.372 250.546C184.372 249.034 183.595 248.393 182.492 248.393C181.589 248.393 180.98 248.845 180.718 249.38L180.718 248.509L179.447 248.509L179.447 254ZM186.856 254L188.337 254L190.321 248.509L189.072 248.509L187.654 252.698L186.216 248.509L184.851 248.509L186.856 254ZM193.157 254.105C194.564 254.105 195.499 253.475 195.677 252.32L194.449 252.32C194.354 252.856 193.955 253.16 193.189 253.16C192.244 253.16 191.719 252.572 191.677 251.533L195.698 251.533L195.698 251.165C195.698 249.202 194.47 248.393 193.105 248.393C191.54 248.393 190.375 249.527 190.375 251.228L190.375 251.312C190.375 253.045 191.54 254.105 193.157 254.105ZM191.698 250.682C191.824 249.832 192.338 249.317 193.105 249.317C193.892 249.317 194.375 249.737 194.438 250.682L191.698 250.682ZM196.518 254L197.789 254L197.789 250.766C197.789 249.895 198.366 249.454 199.08 249.454C199.836 249.454 200.172 249.832 200.172 250.661L200.172 254L201.443 254L201.443 250.546C201.443 249.034 200.666 248.393 199.563 248.393C198.66 248.393 198.051 248.845 197.789 249.38L197.789 248.509L196.518 248.509L196.518 254ZM204.46 254.095C204.849 254.095 205.122 254.032 205.321 253.958L205.321 252.95C205.143 253.024 204.954 253.055 204.702 253.055C204.303 253.055 204.072 252.835 204.072 252.352L204.072 249.464L205.279 249.464L205.279 248.509L204.072 248.509L204.072 247.301L202.801 247.301L202.801 248.509L202.066 248.509L202.066 249.464L202.801 249.464L202.801 252.467C202.801 253.507 203.368 254.095 204.46 254.095ZM208.609 253.118C207.643 253.118 207.087 252.415 207.087 251.291L207.087 251.207C207.087 250.073 207.664 249.391 208.609 249.391C209.554 249.391 210.121 250.084 210.121 251.218L210.121 251.291C210.121 252.415 209.554 253.118 208.609 253.118ZM208.599 254.105C210.216 254.105 211.423 252.992 211.423 251.281L211.423 251.197C211.423 249.517 210.216 248.393 208.609 248.393C206.992 248.393 205.785 249.527 205.785 251.228L205.785 251.312C205.785 252.982 206.982 254.105 208.599 254.105ZM212.256 254L213.527 254L213.527 251.144C213.527 249.979 214.199 249.622 215.312 249.611L215.312 248.425C214.388 248.435 213.873 248.845 213.527 249.538L213.527 248.509L212.256 248.509L212.256 254ZM216.775 255.88L218.024 255.88L221.017 248.509L219.778 248.509L218.434 252.047L216.974 248.509L215.599 248.509L217.772 253.444L216.775 255.88Z" fill="#959595"/>
<rect x="149.386" y="312.615" width="48.7714" height="73.7714" rx="9.3857" transform="rotate(90 149.386 312.615)" fill="#2B2B2B" stroke="#767676" stroke-width="1.22861"/>
<path d="M94.6339 340L96.0304 340L96.0304 336.924L98.5924 336.924L98.5924 335.842L96.0304 335.842L96.0304 333.606L99.2854 333.606L99.2854 332.493L94.6339 332.493L94.6339 340ZM100.008 340L101.279 340L101.279 334.509L100.008 334.509L100.008 340ZM100.628 333.606C101.048 333.606 101.384 333.291 101.384 332.881C101.384 332.461 101.048 332.146 100.628 332.146C100.208 332.146 99.8716 332.461 99.8716 332.881C99.8716 333.291 100.208 333.606 100.628 333.606ZM102.512 340L103.783 340L103.783 336.766C103.783 335.895 104.36 335.454 105.074 335.454C105.83 335.454 106.166 335.832 106.166 336.661L106.166 340L107.437 340L107.437 336.546C107.437 335.034 106.66 334.393 105.557 334.393C104.654 334.393 104.045 334.845 103.783 335.38L103.783 334.509L102.512 334.509L102.512 340ZM110.024 340.105C110.864 340.105 111.347 339.801 111.704 339.328L111.704 340L112.953 340L112.953 336.399C112.953 334.897 111.987 334.393 110.759 334.393C109.53 334.393 108.512 334.929 108.407 336.21L109.635 336.21C109.698 335.664 110.024 335.349 110.685 335.349C111.431 335.349 111.683 335.716 111.683 336.451L111.683 336.735L111 336.735C109.425 336.735 108.186 337.197 108.186 338.478C108.186 339.622 109.016 340.105 110.024 340.105ZM110.328 339.192C109.698 339.192 109.446 338.887 109.446 338.425C109.446 337.753 110.066 337.533 111.032 337.533L111.683 337.533L111.683 338.079C111.683 338.782 111.105 339.192 110.328 339.192ZM114.095 340L115.365 340L115.365 336.766C115.365 335.895 115.943 335.454 116.657 335.454C117.413 335.454 117.749 335.832 117.749 336.661L117.749 340L119.019 340L119.019 336.546C119.019 335.034 118.242 334.393 117.14 334.393C116.237 334.393 115.628 334.845 115.365 335.38L115.365 334.509L114.095 334.509L114.095 340ZM122.572 340.105C124.063 340.105 125.019 339.213 125.113 337.953L123.948 337.953C123.874 338.73 123.297 339.129 122.625 339.129C121.69 339.129 121.102 338.499 121.102 337.302L121.102 337.218C121.102 336.084 121.722 335.412 122.593 335.412C123.265 335.412 123.748 335.716 123.853 336.451L125.082 336.451C124.935 334.939 123.79 334.393 122.572 334.393C121.039 334.393 119.8 335.496 119.8 337.239L119.8 337.323C119.8 339.076 120.997 340.105 122.572 340.105ZM128.307 340.105C129.714 340.105 130.649 339.475 130.827 338.32L129.599 338.32C129.504 338.856 129.105 339.16 128.339 339.16C127.394 339.16 126.869 338.572 126.827 337.533L130.848 337.533L130.848 337.165C130.848 335.202 129.62 334.393 128.255 334.393C126.69 334.393 125.525 335.527 125.525 337.228L125.525 337.312C125.525 339.045 126.69 340.105 128.307 340.105ZM126.848 336.682C126.974 335.832 127.488 335.317 128.255 335.317C129.042 335.317 129.525 335.737 129.588 336.682L126.848 336.682Z" fill="#959595"/>
<rect x="235" y="312" width="50" height="74.9998" rx="10" transform="rotate(90 235 312)" fill="#FF9500"/>
<path d="M178.971 340.105C180.756 340.105 182.037 339.192 182.258 337.386L180.893 337.386C180.746 338.446 180.011 338.971 178.971 338.971C177.585 338.971 176.777 337.974 176.777 336.283L176.777 336.199C176.777 334.519 177.638 333.49 178.961 333.49C180.042 333.49 180.599 334.005 180.756 335.002L182.174 335.002C182.006 333.238 180.672 332.377 178.95 332.377C176.861 332.377 175.307 333.952 175.307 336.21L175.307 336.294C175.307 338.604 176.619 340.105 178.971 340.105ZM183.048 340L184.318 340L184.318 336.766C184.318 335.895 184.896 335.454 185.61 335.454C186.366 335.454 186.702 335.832 186.702 336.661L186.702 340L187.972 340L187.972 336.546C187.972 335.034 187.195 334.393 186.093 334.393C185.19 334.393 184.581 334.845 184.318 335.38L184.318 331.968L183.048 331.968L183.048 340ZM191.536 340.105C192.943 340.105 193.877 339.475 194.056 338.32L192.827 338.32C192.733 338.856 192.334 339.16 191.567 339.16C190.622 339.16 190.097 338.572 190.055 337.533L194.077 337.533L194.077 337.165C194.077 335.202 192.848 334.393 191.483 334.393C189.919 334.393 188.753 335.527 188.753 337.228L188.753 337.312C188.753 339.045 189.919 340.105 191.536 340.105ZM190.076 336.682C190.202 335.832 190.717 335.317 191.483 335.317C192.271 335.317 192.754 335.737 192.817 336.682L190.076 336.682ZM197.301 340.105C198.792 340.105 199.748 339.213 199.842 337.953L198.677 337.953C198.603 338.73 198.026 339.129 197.354 339.129C196.419 339.129 195.831 338.499 195.831 337.302L195.831 337.218C195.831 336.084 196.451 335.412 197.322 335.412C197.994 335.412 198.477 335.716 198.582 336.451L199.811 336.451C199.664 334.939 198.519 334.393 197.301 334.393C195.768 334.393 194.529 335.496 194.529 337.239L194.529 337.323C194.529 339.076 195.726 340.105 197.301 340.105ZM200.621 340L201.892 340L201.892 337.302L203.95 340L205.42 340L203.11 337.029L205.241 334.509L203.855 334.509L201.892 336.924L201.892 331.968L200.621 331.968L200.621 340ZM205.977 341.88L207.247 341.88L207.247 339.139C207.541 339.675 208.171 340.105 209.043 340.105C210.46 340.105 211.479 339.034 211.479 337.27L211.479 337.186C211.479 335.412 210.418 334.393 209.043 334.393C208.234 334.393 207.552 334.866 207.247 335.391L207.247 334.509L205.977 334.509L205.977 341.88ZM208.728 339.097C207.804 339.097 207.205 338.52 207.205 337.291L207.205 337.207C207.205 335.989 207.835 335.391 208.717 335.391C209.547 335.391 210.177 335.989 210.177 337.207L210.177 337.291C210.177 338.467 209.662 339.097 208.728 339.097ZM212.338 340L213.608 340L213.608 334.509L212.338 334.509L212.338 340ZM212.957 333.606C213.377 333.606 213.713 333.291 213.713 332.881C213.713 332.461 213.377 332.146 212.957 332.146C212.537 332.146 212.201 332.461 212.201 332.881C212.201 333.291 212.537 333.606 212.957 333.606ZM217.257 340.105C218.664 340.105 219.598 339.475 219.777 338.32L218.548 338.32C218.454 338.856 218.055 339.16 217.288 339.16C216.343 339.16 215.818 338.572 215.776 337.533L219.798 337.533L219.798 337.165C219.798 335.202 218.569 334.393 217.204 334.393C215.64 334.393 214.474 335.527 214.474 337.228L214.474 337.312C214.474 339.045 215.64 340.105 217.257 340.105ZM215.797 336.682C215.923 335.832 216.438 335.317 217.204 335.317C217.992 335.317 218.475 335.737 218.538 336.682L215.797 336.682Z" fill="white"/>
<rect x="290.386" y="162.614" width="48.7714" height="73.7714" rx="9.3857" transform="rotate(90 290.386 162.614)" fill="#2B2B2B" stroke="#767676" stroke-width="1.22861"/>
<path d="M234.027 190L235.34 190L235.928 188.141L238.794 188.141L239.393 190L240.842 190L238.364 182.492L236.537 182.492L234.027 190ZM237.366 183.637L238.469 187.123L236.253 187.123L237.366 183.637ZM241.568 190L242.838 190L242.838 186.713C242.838 185.873 243.416 185.453 244.046 185.453C244.665 185.453 245.022 185.8 245.022 186.608L245.022 190L246.293 190L246.293 186.713C246.293 185.873 246.87 185.453 247.5 185.453C248.13 185.453 248.477 185.8 248.477 186.608L248.477 190L249.747 190L249.747 186.524C249.747 185.012 248.928 184.393 247.92 184.393C247.238 184.393 246.482 184.697 246.062 185.38C245.789 184.697 245.222 184.393 244.508 184.393C243.699 184.393 243.101 184.834 242.838 185.348L242.838 184.508L241.568 184.508L241.568 190ZM252.33 190.105C253.17 190.105 253.653 189.8 254.01 189.328L254.01 190L255.259 190L255.259 186.398C255.259 184.897 254.293 184.393 253.065 184.393C251.836 184.393 250.818 184.928 250.713 186.209L251.941 186.209C252.004 185.663 252.33 185.348 252.991 185.348C253.737 185.348 253.989 185.716 253.989 186.451L253.989 186.734L253.306 186.734C251.731 186.734 250.492 187.196 250.492 188.477C250.492 189.622 251.322 190.105 252.33 190.105ZM252.634 189.191C252.004 189.191 251.752 188.887 251.752 188.425C251.752 187.753 252.372 187.532 253.338 187.532L253.989 187.532L253.989 188.078C253.989 188.782 253.411 189.191 252.634 189.191ZM256.506 190L259.393 190C261.042 190 261.966 189.296 261.966 187.9L261.966 187.858C261.966 186.86 261.483 186.304 260.464 186.083C261.315 185.821 261.651 185.233 261.651 184.487L261.651 184.445C261.651 183.08 260.737 182.492 259.194 182.492L256.506 182.492L256.506 190ZM257.871 189.002L257.871 186.598L259.131 186.598C260.16 186.598 260.59 186.986 260.59 187.763L260.59 187.805C260.59 188.582 260.16 189.002 259.225 189.002L257.871 189.002ZM257.871 185.653L257.871 183.49L259.005 183.49C259.897 183.49 260.307 183.794 260.307 184.508L260.307 184.55C260.307 185.317 259.95 185.653 259.026 185.653L257.871 185.653ZM264.292 190.105C265.132 190.105 265.615 189.8 265.972 189.328L265.972 190L267.221 190L267.221 186.398C267.221 184.897 266.255 184.393 265.027 184.393C263.798 184.393 262.78 184.928 262.675 186.209L263.903 186.209C263.966 185.663 264.292 185.348 264.953 185.348C265.699 185.348 265.951 185.716 265.951 186.451L265.951 186.734L265.268 186.734C263.693 186.734 262.454 187.196 262.454 188.477C262.454 189.622 263.284 190.105 264.292 190.105ZM264.596 189.191C263.966 189.191 263.714 188.887 263.714 188.425C263.714 187.753 264.334 187.532 265.3 187.532L265.951 187.532L265.951 188.078C265.951 188.782 265.373 189.191 264.596 189.191ZM268.817 191.879L270.067 191.879L273.059 184.508L271.82 184.508L270.476 188.047L269.017 184.508L267.641 184.508L269.815 189.443L268.817 191.879Z" fill="#959595"/>
<rect x="86" y="162" width="50" height="74.9998" rx="10" transform="rotate(90 86 162)" fill="#E27340"/>
<path d="M39.2247 188.981C37.8597 188.981 36.8622 187.921 36.8622 186.283L36.8622 186.199C36.8622 184.582 37.7337 183.5 39.2037 183.5C40.6737 183.5 41.5347 184.645 41.5347 186.188L41.5347 186.272C41.5347 187.9 40.6422 188.981 39.2247 188.981ZM39.2037 190.105C41.4822 190.105 42.9837 188.456 42.9837 186.262L42.9837 186.178C42.9837 183.973 41.4402 182.387 39.2037 182.387C36.9777 182.387 35.4027 184.015 35.4027 186.209L35.4027 186.293C35.4027 188.456 36.9042 190.105 39.2037 190.105ZM44.0174 190L45.4139 190L45.4139 186.965L46.3064 186.965L48.2699 190L49.7819 190L47.6714 186.755C48.6059 186.514 49.3409 185.915 49.3409 184.739L49.3409 184.697C49.3409 183.164 48.1859 182.492 46.5374 182.492L44.0174 182.492L44.0174 190ZM45.4139 185.968L45.4139 183.574L46.5374 183.574C47.4299 183.574 47.9654 183.868 47.9654 184.729L47.9654 184.771C47.9654 185.569 47.4719 185.968 46.5374 185.968L45.4139 185.968ZM51.9305 190L53.3375 190L53.3375 183.595L55.427 183.595L55.427 182.492L49.841 182.492L49.841 183.595L51.9305 183.595L51.9305 190ZM58.1441 190L59.5511 190L59.5511 186.755L61.9031 182.492L60.5381 182.492L58.8896 185.6L57.1991 182.492L55.6556 182.492L58.1441 186.745L58.1441 190Z" fill="white"/>
<rect x="157" y="35" width="50" height="74.9998" rx="10" transform="rotate(90 157 35)" fill="#3875F2"/>
<path d="M103.076 57L104.483 57L104.483 49.4925L103.076 49.4925L103.076 57ZM105.833 57L107.104 57L107.104 53.766C107.104 52.8945 107.681 52.4535 108.395 52.4535C109.151 52.4535 109.487 52.8315 109.487 53.661L109.487 57L110.758 57L110.758 53.5455C110.758 52.0335 109.981 51.393 108.878 51.393C107.975 51.393 107.366 51.8445 107.104 52.38L107.104 51.5085L105.833 51.5085L105.833 57ZM113.243 57L114.723 57L116.708 51.5085L115.458 51.5085L114.041 55.698L112.602 51.5085L111.237 51.5085L113.243 57ZM119.586 56.118C118.62 56.118 118.063 55.4145 118.063 54.291L118.063 54.207C118.063 53.073 118.641 52.3905 119.586 52.3905C120.531 52.3905 121.098 53.0835 121.098 54.2175L121.098 54.291C121.098 55.4145 120.531 56.118 119.586 56.118ZM119.575 57.105C121.192 57.105 122.4 55.992 122.4 54.2805L122.4 54.1965C122.4 52.5165 121.192 51.393 119.586 51.393C117.969 51.393 116.761 52.527 116.761 54.228L116.761 54.312C116.761 55.9815 117.958 57.105 119.575 57.105ZM123.264 57L124.535 57L124.535 51.5085L123.264 51.5085L123.264 57ZM123.884 50.6055C124.304 50.6055 124.64 50.2905 124.64 49.881C124.64 49.461 124.304 49.146 123.884 49.146C123.464 49.146 123.128 49.461 123.128 49.881C123.128 50.2905 123.464 50.6055 123.884 50.6055ZM128.173 57.105C129.664 57.105 130.619 56.2125 130.714 54.9525L129.548 54.9525C129.475 55.7295 128.897 56.1285 128.225 56.1285C127.291 56.1285 126.703 55.4985 126.703 54.3015L126.703 54.2175C126.703 53.0835 127.322 52.4115 128.194 52.4115C128.866 52.4115 129.349 52.716 129.454 53.451L130.682 53.451C130.535 51.939 129.391 51.393 128.173 51.393C126.64 51.393 125.401 52.4955 125.401 54.2385L125.401 54.3225C125.401 56.076 126.598 57.105 128.173 57.105ZM133.908 57.105C135.315 57.105 136.249 56.475 136.428 55.32L135.199 55.32C135.105 55.8555 134.706 56.16 133.939 56.16C132.994 56.16 132.469 55.572 132.427 54.5325L136.449 54.5325L136.449 54.165C136.449 52.2015 135.22 51.393 133.855 51.393C132.291 51.393 131.125 52.527 131.125 54.228L131.125 54.312C131.125 56.0445 132.291 57.105 133.908 57.105ZM132.448 53.682C132.574 52.8315 133.089 52.317 133.855 52.317C134.643 52.317 135.126 52.737 135.189 53.682L132.448 53.682ZM105.6 70L106.86 70L106.86 64.33L109.139 70L109.59 70L111.827 64.33L111.827 70L113.223 70L113.223 62.4925L111.375 62.4925L109.443 67.6165L107.469 62.4925L105.6 62.4925L105.6 70ZM115.909 70.105C116.749 70.105 117.232 69.8005 117.589 69.328L117.589 70L118.838 70L118.838 66.3985C118.838 64.897 117.872 64.393 116.644 64.393C115.415 64.393 114.397 64.9285 114.292 66.2095L115.52 66.2095C115.583 65.6635 115.909 65.3485 116.57 65.3485C117.316 65.3485 117.568 65.716 117.568 66.451L117.568 66.7345L116.885 66.7345C115.31 66.7345 114.071 67.1965 114.071 68.4775C114.071 69.622 114.901 70.105 115.909 70.105ZM116.213 69.1915C115.583 69.1915 115.331 68.887 115.331 68.425C115.331 67.753 115.951 67.5325 116.917 67.5325L117.568 67.5325L117.568 68.0785C117.568 68.782 116.99 69.1915 116.213 69.1915ZM119.979 70L121.25 70L121.25 67.3015L123.308 70L124.778 70L122.468 67.0285L124.599 64.5085L123.213 64.5085L121.25 66.9235L121.25 61.9675L119.979 61.9675L119.979 70ZM127.483 70.105C128.89 70.105 129.825 69.475 130.003 68.32L128.775 68.32C128.68 68.8555 128.281 69.16 127.515 69.16C126.57 69.16 126.045 68.572 126.003 67.5325L130.024 67.5325L130.024 67.165C130.024 65.2015 128.796 64.393 127.431 64.393C125.866 64.393 124.701 65.527 124.701 67.228L124.701 67.312C124.701 69.0445 125.866 70.105 127.483 70.105ZM126.024 66.682C126.15 65.8315 126.664 65.317 127.431 65.317C128.218 65.317 128.701 65.737 128.764 66.682L126.024 66.682ZM130.844 70L132.114 70L132.114 67.144C132.114 65.9785 132.786 65.6215 133.899 65.611L133.899 64.4245C132.975 64.435 132.461 64.8445 132.114 65.5375L132.114 64.5085L130.844 64.5085L130.844 70Z" fill="white"/>
<rect x="240" y="35" width="50" height="74.9998" rx="10" transform="rotate(90 240 35)" fill="#5A32DF"/>
<path d="M184.434 57L185.694 57L185.694 51.33L187.973 57L188.424 57L190.661 51.33L190.661 57L192.057 57L192.057 49.4925L190.209 49.4925L188.277 54.6165L186.303 49.4925L184.434 49.4925L184.434 57ZM193.387 57L194.657 57L194.657 51.5085L193.387 51.5085L193.387 57ZM194.006 50.6055C194.426 50.6055 194.762 50.2905 194.762 49.881C194.762 49.461 194.426 49.146 194.006 49.146C193.586 49.146 193.25 49.461 193.25 49.881C193.25 50.2905 193.586 50.6055 194.006 50.6055ZM195.922 57L197.193 57L197.193 48.9675L195.922 48.9675L195.922 57ZM200.842 57.105C202.249 57.105 203.183 56.475 203.362 55.32L202.133 55.32C202.039 55.8555 201.64 56.16 200.873 56.16C199.928 56.16 199.403 55.572 199.361 54.5325L203.383 54.5325L203.383 54.165C203.383 52.2015 202.154 51.393 200.789 51.393C199.225 51.393 198.059 52.527 198.059 54.228L198.059 54.312C198.059 56.0445 199.225 57.105 200.842 57.105ZM199.382 53.682C199.508 52.8315 200.023 52.317 200.789 52.317C201.577 52.317 202.06 52.737 202.123 53.682L199.382 53.682ZM205.692 57.105C206.532 57.105 207.015 56.8005 207.372 56.328L207.372 57L208.622 57L208.622 53.3985C208.622 51.897 207.656 51.393 206.427 51.393C205.199 51.393 204.18 51.9285 204.075 53.2095L205.304 53.2095C205.367 52.6635 205.692 52.3485 206.354 52.3485C207.099 52.3485 207.351 52.716 207.351 53.451L207.351 53.7345L206.669 53.7345C205.094 53.7345 203.855 54.1965 203.855 55.4775C203.855 56.622 204.684 57.105 205.692 57.105ZM205.997 56.1915C205.367 56.1915 205.115 55.887 205.115 55.425C205.115 54.753 205.734 54.5325 206.7 54.5325L207.351 54.5325L207.351 55.0785C207.351 55.782 206.774 56.1915 205.997 56.1915ZM212.104 59.016C213.805 59.016 214.887 58.2075 214.897 56.5905L214.897 51.5085L213.627 51.5085L213.627 52.3485C213.312 51.8025 212.766 51.393 211.863 51.393C210.445 51.393 209.395 52.548 209.395 54.0915L209.395 54.165C209.395 55.7505 210.456 56.7795 211.831 56.7795C212.64 56.7795 213.322 56.286 213.627 55.761L213.627 56.5695C213.627 57.5565 213.081 58.05 212.094 58.05C211.264 58.05 210.844 57.735 210.739 57.189L209.458 57.189C209.605 58.239 210.382 59.016 212.104 59.016ZM212.146 55.803C211.327 55.803 210.697 55.173 210.697 54.1545L210.697 54.0705C210.697 53.073 211.243 52.3905 212.188 52.3905C213.102 52.3905 213.669 53.01 213.669 54.0495L213.669 54.123C213.669 55.173 213.028 55.803 212.146 55.803ZM218.507 57.105C219.914 57.105 220.849 56.475 221.027 55.32L219.799 55.32C219.704 55.8555 219.305 56.16 218.539 56.16C217.594 56.16 217.069 55.572 217.027 54.5325L221.048 54.5325L221.048 54.165C221.048 52.2015 219.82 51.393 218.455 51.393C216.89 51.393 215.725 52.527 215.725 54.228L215.725 54.312C215.725 56.0445 216.89 57.105 218.507 57.105ZM217.048 53.682C217.174 52.8315 217.688 52.317 218.455 52.317C219.242 52.317 219.725 52.737 219.788 53.682L217.048 53.682ZM187.13 70L188.537 70L188.537 63.595L190.627 63.595L190.627 62.4925L185.041 62.4925L185.041 63.595L187.13 63.595L187.13 70ZM190.961 70L192.232 70L192.232 67.144C192.232 65.9785 192.904 65.6215 194.017 65.611L194.017 64.4245C193.093 64.435 192.578 64.8445 192.232 65.5375L192.232 64.5085L190.961 64.5085L190.961 70ZM196.155 70.105C196.995 70.105 197.478 69.8005 197.835 69.328L197.835 70L199.085 70L199.085 66.3985C199.085 64.897 198.119 64.393 196.89 64.393C195.662 64.393 194.643 64.9285 194.538 66.2095L195.767 66.2095C195.83 65.6635 196.155 65.3485 196.817 65.3485C197.562 65.3485 197.814 65.716 197.814 66.451L197.814 66.7345L197.132 66.7345C195.557 66.7345 194.318 67.1965 194.318 68.4775C194.318 69.622 195.147 70.105 196.155 70.105ZM196.46 69.1915C195.83 69.1915 195.578 68.887 195.578 68.425C195.578 67.753 196.197 67.5325 197.163 67.5325L197.814 67.5325L197.814 68.0785C197.814 68.782 197.237 69.1915 196.46 69.1915ZM202.631 70.105C204.122 70.105 205.077 69.2125 205.172 67.9525L204.006 67.9525C203.933 68.7295 203.355 69.1285 202.683 69.1285C201.749 69.1285 201.161 68.4985 201.161 67.3015L201.161 67.2175C201.161 66.0835 201.78 65.4115 202.652 65.4115C203.324 65.4115 203.807 65.716 203.912 66.451L205.14 66.451C204.993 64.939 203.849 64.393 202.631 64.393C201.098 64.393 199.859 65.4955 199.859 67.2385L199.859 67.3225C199.859 69.076 201.056 70.105 202.631 70.105ZM205.951 70L207.221 70L207.221 67.3015L209.279 70L210.749 70L208.439 67.0285L210.571 64.5085L209.185 64.5085L207.221 66.9235L207.221 61.9675L205.951 61.9675L205.951 70ZM213.454 70.105C214.861 70.105 215.796 69.475 215.974 68.32L214.746 68.32C214.651 68.8555 214.252 69.16 213.486 69.16C212.541 69.16 212.016 68.572 211.974 67.5325L215.995 67.5325L215.995 67.165C215.995 65.2015 214.767 64.393 213.402 64.393C211.837 64.393 210.672 65.527 210.672 67.228L210.672 67.312C210.672 69.0445 211.837 70.105 213.454 70.105ZM211.995 66.682C212.121 65.8315 212.635 65.317 213.402 65.317C214.189 65.317 214.672 65.737 214.735 66.682L211.995 66.682ZM216.815 70L218.086 70L218.086 67.144C218.086 65.9785 218.758 65.6215 219.871 65.611L219.871 64.4245C218.947 64.435 218.432 64.8445 218.086 65.5375L218.086 64.5085L216.815 64.5085L216.815 70Z" fill="white"/>
<rect x="82" y="148" width="50" height="75" rx="10" transform="rotate(-90 82 148)" fill="#2DB04E"/>
<path d="M102.33 120H103.726V116.965H104.619L106.582 120H108.094L105.984 116.755C106.918 116.514 107.653 115.915 107.653 114.739V114.697C107.653 113.164 106.498 112.492 104.85 112.492H102.33V120ZM103.726 115.968V113.574H104.85C105.742 113.574 106.278 113.868 106.278 114.729V114.771C106.278 115.569 105.784 115.968 104.85 115.968H103.726ZM111 120.105C112.407 120.105 113.341 119.475 113.52 118.32H112.291C112.197 118.855 111.798 119.16 111.031 119.16C110.086 119.16 109.561 118.572 109.519 117.532H113.541V117.165C113.541 115.201 112.312 114.393 110.947 114.393C109.383 114.393 108.217 115.527 108.217 117.228V117.312C108.217 119.044 109.383 120.105 111 120.105ZM109.54 116.682C109.666 115.831 110.181 115.317 110.947 115.317C111.735 115.317 112.218 115.737 112.281 116.682H109.54ZM116.765 120.105C118.256 120.105 119.212 119.212 119.306 117.952H118.141C118.067 118.729 117.49 119.128 116.818 119.128C115.883 119.128 115.295 118.498 115.295 117.301V117.217C115.295 116.083 115.915 115.411 116.786 115.411C117.458 115.411 117.941 115.716 118.046 116.451H119.275C119.128 114.939 117.983 114.393 116.765 114.393C115.232 114.393 113.993 115.495 113.993 117.238V117.322C113.993 119.076 115.19 120.105 116.765 120.105ZM122.5 120.105C123.907 120.105 124.842 119.475 125.02 118.32H123.792C123.697 118.855 123.298 119.16 122.532 119.16C121.587 119.16 121.062 118.572 121.02 117.532H125.041V117.165C125.041 115.201 123.813 114.393 122.448 114.393C120.883 114.393 119.718 115.527 119.718 117.228V117.312C119.718 119.044 120.883 120.105 122.5 120.105ZM121.041 116.682C121.167 115.831 121.681 115.317 122.448 115.317C123.235 115.317 123.718 115.737 123.781 116.682H121.041ZM125.893 120H127.163V114.508H125.893V120ZM126.512 113.605C126.932 113.605 127.268 113.29 127.268 112.881C127.268 112.461 126.932 112.146 126.512 112.146C126.092 112.146 125.756 112.461 125.756 112.881C125.756 113.29 126.092 113.605 126.512 113.605ZM128.397 121.879H129.667V119.139C129.961 119.674 130.591 120.105 131.463 120.105C132.88 120.105 133.899 119.034 133.899 117.27V117.186C133.899 115.411 132.838 114.393 131.463 114.393C130.654 114.393 129.972 114.865 129.667 115.39V114.508H128.397V121.879ZM131.148 119.097C130.224 119.097 129.625 118.519 129.625 117.291V117.207C129.625 115.989 130.255 115.39 131.137 115.39C131.967 115.39 132.597 115.989 132.597 117.207V117.291C132.597 118.467 132.082 119.097 131.148 119.097ZM136.595 120.094C136.984 120.094 137.257 120.031 137.456 119.958V118.95C137.278 119.023 137.089 119.055 136.837 119.055C136.438 119.055 136.207 118.834 136.207 118.351V115.464H137.414V114.508H136.207V113.301H134.936V114.508H134.201V115.464H134.936V118.467C134.936 119.506 135.503 120.094 136.595 120.094ZM103.073 133.105C104.732 133.105 105.834 132.086 105.834 130.784C105.834 129.283 104.921 128.779 103.157 128.537C101.855 128.348 101.603 128.044 101.603 127.435C101.603 126.857 102.044 126.448 102.894 126.448C103.755 126.448 104.207 126.784 104.343 127.571H105.624C105.477 126.133 104.511 125.398 102.894 125.398C101.33 125.398 100.28 126.322 100.28 127.55C100.28 128.957 101.13 129.503 102.926 129.745C104.144 129.944 104.49 130.207 104.49 130.9C104.49 131.593 103.902 132.055 103.073 132.055C101.802 132.055 101.498 131.425 101.403 130.669H100.059C100.164 132.086 101.025 133.105 103.073 133.105ZM109.171 133.105C110.662 133.105 111.617 132.212 111.712 130.952H110.546C110.473 131.729 109.895 132.128 109.223 132.128C108.289 132.128 107.701 131.498 107.701 130.301V130.217C107.701 129.083 108.32 128.411 109.192 128.411C109.864 128.411 110.347 128.716 110.452 129.451H111.68C111.533 127.939 110.389 127.393 109.171 127.393C107.638 127.393 106.399 128.495 106.399 130.238V130.322C106.399 132.076 107.596 133.105 109.171 133.105ZM113.929 133.105C114.769 133.105 115.252 132.8 115.609 132.328V133H116.859V129.398C116.859 127.897 115.893 127.393 114.664 127.393C113.436 127.393 112.417 127.928 112.312 129.209H113.541C113.604 128.663 113.929 128.348 114.591 128.348C115.336 128.348 115.588 128.716 115.588 129.451V129.734H114.906C113.331 129.734 112.092 130.196 112.092 131.477C112.092 132.622 112.921 133.105 113.929 133.105ZM114.234 132.191C113.604 132.191 113.352 131.887 113.352 131.425C113.352 130.753 113.971 130.532 114.937 130.532H115.588V131.078C115.588 131.782 115.011 132.191 114.234 132.191ZM118 133H119.271V129.766C119.271 128.894 119.848 128.453 120.562 128.453C121.318 128.453 121.654 128.831 121.654 129.661V133H122.925V129.545C122.925 128.033 122.148 127.393 121.045 127.393C120.142 127.393 119.533 127.844 119.271 128.38V127.508H118V133ZM124.073 133H125.344V129.766C125.344 128.894 125.921 128.453 126.635 128.453C127.391 128.453 127.727 128.831 127.727 129.661V133H128.998V129.545C128.998 128.033 128.221 127.393 127.118 127.393C126.215 127.393 125.606 127.844 125.344 128.38V127.508H124.073V133ZM132.561 133.105C133.968 133.105 134.903 132.475 135.081 131.32H133.853C133.758 131.855 133.359 132.16 132.593 132.16C131.648 132.16 131.123 131.572 131.081 130.532H135.102V130.165C135.102 128.201 133.874 127.393 132.509 127.393C130.944 127.393 129.779 128.527 129.779 130.228V130.312C129.779 132.044 130.944 133.105 132.561 133.105ZM131.102 129.682C131.228 128.831 131.742 128.317 132.509 128.317C133.296 128.317 133.779 128.737 133.842 129.682H131.102ZM135.922 133H137.193V130.144C137.193 128.978 137.865 128.621 138.978 128.611V127.424C138.054 127.435 137.539 127.844 137.193 128.537V127.508H135.922V133Z" fill="white"/>
<rect x="165.911" y="147.134" width="47.5198" height="73.4747" rx="9.3857" transform="rotate(-90 165.911 147.134)" fill="#2B2B2B" stroke="#767676" stroke-width="1.22861"/>
<path d="M174.367 126.716L175.774 126.716L175.774 120.311L177.863 120.311L177.863 119.209L172.277 119.209L172.277 120.311L174.367 120.311L174.367 126.716ZM178.496 126.716L179.767 126.716L179.767 121.225L178.496 121.225L178.496 126.716ZM179.116 120.322C179.536 120.322 179.872 120.007 179.872 119.597C179.872 119.177 179.536 118.862 179.116 118.862C178.696 118.862 178.36 119.177 178.36 119.597C178.36 120.007 178.696 120.322 179.116 120.322ZM181 126.716L182.271 126.716L182.271 123.43C182.271 122.59 182.848 122.17 183.478 122.17C184.098 122.17 184.455 122.516 184.455 123.325L184.455 126.716L185.725 126.716L185.725 123.43C185.725 122.59 186.303 122.17 186.933 122.17C187.563 122.17 187.909 122.516 187.909 123.325L187.909 126.716L189.18 126.716L189.18 123.241C189.18 121.729 188.361 121.109 187.353 121.109C186.67 121.109 185.914 121.414 185.494 122.096C185.221 121.414 184.654 121.109 183.94 121.109C183.132 121.109 182.533 121.55 182.271 122.065L182.271 121.225L181 121.225L181 126.716ZM192.739 126.821C194.146 126.821 195.08 126.191 195.259 125.036L194.03 125.036C193.936 125.572 193.537 125.876 192.77 125.876C191.825 125.876 191.3 125.288 191.258 124.249L195.28 124.249L195.28 123.881C195.28 121.918 194.051 121.109 192.686 121.109C191.122 121.109 189.956 122.243 189.956 123.944L189.956 124.028C189.956 125.761 191.122 126.821 192.739 126.821ZM191.279 123.398C191.405 122.548 191.92 122.033 192.686 122.033C193.474 122.033 193.957 122.453 194.02 123.398L191.279 123.398ZM199.893 126.716L201.3 126.716L201.3 120.311L203.39 120.311L203.39 119.209L197.804 119.209L197.804 120.311L199.893 120.311L199.893 126.716ZM203.724 126.716L204.994 126.716L204.994 123.86C204.994 122.695 205.666 122.338 206.779 122.327L206.779 121.141C205.855 121.151 205.341 121.561 204.994 122.254L204.994 121.225L203.724 121.225L203.724 126.716ZM208.918 126.821C209.758 126.821 210.241 126.517 210.598 126.044L210.598 126.716L211.848 126.716L211.848 123.115C211.848 121.613 210.882 121.109 209.653 121.109C208.425 121.109 207.406 121.645 207.301 122.926L208.53 122.926C208.593 122.38 208.918 122.065 209.58 122.065C210.325 122.065 210.577 122.432 210.577 123.167L210.577 123.451L209.895 123.451C208.32 123.451 207.081 123.913 207.081 125.194C207.081 126.338 207.91 126.821 208.918 126.821ZM209.223 125.908C208.593 125.908 208.341 125.603 208.341 125.141C208.341 124.469 208.96 124.249 209.926 124.249L210.577 124.249L210.577 124.795C210.577 125.498 210 125.908 209.223 125.908ZM215.394 126.821C216.885 126.821 217.84 125.929 217.935 124.669L216.769 124.669C216.696 125.446 216.118 125.845 215.446 125.845C214.512 125.845 213.924 125.215 213.924 124.018L213.924 123.934C213.924 122.8 214.543 122.128 215.415 122.128C216.087 122.128 216.57 122.432 216.675 123.167L217.903 123.167C217.756 121.655 216.612 121.109 215.394 121.109C213.861 121.109 212.622 122.212 212.622 123.955L212.622 124.039C212.622 125.792 213.819 126.821 215.394 126.821ZM218.714 126.716L219.984 126.716L219.984 124.018L222.042 126.716L223.512 126.716L221.202 123.745L223.334 121.225L221.948 121.225L219.984 123.64L219.984 118.684L218.714 118.684L218.714 126.716ZM226.217 126.821C227.624 126.821 228.559 126.191 228.737 125.036L227.509 125.036C227.414 125.572 227.015 125.876 226.249 125.876C225.304 125.876 224.779 125.288 224.737 124.249L228.758 124.249L228.758 123.881C228.758 121.918 227.53 121.109 226.165 121.109C224.6 121.109 223.435 122.243 223.435 123.944L223.435 124.028C223.435 125.761 224.6 126.821 226.217 126.821ZM224.758 123.398C224.884 122.548 225.398 122.033 226.165 122.033C226.952 122.033 227.435 122.453 227.498 123.398L224.758 123.398ZM229.578 126.716L230.849 126.716L230.849 123.86C230.849 122.695 231.521 122.338 232.634 122.327L232.634 121.141C231.71 121.151 231.195 121.561 230.849 122.254L230.849 121.225L229.578 121.225L229.578 126.716Z" fill="#959595"/>
</svg>
