<svg width="1182" height="410" viewBox="0 0 1182 410" fill="none" xmlns="http://www.w3.org/2000/svg">
<path d="M1 50.1443C1 23.0027 23.0026 1 50.1443 1H1131.86C1159 1 1181 23.0026 1181 50.1443V358.84C1181 368.481 1173.18 376.296 1163.54 376.296H18.4556C8.8151 376.296 1 368.481 1 358.84V50.1443Z" fill="#2A2A2A" stroke="#767676" stroke-width="1.74556" stroke-linecap="round"/>
<path d="M123.189 170.588C123.189 143.446 145.192 121.444 172.334 121.444H1016.65C1043.79 121.444 1065.79 143.446 1065.79 170.588V376.296H123.189V170.588Z" fill="#303030" stroke="#767676" stroke-width="1.74556" stroke-linecap="round"/>
<path d="M261.089 295.396C261.089 268.254 283.091 246.251 310.233 246.251H874.385C901.527 246.251 923.53 268.254 923.53 295.396V376.296H261.089V295.396Z" fill="#383838" stroke="#767676" stroke-width="1.74556" stroke-linecap="round"/>
<rect x="504.885" y="208.463" width="72.4878" height="113.328" rx="14.3857" transform="rotate(90 504.885 208.463)" fill="#2B2B2B" stroke="#767676" stroke-width="1.22861"/>
<path d="M436.434 240.325C438.764 240.325 440.312 238.895 440.312 237.067C440.312 234.958 439.029 234.251 436.552 233.912C434.724 233.646 434.37 233.219 434.37 232.364C434.37 231.553 434.989 230.978 436.184 230.978C437.393 230.978 438.027 231.449 438.218 232.555H440.017C439.811 230.535 438.454 229.503 436.184 229.503C433.987 229.503 432.513 230.801 432.513 232.526C432.513 234.501 433.707 235.268 436.228 235.607C437.938 235.887 438.425 236.256 438.425 237.229C438.425 238.202 437.599 238.851 436.434 238.851C434.65 238.851 434.223 237.966 434.09 236.904H432.203C432.35 238.895 433.559 240.325 436.434 240.325ZM444.54 240.31C445.085 240.31 445.468 240.222 445.749 240.119V238.703C445.498 238.806 445.233 238.851 444.879 238.851C444.319 238.851 443.994 238.541 443.994 237.863V233.808H445.69V232.467H443.994V230.771H442.21V232.467H441.178V233.808H442.21V238.025C442.21 239.485 443.006 240.31 444.54 240.31ZM449.302 240.325C450.482 240.325 451.16 239.897 451.661 239.234V240.177H453.415V235.121C453.415 233.012 452.059 232.305 450.334 232.305C448.609 232.305 447.179 233.056 447.032 234.855H448.757C448.845 234.089 449.302 233.646 450.231 233.646C451.278 233.646 451.632 234.162 451.632 235.194V235.592H450.673C448.462 235.592 446.722 236.241 446.722 238.04C446.722 239.647 447.887 240.325 449.302 240.325ZM449.73 239.042C448.845 239.042 448.491 238.615 448.491 237.966C448.491 237.022 449.361 236.713 450.717 236.713H451.632V237.479C451.632 238.467 450.821 239.042 449.73 239.042ZM455.622 240.177H457.406V233.808H460.119V240.177H461.903V233.808H463.657V232.467H461.903V231.361C461.903 230.698 462.198 230.226 462.92 230.226C463.245 230.226 463.525 230.285 463.731 230.358V228.973C463.407 228.869 463.141 228.825 462.699 228.825C461.063 228.825 460.119 229.739 460.119 231.435V232.467H457.406V231.449C457.406 230.786 457.701 230.314 458.424 230.314C458.748 230.314 459.013 230.388 459.22 230.462V229.076C458.895 228.973 458.63 228.928 458.202 228.928C456.551 228.928 455.622 229.828 455.622 231.538V232.467H454.576V233.808H455.622V240.177ZM403.361 259.177H405.13V251.216L408.33 259.177H408.964L412.104 251.216V259.177H414.065V248.636H411.47L408.757 255.831L405.985 248.636H403.361V259.177ZM418.13 259.325C419.31 259.325 419.988 258.897 420.489 258.234V259.177H422.244V254.121C422.244 252.012 420.887 251.305 419.162 251.305C417.437 251.305 416.007 252.056 415.86 253.855H417.585C417.673 253.089 418.13 252.646 419.059 252.646C420.106 252.646 420.46 253.162 420.46 254.194V254.592H419.502C417.29 254.592 415.55 255.241 415.55 257.04C415.55 258.647 416.715 259.325 418.13 259.325ZM418.558 258.042C417.673 258.042 417.32 257.615 417.32 256.966C417.32 256.022 418.189 255.713 419.546 255.713H420.46V256.479C420.46 257.467 419.649 258.042 418.558 258.042ZM424.141 259.177H425.925V254.637C425.925 253.413 426.736 252.794 427.738 252.794C428.8 252.794 429.272 253.324 429.272 254.489V259.177H431.056V254.327C431.056 252.204 429.965 251.305 428.417 251.305C427.149 251.305 426.294 251.939 425.925 252.69V251.467H424.141V259.177ZM434.983 259.325C436.163 259.325 436.841 258.897 437.342 258.234V259.177H439.097V254.121C439.097 252.012 437.74 251.305 436.015 251.305C434.29 251.305 432.86 252.056 432.713 253.855H434.438C434.526 253.089 434.983 252.646 435.912 252.646C436.959 252.646 437.313 253.162 437.313 254.194V254.592H436.354C434.143 254.592 432.403 255.241 432.403 257.04C432.403 258.647 433.568 259.325 434.983 259.325ZM435.411 258.042C434.526 258.042 434.172 257.615 434.172 256.966C434.172 256.022 435.042 255.713 436.399 255.713H437.313V256.479C437.313 257.467 436.502 258.042 435.411 258.042ZM444.282 262.008C446.67 262.008 448.189 260.873 448.203 258.603V251.467H446.419V252.646C445.977 251.88 445.21 251.305 443.943 251.305C441.952 251.305 440.478 252.926 440.478 255.094V255.197C440.478 257.423 441.967 258.868 443.898 258.868C445.034 258.868 445.992 258.175 446.419 257.438V258.573C446.419 259.959 445.653 260.652 444.267 260.652C443.102 260.652 442.512 260.21 442.365 259.443H440.566C440.773 260.917 441.864 262.008 444.282 262.008ZM444.341 257.497C443.191 257.497 442.306 256.612 442.306 255.182V255.064C442.306 253.664 443.073 252.705 444.4 252.705C445.682 252.705 446.478 253.575 446.478 255.035V255.138C446.478 256.612 445.579 257.497 444.341 257.497ZM453.567 259.325C455.543 259.325 456.855 258.44 457.106 256.819H455.381C455.248 257.57 454.688 257.998 453.611 257.998C452.284 257.998 451.547 257.172 451.488 255.713H457.135V255.197C457.135 252.44 455.41 251.305 453.493 251.305C451.297 251.305 449.66 252.897 449.66 255.285V255.403C449.66 257.836 451.297 259.325 453.567 259.325ZM451.518 254.519C451.695 253.324 452.417 252.602 453.493 252.602C454.599 252.602 455.277 253.192 455.366 254.519H451.518ZM458.581 259.177H460.365V254.563C460.365 253.383 461.176 252.794 462.06 252.794C462.93 252.794 463.432 253.28 463.432 254.415V259.177H465.215V254.563C465.215 253.383 466.026 252.794 466.911 252.794C467.796 252.794 468.282 253.28 468.282 254.415V259.177H470.066V254.297C470.066 252.174 468.916 251.305 467.501 251.305C466.542 251.305 465.481 251.732 464.891 252.69C464.508 251.732 463.712 251.305 462.709 251.305C461.574 251.305 460.734 251.924 460.365 252.646V251.467H458.581V259.177ZM475.358 259.325C477.334 259.325 478.646 258.44 478.897 256.819H477.172C477.039 257.57 476.479 257.998 475.403 257.998C474.076 257.998 473.339 257.172 473.28 255.713H478.926V255.197C478.926 252.44 477.201 251.305 475.285 251.305C473.088 251.305 471.451 252.897 471.451 255.285V255.403C471.451 257.836 473.088 259.325 475.358 259.325ZM473.309 254.519C473.486 253.324 474.208 252.602 475.285 252.602C476.39 252.602 477.069 253.192 477.157 254.519H473.309ZM480.372 259.177H482.156V254.637C482.156 253.413 482.967 252.794 483.97 252.794C485.031 252.794 485.503 253.324 485.503 254.489V259.177H487.287V254.327C487.287 252.204 486.196 251.305 484.648 251.305C483.38 251.305 482.525 251.939 482.156 252.69V251.467H480.372V259.177ZM491.819 259.31C492.364 259.31 492.748 259.222 493.028 259.119V257.703C492.777 257.806 492.512 257.851 492.158 257.851C491.598 257.851 491.273 257.541 491.273 256.863V252.808H492.969V251.467H491.273V249.771H489.49V251.467H488.457V252.808H489.49V257.025C489.49 258.485 490.286 259.31 491.819 259.31Z" fill="#959595"/>
<rect x="788.507" y="208.463" width="72.4878" height="113.328" rx="14.3857" transform="rotate(90 788.507 208.463)" fill="#2B2B2B" stroke="#767676" stroke-width="1.22861"/>
<path d="M700.586 249.778H702.562V239.237H700.586V249.778ZM704.753 249.778H706.537V245.237C706.537 244.013 707.348 243.394 708.351 243.394C709.412 243.394 709.884 243.925 709.884 245.09V249.778H711.668V244.928C711.668 242.805 710.577 241.905 709.029 241.905C707.761 241.905 706.906 242.539 706.537 243.291V242.067H704.753V249.778ZM715.451 249.778H717.53L720.317 242.067H718.562L716.572 247.95L714.552 242.067H712.636L715.451 249.778ZM724.594 249.926C726.57 249.926 727.882 249.041 728.132 247.419H726.407C726.275 248.171 725.714 248.599 724.638 248.599C723.311 248.599 722.574 247.773 722.515 246.313H728.162V245.797C728.162 243.04 726.437 241.905 724.52 241.905C722.323 241.905 720.687 243.497 720.687 245.886V246.004C720.687 248.436 722.323 249.926 724.594 249.926ZM722.545 245.119C722.722 243.925 723.444 243.203 724.52 243.203C725.626 243.203 726.304 243.792 726.393 245.119H722.545ZM729.608 249.778H731.392V245.237C731.392 244.013 732.203 243.394 733.205 243.394C734.267 243.394 734.738 243.925 734.738 245.09V249.778H736.522V244.928C736.522 242.805 735.431 241.905 733.883 241.905C732.615 241.905 731.76 242.539 731.392 243.291V242.067H729.608V249.778ZM741.054 249.911C741.6 249.911 741.983 249.822 742.263 249.719V248.304C742.013 248.407 741.747 248.451 741.394 248.451C740.833 248.451 740.509 248.142 740.509 247.463V243.409H742.204V242.067H740.509V240.372H738.725V242.067H737.693V243.409H738.725V247.626C738.725 249.085 739.521 249.911 741.054 249.911ZM747.175 248.54C745.819 248.54 745.037 247.552 745.037 245.974V245.856C745.037 244.264 745.848 243.306 747.175 243.306C748.502 243.306 749.298 244.279 749.298 245.871V245.974C749.298 247.552 748.502 248.54 747.175 248.54ZM747.16 249.926C749.431 249.926 751.126 248.363 751.126 245.96V245.842C751.126 243.483 749.431 241.905 747.175 241.905C744.905 241.905 743.209 243.497 743.209 245.886V246.004C743.209 248.348 744.89 249.926 747.16 249.926ZM752.591 249.778H754.375V245.768C754.375 244.131 755.318 243.63 756.881 243.615V241.949C755.584 241.964 754.861 242.539 754.375 243.512V242.067H752.591V249.778ZM759.23 252.417H760.985L765.186 242.067H763.447L761.56 247.036L759.51 242.067H757.579L760.631 248.997L759.23 252.417Z" fill="#959595"/>
<rect x="577.294" y="336.762" width="72.4878" height="113.328" rx="14.3857" transform="rotate(90 577.294 336.762)" fill="#2B2B2B" stroke="#767676" stroke-width="1.22861"/>
<path d="M495.207 378.077H497.167V373.757H500.765V372.239H497.167V369.098H501.738V367.535H495.207V378.077ZM503.048 378.077H504.831V370.366H503.048V378.077ZM503.917 369.098C504.507 369.098 504.979 368.656 504.979 368.081C504.979 367.491 504.507 367.049 503.917 367.049C503.328 367.049 502.856 367.491 502.856 368.081C502.856 368.656 503.328 369.098 503.917 369.098ZM506.858 378.077H508.642V373.536C508.642 372.312 509.453 371.693 510.456 371.693C511.517 371.693 511.989 372.224 511.989 373.389V378.077H513.773V373.226C513.773 371.103 512.682 370.204 511.134 370.204C509.866 370.204 509.011 370.838 508.642 371.59V370.366H506.858V378.077ZM517.701 378.224C518.88 378.224 519.558 377.797 520.06 377.133V378.077H521.814V373.02C521.814 370.912 520.458 370.204 518.733 370.204C517.008 370.204 515.578 370.956 515.43 372.755H517.155C517.244 371.988 517.701 371.546 518.629 371.546C519.676 371.546 520.03 372.062 520.03 373.094V373.492H519.072C516.86 373.492 515.121 374.14 515.121 375.939C515.121 377.546 516.285 378.224 517.701 378.224ZM518.128 376.942C517.244 376.942 516.89 376.514 516.89 375.865C516.89 374.922 517.76 374.612 519.116 374.612H520.03V375.379C520.03 376.367 519.219 376.942 518.128 376.942ZM523.711 378.077H525.495V373.536C525.495 372.312 526.306 371.693 527.309 371.693C528.37 371.693 528.842 372.224 528.842 373.389V378.077H530.626V373.226C530.626 371.103 529.535 370.204 527.987 370.204C526.719 370.204 525.864 370.838 525.495 371.59V370.366H523.711V378.077ZM535.91 378.224C538.003 378.224 539.345 376.971 539.478 375.202H537.841C537.738 376.293 536.927 376.853 535.984 376.853C534.671 376.853 533.846 375.969 533.846 374.288V374.17C533.846 372.578 534.716 371.634 535.939 371.634C536.883 371.634 537.561 372.062 537.709 373.094H539.433C539.227 370.971 537.62 370.204 535.91 370.204C533.757 370.204 532.018 371.752 532.018 374.199V374.317C532.018 376.779 533.698 378.224 535.91 378.224ZM544.257 378.224C546.233 378.224 547.545 377.34 547.796 375.718H546.071C545.938 376.47 545.378 376.897 544.302 376.897C542.975 376.897 542.238 376.072 542.179 374.612H547.825V374.096C547.825 371.339 546.1 370.204 544.184 370.204C541.987 370.204 540.35 371.796 540.35 374.185V374.303C540.35 376.735 541.987 378.224 544.257 378.224ZM542.208 373.418C542.385 372.224 543.107 371.501 544.184 371.501C545.289 371.501 545.968 372.091 546.056 373.418H542.208Z" fill="#959595"/>
<rect x="716.68" y="336.148" width="73.7164" height="114.557" rx="15" transform="rotate(90 716.68 336.148)" fill="#FF9500"/>
<path d="M632.464 378.97C634.971 378.97 636.769 377.687 637.079 375.151H635.162C634.956 376.641 633.924 377.378 632.464 377.378C630.518 377.378 629.383 375.977 629.383 373.603V373.485C629.383 371.127 630.592 369.682 632.45 369.682C633.968 369.682 634.75 370.404 634.971 371.805H636.961C636.725 369.328 634.853 368.119 632.435 368.119C629.501 368.119 627.319 370.33 627.319 373.5V373.618C627.319 376.862 629.162 378.97 632.464 378.97ZM638.483 378.823H640.267V374.282C640.267 373.058 641.078 372.439 642.08 372.439C643.142 372.439 643.613 372.969 643.613 374.134V378.823H645.397V373.972C645.397 371.849 644.306 370.95 642.758 370.95C641.49 370.95 640.635 371.584 640.267 372.335V367.544H638.483V378.823ZM650.696 378.97C652.672 378.97 653.984 378.085 654.234 376.464H652.51C652.377 377.215 651.817 377.643 650.74 377.643C649.413 377.643 648.676 376.817 648.617 375.358H654.264V374.842C654.264 372.085 652.539 370.95 650.622 370.95C648.426 370.95 646.789 372.542 646.789 374.93V375.048C646.789 377.481 648.426 378.97 650.696 378.97ZM648.647 374.164C648.824 372.969 649.546 372.247 650.622 372.247C651.728 372.247 652.406 372.837 652.495 374.164H648.647ZM659.086 378.97C661.18 378.97 662.521 377.717 662.654 375.948H661.018C660.914 377.039 660.103 377.599 659.16 377.599C657.848 377.599 657.022 376.714 657.022 375.033V374.916C657.022 373.323 657.892 372.38 659.116 372.38C660.059 372.38 660.737 372.807 660.885 373.839H662.61C662.403 371.716 660.796 370.95 659.086 370.95C656.934 370.95 655.194 372.498 655.194 374.945V375.063C655.194 377.525 656.875 378.97 659.086 378.97ZM664.043 378.823H665.827V375.033L668.716 378.823H670.78L667.537 374.65L670.53 371.112H668.584L665.827 374.503V367.544H664.043V378.823ZM671.857 381.462H673.641V377.614C674.054 378.365 674.939 378.97 676.162 378.97C678.153 378.97 679.583 377.466 679.583 374.989V374.871C679.583 372.38 678.094 370.95 676.162 370.95C675.027 370.95 674.069 371.613 673.641 372.35V371.112H671.857V381.462ZM675.72 377.555C674.423 377.555 673.582 376.744 673.582 375.019V374.901C673.582 373.191 674.467 372.35 675.705 372.35C676.87 372.35 677.755 373.191 677.755 374.901V375.019C677.755 376.67 677.032 377.555 675.72 377.555ZM681.084 378.823H682.868V371.112H681.084V378.823ZM681.954 369.844C682.543 369.844 683.015 369.402 683.015 368.827C683.015 368.237 682.543 367.795 681.954 367.795C681.364 367.795 680.892 368.237 680.892 368.827C680.892 369.402 681.364 369.844 681.954 369.844ZM688.286 378.97C690.261 378.97 691.573 378.085 691.824 376.464H690.099C689.966 377.215 689.406 377.643 688.33 377.643C687.003 377.643 686.266 376.817 686.207 375.358H691.854V374.842C691.854 372.085 690.129 370.95 688.212 370.95C686.015 370.95 684.379 372.542 684.379 374.93V375.048C684.379 377.481 686.015 378.97 688.286 378.97ZM686.236 374.164C686.413 372.969 687.136 372.247 688.212 372.247C689.318 372.247 689.996 372.837 690.084 374.164H686.236Z" fill="white"/>
<rect x="1021.54" y="80.1646" width="72.4878" height="113.328" rx="14.3857" transform="rotate(90 1021.54 80.1646)" fill="#2B2B2B" stroke="#767676" stroke-width="1.22861"/>
<path d="M936.907 121.479H938.75L939.576 118.87H943.601L944.441 121.479H946.476L942.996 110.938H940.431L936.907 121.479ZM941.596 112.545L943.144 117.44H940.033L941.596 112.545ZM947.79 121.479H949.574V116.865C949.574 115.685 950.385 115.095 951.269 115.095C952.139 115.095 952.64 115.582 952.64 116.717V121.479H954.424V116.865C954.424 115.685 955.235 115.095 956.12 115.095C957.004 115.095 957.491 115.582 957.491 116.717V121.479H959.275V116.599C959.275 114.476 958.125 113.606 956.71 113.606C955.751 113.606 954.69 114.034 954.1 114.992C953.717 114.034 952.92 113.606 951.918 113.606C950.783 113.606 949.942 114.226 949.574 114.948V113.769H947.79V121.479ZM963.196 121.627C964.376 121.627 965.054 121.199 965.555 120.536V121.479H967.309V116.422C967.309 114.314 965.953 113.606 964.228 113.606C962.503 113.606 961.073 114.358 960.926 116.157H962.651C962.739 115.39 963.196 114.948 964.125 114.948C965.172 114.948 965.526 115.464 965.526 116.496V116.894H964.567C962.356 116.894 960.616 117.543 960.616 119.341C960.616 120.948 961.781 121.627 963.196 121.627ZM963.624 120.344C962.739 120.344 962.385 119.916 962.385 119.268C962.385 118.324 963.255 118.015 964.611 118.015H965.526V118.781C965.526 119.769 964.715 120.344 963.624 120.344ZM969.354 121.479H973.409C975.723 121.479 977.021 120.491 977.021 118.531V118.472C977.021 117.071 976.343 116.29 974.912 115.98C976.107 115.611 976.578 114.786 976.578 113.739V113.68C976.578 111.763 975.296 110.938 973.128 110.938H969.354V121.479ZM971.271 120.079V116.702H973.04C974.485 116.702 975.089 117.248 975.089 118.339V118.398C975.089 119.489 974.485 120.079 973.173 120.079H971.271ZM971.271 115.376V112.338H972.863C974.116 112.338 974.691 112.766 974.691 113.769V113.827C974.691 114.904 974.19 115.376 972.893 115.376H971.271ZM980.582 121.627C981.761 121.627 982.439 121.199 982.941 120.536V121.479H984.695V116.422C984.695 114.314 983.339 113.606 981.614 113.606C979.889 113.606 978.459 114.358 978.311 116.157H980.036C980.125 115.39 980.582 114.948 981.51 114.948C982.557 114.948 982.911 115.464 982.911 116.496V116.894H981.953C979.741 116.894 978.002 117.543 978.002 119.341C978.002 120.948 979.166 121.627 980.582 121.627ZM981.009 120.344C980.125 120.344 979.771 119.916 979.771 119.268C979.771 118.324 980.641 118.015 981.997 118.015H982.911V118.781C982.911 119.769 982.1 120.344 981.009 120.344ZM987.231 124.118H988.986L993.188 113.769H991.448L989.561 118.737L987.512 113.769H985.58L988.632 120.698L987.231 124.118Z" fill="#959595"/>
<rect x="272.435" y="79.5503" width="73.7164" height="114.557" rx="15" transform="rotate(90 272.435 79.5503)" fill="#E27340"/>
<path d="M201.802 120.049C199.885 120.049 198.484 118.56 198.484 116.26V116.142C198.484 113.872 199.708 112.353 201.772 112.353C203.836 112.353 205.045 113.96 205.045 116.127V116.245C205.045 118.531 203.792 120.049 201.802 120.049ZM201.772 121.627C204.971 121.627 207.08 119.312 207.08 116.231V116.113C207.08 113.017 204.912 110.79 201.772 110.79C198.646 110.79 196.435 113.076 196.435 116.157V116.275C196.435 119.312 198.543 121.627 201.772 121.627ZM208.826 121.479H210.787V117.218H212.04L214.797 121.479H216.92L213.957 116.924C215.269 116.584 216.301 115.744 216.301 114.093V114.034C216.301 111.881 214.679 110.938 212.364 110.938H208.826V121.479ZM210.787 115.818V112.456H212.364C213.618 112.456 214.369 112.869 214.369 114.078V114.137C214.369 115.258 213.677 115.818 212.364 115.818H210.787ZM220.232 121.479H222.207V112.486H225.141V110.938H217.298V112.486H220.232V121.479ZM229.251 121.479H231.227V116.924L234.529 110.938H232.613L230.298 115.302L227.924 110.938H225.757L229.251 116.909V121.479Z" fill="white"/>
<rect x="455.263" y="79.5503" width="73.7164" height="114.557" rx="15" transform="rotate(90 455.263 79.5503)" fill="#3875F2"/>
<path d="M374.112 111.808H376.088V101.267H374.112V111.808ZM378.279 111.808H380.063V107.267C380.063 106.044 380.874 105.425 381.876 105.425C382.938 105.425 383.41 105.955 383.41 107.12V111.808H385.194V106.958C385.194 104.835 384.103 103.935 382.555 103.935C381.287 103.935 380.432 104.569 380.063 105.321V104.098H378.279V111.808ZM388.977 111.808H391.056L393.843 104.098H392.088L390.098 109.98L388.078 104.098H386.161L388.977 111.808ZM398.179 110.57C396.822 110.57 396.041 109.582 396.041 108.005V107.887C396.041 106.294 396.852 105.336 398.179 105.336C399.506 105.336 400.302 106.309 400.302 107.901V108.005C400.302 109.582 399.506 110.57 398.179 110.57ZM398.164 111.956C400.434 111.956 402.13 110.393 402.13 107.99V107.872C402.13 105.513 400.434 103.935 398.179 103.935C395.908 103.935 394.213 105.528 394.213 107.916V108.034C394.213 110.378 395.894 111.956 398.164 111.956ZM403.639 111.808H405.423V104.098H403.639V111.808ZM404.508 102.83C405.098 102.83 405.57 102.387 405.57 101.812C405.57 101.223 405.098 100.78 404.508 100.78C403.919 100.78 403.447 101.223 403.447 101.812C403.447 102.387 403.919 102.83 404.508 102.83ZM410.826 111.956C412.919 111.956 414.261 110.703 414.394 108.933H412.757C412.654 110.024 411.843 110.585 410.899 110.585C409.587 110.585 408.762 109.7 408.762 108.019V107.901C408.762 106.309 409.632 105.366 410.855 105.366C411.799 105.366 412.477 105.793 412.624 106.825H414.349C414.143 104.702 412.536 103.935 410.826 103.935C408.673 103.935 406.934 105.483 406.934 107.931V108.049C406.934 110.511 408.614 111.956 410.826 111.956ZM419.173 111.956C421.149 111.956 422.461 111.071 422.712 109.449H420.987C420.854 110.201 420.294 110.629 419.218 110.629C417.891 110.629 417.153 109.803 417.095 108.344H422.741V107.828C422.741 105.071 421.016 103.935 419.1 103.935C416.903 103.935 415.266 105.528 415.266 107.916V108.034C415.266 110.467 416.903 111.956 419.173 111.956ZM417.124 107.149C417.301 105.955 418.023 105.233 419.1 105.233C420.205 105.233 420.884 105.823 420.972 107.149H417.124ZM377.878 130.808H379.647V122.847L382.846 130.808H383.48L386.62 122.847V130.808H388.581V120.267H385.987L383.274 127.462L380.502 120.267H377.878V130.808ZM392.647 130.956C393.826 130.956 394.505 130.528 395.006 129.865V130.808H396.76V125.751C396.76 123.643 395.404 122.935 393.679 122.935C391.954 122.935 390.524 123.687 390.377 125.486H392.102C392.19 124.719 392.647 124.277 393.576 124.277C394.623 124.277 394.976 124.793 394.976 125.825V126.223H394.018C391.807 126.223 390.067 126.872 390.067 128.671C390.067 130.278 391.232 130.956 392.647 130.956ZM393.075 129.673C392.19 129.673 391.836 129.246 391.836 128.597C391.836 127.653 392.706 127.344 394.062 127.344H394.976V128.11C394.976 129.098 394.166 129.673 393.075 129.673ZM398.658 130.808H400.442V127.019L403.331 130.808H405.395L402.152 126.636L405.145 123.098H403.199L400.442 126.489V119.53H398.658V130.808ZM409.489 130.956C411.464 130.956 412.777 130.071 413.027 128.449H411.302C411.17 129.201 410.609 129.629 409.533 129.629C408.206 129.629 407.469 128.803 407.41 127.344H413.057V126.828C413.057 124.071 411.332 122.935 409.415 122.935C407.218 122.935 405.582 124.528 405.582 126.916V127.034C405.582 129.467 407.218 130.956 409.489 130.956ZM407.439 126.149C407.616 124.955 408.339 124.233 409.415 124.233C410.521 124.233 411.199 124.823 411.287 126.149H407.439ZM414.503 130.808H416.287V126.798C416.287 125.162 417.23 124.66 418.793 124.646V122.98C417.496 122.994 416.773 123.569 416.287 124.542V123.098H414.503V130.808Z" fill="white"/>
<rect x="583.384" y="79.5503" width="73.7164" height="114.557" rx="15" transform="rotate(90 583.384 79.5503)" fill="#5A32DF"/>
<path d="M499.927 111.808H501.696V103.847L504.896 111.808H505.53L508.67 103.847V111.808H510.631V101.267H508.036L505.323 108.462L502.551 101.267H499.927V111.808ZM512.793 111.808H514.577V104.098H512.793V111.808ZM513.663 102.83C514.252 102.83 514.724 102.387 514.724 101.812C514.724 101.223 514.252 100.78 513.663 100.78C513.073 100.78 512.601 101.223 512.601 101.812C512.601 102.387 513.073 102.83 513.663 102.83ZM516.648 111.808H518.432V100.53H516.648V111.808ZM523.85 111.956C525.825 111.956 527.138 111.071 527.388 109.449H525.663C525.531 110.201 524.97 110.629 523.894 110.629C522.567 110.629 521.83 109.803 521.771 108.344H527.418V107.828C527.418 105.071 525.693 103.935 523.776 103.935C521.579 103.935 519.943 105.528 519.943 107.916V108.034C519.943 110.467 521.579 111.956 523.85 111.956ZM521.801 107.149C521.977 105.955 522.7 105.233 523.776 105.233C524.882 105.233 525.56 105.823 525.649 107.149H521.801ZM530.956 111.956C532.135 111.956 532.813 111.528 533.314 110.865V111.808H535.069V106.751C535.069 104.643 533.713 103.935 531.988 103.935C530.263 103.935 528.833 104.687 528.685 106.486H530.41C530.499 105.719 530.956 105.277 531.884 105.277C532.931 105.277 533.285 105.793 533.285 106.825V107.223H532.327C530.115 107.223 528.375 107.872 528.375 109.671C528.375 111.278 529.54 111.956 530.956 111.956ZM531.383 110.673C530.499 110.673 530.145 110.246 530.145 109.597C530.145 108.653 531.015 108.344 532.371 108.344H533.285V109.11C533.285 110.098 532.474 110.673 531.383 110.673ZM540.254 114.639C542.642 114.639 544.161 113.504 544.176 111.233V104.098H542.392V105.277C541.949 104.51 541.183 103.935 539.915 103.935C537.925 103.935 536.45 105.557 536.45 107.724V107.828C536.45 110.054 537.939 111.499 539.871 111.499C541.006 111.499 541.964 110.806 542.392 110.069V111.204C542.392 112.59 541.625 113.283 540.239 113.283C539.074 113.283 538.485 112.84 538.337 112.074H536.539C536.745 113.548 537.836 114.639 540.254 114.639ZM540.313 110.128C539.163 110.128 538.278 109.243 538.278 107.813V107.695C538.278 106.294 539.045 105.336 540.372 105.336C541.655 105.336 542.451 106.206 542.451 107.665V107.769C542.451 109.243 541.551 110.128 540.313 110.128ZM549.539 111.956C551.515 111.956 552.827 111.071 553.078 109.449H551.353C551.22 110.201 550.66 110.629 549.584 110.629C548.257 110.629 547.52 109.803 547.461 108.344H553.107V107.828C553.107 105.071 551.382 103.935 549.466 103.935C547.269 103.935 545.632 105.528 545.632 107.916V108.034C545.632 110.467 547.269 111.956 549.539 111.956ZM547.49 107.149C547.667 105.955 548.389 105.233 549.466 105.233C550.571 105.233 551.25 105.823 551.338 107.149H547.49ZM503.639 130.808H505.615V121.815H508.549V120.267H500.705V121.815H503.639V130.808ZM509.313 130.808H511.097V126.798C511.097 125.162 512.041 124.66 513.603 124.646V122.98C512.306 122.994 511.584 123.569 511.097 124.542V123.098H509.313V130.808ZM516.901 130.956C518.081 130.956 518.759 130.528 519.26 129.865V130.808H521.015V125.751C521.015 123.643 519.658 122.935 517.933 122.935C516.208 122.935 514.778 123.687 514.631 125.486H516.356C516.444 124.719 516.901 124.277 517.83 124.277C518.877 124.277 519.231 124.793 519.231 125.825V126.223H518.272C516.061 126.223 514.321 126.872 514.321 128.671C514.321 130.278 515.486 130.956 516.901 130.956ZM517.329 129.673C516.444 129.673 516.09 129.246 516.09 128.597C516.09 127.653 516.96 127.344 518.317 127.344H519.231V128.11C519.231 129.098 518.42 129.673 517.329 129.673ZM526.288 130.956C528.382 130.956 529.723 129.703 529.856 127.933H528.22C528.116 129.024 527.305 129.585 526.362 129.585C525.05 129.585 524.224 128.7 524.224 127.019V126.901C524.224 125.309 525.094 124.366 526.318 124.366C527.261 124.366 527.939 124.793 528.087 125.825H529.812C529.605 123.702 527.998 122.935 526.288 122.935C524.136 122.935 522.396 124.483 522.396 126.931V127.049C522.396 129.511 524.077 130.956 526.288 130.956ZM531.245 130.808H533.029V127.019L535.918 130.808H537.983L534.739 126.636L537.732 123.098H535.786L533.029 126.489V119.53H531.245V130.808ZM542.076 130.956C544.052 130.956 545.364 130.071 545.614 128.449H543.889C543.757 129.201 543.196 129.629 542.12 129.629C540.793 129.629 540.056 128.803 539.997 127.344H545.644V126.828C545.644 124.071 543.919 122.935 542.002 122.935C539.805 122.935 538.169 124.528 538.169 126.916V127.034C538.169 129.467 539.805 130.956 542.076 130.956ZM540.027 126.149C540.204 124.955 540.926 124.233 542.002 124.233C543.108 124.233 543.786 124.823 543.875 126.149H540.027ZM547.09 130.808H548.874V126.798C548.874 125.162 549.817 124.66 551.38 124.646V122.98C550.083 122.994 549.36 123.569 548.874 124.542V123.098H547.09V130.808Z" fill="white"/>
<rect x="596.947" y="153.267" width="73.7164" height="114.557" rx="15" transform="rotate(-90 596.947 153.267)" fill="#2DB04E"/>
<path d="M629.562 111.979H631.523V107.718H632.776L635.533 111.979H637.656L634.692 107.424C636.004 107.084 637.037 106.244 637.037 104.593V104.534C637.037 102.381 635.415 101.438 633.1 101.438H629.562V111.979ZM631.523 106.318V102.956H633.1C634.353 102.956 635.105 103.369 635.105 104.578V104.637C635.105 105.758 634.412 106.318 633.1 106.318H631.523ZM642.031 112.127C644.006 112.127 645.318 111.242 645.569 109.62H643.844C643.711 110.372 643.151 110.8 642.075 110.8C640.748 110.8 640.011 109.974 639.952 108.515H645.599V107.999C645.599 105.242 643.874 104.106 641.957 104.106C639.76 104.106 638.124 105.699 638.124 108.087V108.205C638.124 110.638 639.76 112.127 642.031 112.127ZM639.981 107.32C640.158 106.126 640.881 105.404 641.957 105.404C643.063 105.404 643.741 105.993 643.829 107.32H639.981ZM650.421 112.127C652.514 112.127 653.856 110.874 653.989 109.104H652.352C652.249 110.195 651.438 110.756 650.494 110.756C649.182 110.756 648.357 109.871 648.357 108.19V108.072C648.357 106.48 649.227 105.536 650.45 105.536C651.394 105.536 652.072 105.964 652.219 106.996H653.944C653.738 104.873 652.131 104.106 650.421 104.106C648.268 104.106 646.529 105.654 646.529 108.102V108.22C646.529 110.682 648.209 112.127 650.421 112.127ZM658.768 112.127C660.744 112.127 662.056 111.242 662.307 109.62H660.582C660.449 110.372 659.889 110.8 658.813 110.8C657.486 110.8 656.749 109.974 656.69 108.515H662.336V107.999C662.336 105.242 660.611 104.106 658.695 104.106C656.498 104.106 654.861 105.699 654.861 108.087V108.205C654.861 110.638 656.498 112.127 658.768 112.127ZM656.719 107.32C656.896 106.126 657.618 105.404 658.695 105.404C659.8 105.404 660.479 105.993 660.567 107.32H656.719ZM663.826 111.979H665.61V104.269H663.826V111.979ZM664.696 103.001C665.286 103.001 665.758 102.558 665.758 101.983C665.758 101.394 665.286 100.951 664.696 100.951C664.107 100.951 663.635 101.394 663.635 101.983C663.635 102.558 664.107 103.001 664.696 103.001ZM667.637 114.618H669.421V110.77C669.834 111.522 670.719 112.127 671.942 112.127C673.933 112.127 675.363 110.623 675.363 108.146V108.028C675.363 105.536 673.874 104.106 671.942 104.106C670.807 104.106 669.849 104.77 669.421 105.507V104.269H667.637V114.618ZM671.5 110.711C670.203 110.711 669.362 109.9 669.362 108.175V108.058C669.362 106.347 670.247 105.507 671.485 105.507C672.65 105.507 673.535 106.347 673.535 108.058V108.175C673.535 109.827 672.812 110.711 671.5 110.711ZM679.444 112.112C679.989 112.112 680.373 112.023 680.653 111.92V110.505C680.402 110.608 680.137 110.652 679.783 110.652C679.223 110.652 678.898 110.343 678.898 109.665V105.61H680.594V104.269H678.898V102.573H677.115V104.269H676.082V105.61H677.115V109.827C677.115 111.286 677.911 112.112 679.444 112.112ZM630.753 131.127C633.082 131.127 634.63 129.697 634.63 127.868C634.63 125.76 633.347 125.052 630.87 124.713C629.042 124.448 628.688 124.02 628.688 123.165C628.688 122.354 629.308 121.779 630.502 121.779C631.711 121.779 632.345 122.251 632.536 123.357H634.335C634.129 121.337 632.772 120.305 630.502 120.305C628.305 120.305 626.831 121.603 626.831 123.327C626.831 125.303 628.025 126.07 630.546 126.409C632.256 126.689 632.743 127.058 632.743 128.031C632.743 129.004 631.917 129.652 630.753 129.652C628.969 129.652 628.541 128.768 628.408 127.706H626.521C626.669 129.697 627.878 131.127 630.753 131.127ZM639.61 131.127C641.703 131.127 643.045 129.874 643.178 128.104H641.541C641.438 129.195 640.627 129.756 639.684 129.756C638.371 129.756 637.546 128.871 637.546 127.19V127.072C637.546 125.48 638.416 124.536 639.639 124.536C640.583 124.536 641.261 124.964 641.408 125.996H643.133C642.927 123.873 641.32 123.106 639.61 123.106C637.457 123.106 635.718 124.654 635.718 127.102V127.22C635.718 129.682 637.398 131.127 639.61 131.127ZM646.586 131.127C647.766 131.127 648.444 130.699 648.945 130.036V130.979H650.7V125.922C650.7 123.814 649.343 123.106 647.618 123.106C645.893 123.106 644.463 123.858 644.316 125.657H646.041C646.129 124.89 646.586 124.448 647.515 124.448C648.562 124.448 648.916 124.964 648.916 125.996V126.394H647.957C645.746 126.394 644.006 127.043 644.006 128.841C644.006 130.448 645.171 131.127 646.586 131.127ZM647.014 129.844C646.129 129.844 645.775 129.416 645.775 128.768C645.775 127.824 646.645 127.515 648.002 127.515H648.916V128.281C648.916 129.269 648.105 129.844 647.014 129.844ZM652.597 130.979H654.381V126.438C654.381 125.215 655.192 124.595 656.194 124.595C657.256 124.595 657.728 125.126 657.728 126.291V130.979H659.511V126.129C659.511 124.006 658.42 123.106 656.872 123.106C655.605 123.106 654.749 123.74 654.381 124.492V123.269H652.597V130.979ZM661.419 130.979H663.203V126.438C663.203 125.215 664.014 124.595 665.017 124.595C666.078 124.595 666.55 125.126 666.55 126.291V130.979H668.334V126.129C668.334 124.006 667.243 123.106 665.695 123.106C664.427 123.106 663.572 123.74 663.203 124.492V123.269H661.419V130.979ZM673.633 131.127C675.608 131.127 676.92 130.242 677.171 128.62H675.446C675.313 129.372 674.753 129.8 673.677 129.8C672.35 129.8 671.613 128.974 671.554 127.515H677.2V126.999C677.2 124.242 675.475 123.106 673.559 123.106C671.362 123.106 669.726 124.699 669.726 127.087V127.205C669.726 129.638 671.362 131.127 673.633 131.127ZM671.583 126.32C671.76 125.126 672.483 124.404 673.559 124.404C674.665 124.404 675.343 124.993 675.431 126.32H671.583ZM678.646 130.979H680.43V126.969C680.43 125.333 681.374 124.831 682.937 124.817V123.151C681.639 123.165 680.917 123.74 680.43 124.713V123.269H678.646V130.979Z" fill="white"/>
<rect x="725.682" y="152.652" width="72.4878" height="113.328" rx="14.3857" transform="rotate(-90 725.682 152.652)" fill="#2B2B2B" stroke="#767676" stroke-width="1.22861"/>
<path d="M768.21 111.808H770.186V102.815H773.12V101.267H765.277V102.815H768.21V111.808ZM774.303 111.808H776.087V104.097H774.303V111.808ZM775.173 102.829C775.763 102.829 776.234 102.387 776.234 101.812C776.234 101.222 775.763 100.78 775.173 100.78C774.583 100.78 774.111 101.222 774.111 101.812C774.111 102.387 774.583 102.829 775.173 102.829ZM778.114 111.808H779.898V107.193C779.898 106.014 780.709 105.424 781.593 105.424C782.463 105.424 782.964 105.911 782.964 107.046V111.808H784.748V107.193C784.748 106.014 785.559 105.424 786.444 105.424C787.328 105.424 787.815 105.911 787.815 107.046V111.808H789.599V106.928C789.599 104.805 788.449 103.935 787.034 103.935C786.075 103.935 785.014 104.363 784.424 105.321C784.041 104.363 783.245 103.935 782.242 103.935C781.107 103.935 780.266 104.554 779.898 105.277V104.097H778.114V111.808ZM794.891 111.956C796.867 111.956 798.179 111.071 798.43 109.449H796.705C796.572 110.201 796.012 110.629 794.936 110.629C793.609 110.629 792.872 109.803 792.813 108.343H798.459V107.827C798.459 105.07 796.734 103.935 794.818 103.935C792.621 103.935 790.984 105.527 790.984 107.916V108.034C790.984 110.466 792.621 111.956 794.891 111.956ZM792.842 107.149C793.019 105.955 793.741 105.233 794.818 105.233C795.923 105.233 796.602 105.822 796.69 107.149H792.842ZM759.403 130.808H761.378V121.815H764.312V120.267H756.469V121.815H759.403V130.808ZM765.076 130.808H766.86V126.798C766.86 125.161 767.804 124.66 769.367 124.645V122.979C768.069 122.994 767.347 123.569 766.86 124.542V123.097H765.076V130.808ZM772.665 130.956C773.844 130.956 774.522 130.528 775.024 129.865V130.808H776.778V125.751C776.778 123.643 775.422 122.935 773.697 122.935C771.972 122.935 770.542 123.687 770.394 125.486H772.119C772.208 124.719 772.665 124.277 773.594 124.277C774.64 124.277 774.994 124.793 774.994 125.825V126.223H774.036C771.824 126.223 770.085 126.872 770.085 128.67C770.085 130.277 771.249 130.956 772.665 130.956ZM773.092 129.673C772.208 129.673 771.854 129.245 771.854 128.597C771.854 127.653 772.724 127.343 774.08 127.343H774.994V128.11C774.994 129.098 774.183 129.673 773.092 129.673ZM782.052 130.956C784.145 130.956 785.487 129.702 785.62 127.933H783.983C783.88 129.024 783.069 129.584 782.125 129.584C780.813 129.584 779.988 128.7 779.988 127.019V126.901C779.988 125.309 780.857 124.365 782.081 124.365C783.025 124.365 783.703 124.793 783.85 125.825H785.575C785.369 123.702 783.762 122.935 782.052 122.935C779.899 122.935 778.159 124.483 778.159 126.931V127.049C778.159 129.511 779.84 130.956 782.052 130.956ZM787.008 130.808H788.792V127.019L791.682 130.808H793.746L790.502 126.636L793.495 123.097H791.549L788.792 126.488V119.529H787.008V130.808ZM797.839 130.956C799.815 130.956 801.127 130.071 801.378 128.449H799.653C799.52 129.201 798.96 129.629 797.884 129.629C796.557 129.629 795.82 128.803 795.761 127.343H801.407V126.827C801.407 124.07 799.682 122.935 797.766 122.935C795.569 122.935 793.932 124.527 793.932 126.916V127.034C793.932 129.466 795.569 130.956 797.839 130.956ZM795.79 126.149C795.967 124.955 796.689 124.233 797.766 124.233C798.871 124.233 799.55 124.822 799.638 126.149H795.79ZM802.853 130.808H804.637V126.798C804.637 125.161 805.581 124.66 807.144 124.645V122.979C805.846 122.994 805.124 123.569 804.637 124.542V123.097H802.853V130.808Z" fill="#959595"/>
</svg>
