<svg width="46" height="46" viewBox="0 0 46 46" fill="none" xmlns="http://www.w3.org/2000/svg">
<rect width="46" height="46" rx="10" fill="#EDEDED"/>
<g opacity="0.3" clip-path="url(#clip0_110:980)">
<path d="M30.6757 34.8801C29.1952 36.3529 27.5617 36.1233 26.0047 35.4289C24.3493 34.7205 22.836 34.6757 21.0878 35.4289C18.9107 36.3921 17.7553 36.1121 16.4441 34.8801C9.04148 27.0681 10.1341 15.1681 18.5474 14.7201C20.5879 14.8321 22.0165 15.8765 23.2184 15.9633C25.0049 15.5909 26.7149 14.5241 28.627 14.6641C30.9243 14.8545 32.6424 15.7841 33.7897 17.4557C29.0641 20.3677 30.184 26.7517 34.5245 28.5437C33.6559 30.8817 32.5414 33.1917 30.673 34.8997L30.6757 34.8801ZM23.0545 14.6361C22.8333 11.1641 25.5785 8.30808 28.7363 8.02808C29.1706 12.0321 25.1852 15.0281 23.0545 14.6361Z" fill="black"/>
</g>
<defs>
<clipPath id="clip0_110:980">
<rect width="23" height="28" fill="white" transform="translate(11.5 8)"/>
</clipPath>
</defs>
</svg>
