<svg width="46" height="46" viewBox="0 0 46 46" fill="none" xmlns="http://www.w3.org/2000/svg">
<rect width="46" height="46" rx="10" fill="#EDEDED"/>
<path fill-rule="evenodd" clip-rule="evenodd" d="M10.5 11.5C9.39543 11.5 8.5 12.3954 8.5 13.5V17.5H37.5V13.5C37.5 12.3954 36.6046 11.5 35.5 11.5H10.5ZM37.5 18.5H8.5V32.5C8.5 33.6046 9.39543 34.5 10.5 34.5H35.5C36.6046 34.5 37.5 33.6046 37.5 32.5V18.5ZM12.25 15.25C12.6642 15.25 13 14.9142 13 14.5C13 14.0858 12.6642 13.75 12.25 13.75C11.8358 13.75 11.5 14.0858 11.5 14.5C11.5 14.9142 11.8358 15.25 12.25 15.25ZM16 14.5C16 14.9142 15.6642 15.25 15.25 15.25C14.8358 15.25 14.5 14.9142 14.5 14.5C14.5 14.0858 14.8358 13.75 15.25 13.75C15.6642 13.75 16 14.0858 16 14.5ZM18.25 15.25C18.6642 15.25 19 14.9142 19 14.5C19 14.0858 18.6642 13.75 18.25 13.75C17.8358 13.75 17.5 14.0858 17.5 14.5C17.5 14.9142 17.8358 15.25 18.25 15.25ZM28.5 14.5C28.5 14.2239 28.7239 14 29 14H34C34.2761 14 34.5 14.2239 34.5 14.5C34.5 14.7761 34.2761 15 34 15H29C28.7239 15 28.5 14.7761 28.5 14.5ZM20.5 24C20.5 22.8954 19.6046 22 18.5 22H13.5C12.3954 22 11.5 22.8954 11.5 24V29C11.5 30.1046 12.3954 31 13.5 31H18.5C19.6046 31 20.5 30.1046 20.5 29V24ZM12.5 24C12.5 23.4477 12.9477 23 13.5 23H18.5C19.0523 23 19.5 23.4477 19.5 24V29C19.5 29.5523 19.0523 30 18.5 30H13.5C12.9477 30 12.5 29.5523 12.5 29V24ZM24.5 23.5C24.5 23.2239 24.7239 23 25 23L34 23C34.2761 23 34.5 23.2239 34.5 23.5C34.5 23.7761 34.2761 24 34 24L25 24C24.7239 24 24.5 23.7761 24.5 23.5ZM25 26C24.7239 26 24.5 26.2239 24.5 26.5C24.5 26.7761 24.7239 27 25 27L34 27C34.2761 27 34.5 26.7761 34.5 26.5C34.5 26.2239 34.2761 26 34 26L25 26ZM24.5 29.5C24.5 29.2239 24.7239 29 25 29H34C34.2761 29 34.5 29.2239 34.5 29.5C34.5 29.7761 34.2761 30 34 30H25C24.7239 30 24.5 29.7761 24.5 29.5Z" fill="#A6A6A6"/>
</svg>
