<svg width="46" height="46" viewBox="0 0 46 46" fill="none" xmlns="http://www.w3.org/2000/svg">
<rect width="46" height="46" rx="10" fill="#EDEDED"/>
<path d="M11.8174 29.3545H11.8938C12.8977 29.3545 13.7112 28.5206 13.7112 27.5047V19.4583C13.7112 18.444 12.8912 17.6101 11.8938 17.6101H11.8174C10.8135 17.6101 10 18.4441 10 19.4583V27.5047C9.9999 28.5206 10.8135 29.3545 11.8174 29.3545Z" fill="black" fill-opacity="0.3"/>
<path d="M14.5817 30.6074C14.5817 31.5456 15.3317 32.3018 16.2543 32.3018H18.0391V36.6518C18.0391 37.6726 18.8527 38.5001 19.8581 38.5001H19.9329C20.9384 38.5001 21.752 37.6661 21.752 36.6518V32.3018H24.2494V36.6518C24.2494 37.6726 25.0695 38.5001 26.0669 38.5001H26.1434C27.1472 38.5001 27.9608 37.6661 27.9608 36.6518V32.3018H29.7473C30.6617 32.3018 31.4183 31.5456 31.4183 30.6074V17.9082H14.5817V30.6074Z" fill="black" fill-opacity="0.3"/>
<path d="M31.451 17.1386C31.4624 16.9699 31.4754 16.8027 31.4754 16.634C31.4754 13.8807 29.7474 11.4765 27.1913 10.2024L28.6101 7.97369C28.6979 7.83798 28.6605 7.6444 28.5206 7.55337C28.3806 7.45575 28.1968 7.4955 28.1072 7.6444L26.6331 9.9443C25.5332 9.48599 24.3 9.22786 23.0032 9.22786C21.6999 9.22786 20.4683 9.48599 19.3684 9.9443L17.8992 7.6444C17.8113 7.4955 17.621 7.45575 17.481 7.55337C17.3411 7.6444 17.302 7.83798 17.3915 7.97369L18.8086 10.2024C16.2542 11.4765 14.5247 13.8806 14.5247 16.634C14.5247 16.8027 14.5376 16.9699 14.5507 17.1386H31.451ZM26.918 12.5371C27.3703 12.5371 27.7316 12.8977 27.7316 13.3577C27.7316 13.816 27.3703 14.185 26.918 14.185C26.4674 14.185 26.1046 13.816 26.1046 13.3577C26.1046 12.8977 26.4673 12.5371 26.918 12.5371ZM19.0821 12.5371C19.5328 12.5371 19.8957 12.8977 19.8957 13.3577C19.8957 13.816 19.5328 14.185 19.0821 14.185C18.6315 14.185 18.2687 13.816 18.2687 13.3577C18.2687 12.8977 18.6315 12.5371 19.0821 12.5371Z" fill="black" fill-opacity="0.3"/>
<path d="M34.1061 29.3545H34.1826C35.1864 29.3545 36 28.5206 36 27.5047V19.4583C36 18.444 35.1816 17.6101 34.1826 17.6101H34.1061C33.1022 17.6101 32.2887 18.4441 32.2887 19.4583V27.5047C32.2888 28.5206 33.1087 29.3545 34.1061 29.3545Z" fill="black" fill-opacity="0.3"/>
</svg>
