<svg width="210" height="43" viewBox="0 0 210 43" fill="none" xmlns="http://www.w3.org/2000/svg">
<path fill-rule="evenodd" clip-rule="evenodd" d="M29.6357 1.43333H34.3357L27.9857 16.9563H28.5714L39.7 42.097H33.6642L31.4642 36.7077H19.9214L17.7214 42.097H11.8285L12.2285 41.1797L18.4071 27.0828C16.3479 28.1055 14.0675 28.598 11.7714 28.5162C7.8571 28.5305 3.8571 27.348 1.6571 25.6208L3.6071 21.242C6.01466 22.9252 8.87282 23.8394 11.8071 23.865C15.2142 23.865 16.6 22.7112 16.6 21.1703C16.6 19.221 14.1142 18.6333 11.2 17.9453C7.09282 16.985 2.14282 15.824 2.14282 10.363C2.14282 6.09167 5.5571 2.537 12.6285 2.537C15.6505 2.47517 18.6317 3.24342 21.25 4.75867L19.4785 9.1805C17.3948 7.9293 15.0208 7.24735 12.5928 7.2025C9.17853 7.2025 7.86425 8.4925 7.86425 10.0692C7.86425 11.9898 10.35 12.5632 13.2642 13.2368C16.8357 14.0538 20.9785 15.0213 22.0571 18.7408L29.6357 1.43333ZM21.7785 32.293L25.7142 22.6682L29.6571 32.293H21.7785Z" fill="white"/>
<path d="M63.4143 31.3685C68.7786 31.3685 71.4286 28.6667 71.4286 25.5205C71.4286 18.8412 61.1928 20.9123 61.1928 18.146C61.1928 17.243 61.9643 16.512 64.1071 16.512C65.8631 16.5576 67.5806 17.0376 69.1071 17.9095L70.6786 14.1112C68.6643 13.0348 66.4104 12.4898 64.1286 12.5273C58.7643 12.5273 56.1357 15.1718 56.1357 18.404C56.1357 25.1335 66.4 23.0337 66.4 25.9075C66.4 26.789 65.5714 27.3838 63.4571 27.3838C61.3452 27.3527 59.2832 26.735 57.5 25.5993L55.8071 29.3833C57.5071 30.5658 60.45 31.3685 63.4143 31.3685ZM79.4928 16.7485C77.3279 16.7106 75.1947 17.2736 73.3286 18.3753L75 21.715C76.1063 20.9212 77.4327 20.4951 78.7928 20.4967C80.7286 20.4967 81.65 21.2993 81.7571 22.7255H78.9714C74.6357 22.7255 72.7571 24.3308 72.7571 26.918C72.7571 29.3475 74.6143 31.218 77.9643 31.218C80 31.218 81.3928 30.5013 82.0928 29.1755V30.9815H86.6571V23.22C86.6357 18.7695 84.0286 16.7485 79.4928 16.7485ZM79.2857 28.1363C78.1214 28.1363 77.45 27.5415 77.45 26.703C77.45 25.8645 78.0214 25.2697 79.5928 25.2697H81.7357V26.5167C81.5603 27.0184 81.2256 27.4486 80.783 27.7412C80.3405 28.0338 79.8145 28.1726 79.2857 28.1363ZM89.7 31.003H94.6V11.8035H89.7V31.003ZM107.736 11.8035V18.1962C107.227 17.7004 106.62 17.3168 105.954 17.0699C105.289 16.8231 104.579 16.7185 103.871 16.7628C100.05 16.7628 96.9857 19.5292 96.9857 23.9797C96.9857 28.4302 100.05 31.2538 103.871 31.2538C105.679 31.2538 107.043 30.7378 107.971 29.6198V31.0173H112.636V11.8035H107.736ZM104.879 27.3337C103.2 27.3337 101.943 26.1153 101.943 23.9653C101.943 21.8153 103.2 20.6543 104.879 20.6543C106.557 20.6543 107.857 21.844 107.857 23.9653C107.857 26.0867 106.579 27.3337 104.929 27.3337H104.879ZM122.857 31.2395C127.471 31.2395 130.75 28.208 130.75 23.9653C130.75 19.7227 127.45 16.7485 122.857 16.7485C118.264 16.7485 114.964 19.7513 114.964 23.9653C114.964 28.1793 118.271 31.2395 122.857 31.2395ZM122.857 27.3337C121.207 27.3337 119.914 26.1153 119.914 23.9653C119.914 21.8153 121.207 20.6543 122.857 20.6543C124.507 20.6543 125.793 21.844 125.793 23.9653C125.793 26.0867 124.514 27.3337 122.857 27.3337ZM154.286 31.003H159.593L151.564 12.9H146.564L138.571 31.003H143.786L145.214 27.4842H152.857L154.286 31.003ZM146.693 23.7073L149.014 17.9167L151.336 23.7145L146.693 23.7073ZM169.55 16.7485C167.714 16.7485 166.35 17.2645 165.421 18.3753V16.9778H160.757V36.0268H165.714V29.7632C166.227 30.2649 166.837 30.6551 167.507 30.9091C168.177 31.1632 168.892 31.2756 169.607 31.2395C173.393 31.2395 176.464 28.4445 176.464 23.994C176.464 19.5435 173.357 16.7485 169.571 16.7485H169.55ZM168.571 27.3337C166.921 27.3337 165.636 26.1153 165.636 23.994C165.636 21.8727 166.921 20.6543 168.571 20.6543C170.221 20.6543 171.514 21.8727 171.514 23.994C171.514 26.1153 170.186 27.3337 168.571 27.3337ZM187.5 16.7485C185.671 16.7485 184.3 17.2645 183.371 18.3753V16.9778H178.707V36.0268H183.607V29.7632C184.12 30.2639 184.731 30.6533 185.401 30.9073C186.07 31.1613 186.785 31.2743 187.5 31.2395C191.293 31.2395 194.364 28.4445 194.364 23.994C194.364 19.5435 191.293 16.7485 187.5 16.7485ZM186.471 27.3337C184.821 27.3337 183.529 26.1153 183.529 23.994C183.529 21.8727 184.821 20.6543 186.471 20.6543C188.121 20.6543 189.407 21.8727 189.407 23.994C189.407 26.1153 188.121 27.3337 186.471 27.3337ZM201.721 31.2395C206.257 31.2395 208.629 29.2185 208.629 26.6313C208.629 21.07 200.407 23.1627 200.407 21.2277C200.407 20.7045 201 20.2387 202.65 20.2387C204.057 20.2305 205.443 20.5886 206.671 21.2778L208.143 17.9167C206.419 17.0956 204.529 16.6883 202.621 16.727C198.236 16.727 195.814 18.748 195.814 21.3853C195.814 26.9968 204.064 24.854 204.064 26.7388C204.064 27.3337 203.521 27.6992 201.871 27.6992C200.163 27.7 198.483 27.2528 197 26.402L195.529 29.7703C197.438 30.773 199.567 31.2782 201.721 31.2395Z" fill="white"/>
</svg>
