<svg width="31" height="31" viewBox="0 0 31 31" fill="none" xmlns="http://www.w3.org/2000/svg">
<path d="M27.36 8.64684H23.52V4.80684C23.52 4.55223 23.4189 4.30805 23.2388 4.12801C23.0588 3.94798 22.8146 3.84684 22.56 3.84684H4.8C4.54539 3.84684 4.30121 3.94798 4.12118 4.12801C3.94114 4.30805 3.84 4.55223 3.84 4.80684V18.2468C3.84 18.5014 3.94114 18.7456 4.12118 18.9257C4.30121 19.1057 4.54539 19.2068 4.8 19.2068H13.44V23.0468H4.8C3.52696 23.0468 2.30606 22.5411 1.40589 21.6409C0.505713 20.7408 0 19.5199 0 18.2468V4.80684C0 3.5338 0.505713 2.3129 1.40589 1.41272C2.30606 0.512549 3.52696 0.00683594 4.8 0.00683594H22.56C23.833 0.00683594 25.0539 0.512549 25.9541 1.41272C26.8543 2.3129 27.36 3.5338 27.36 4.80684V8.64684Z" fill="#3875F2"/>
<path d="M25.92 11.5268H21.6C20.327 11.5268 19.1061 12.0325 18.2059 12.9327C17.3057 13.8329 16.8 15.0538 16.8 16.3268V23.0468H20.64V16.3268C20.64 16.0722 20.7411 15.828 20.9212 15.648C21.1012 15.4679 21.3454 15.3668 21.6 15.3668H25.92C26.1746 15.3668 26.4188 15.4679 26.5988 15.648C26.7789 15.828 26.88 16.0722 26.88 16.3268V25.9268C26.88 26.1814 26.7789 26.4256 26.5988 26.6056C26.4188 26.7856 26.1746 26.8868 25.92 26.8868H23.04V30.7268H25.92C26.5503 30.7268 27.1745 30.6026 27.7569 30.3614C28.3392 30.1202 28.8684 29.7666 29.3141 29.3209C29.7598 28.8752 30.1134 28.346 30.3546 27.7637C30.5958 27.1813 30.72 26.5571 30.72 25.9268V16.3268C30.72 15.6964 30.5958 15.0723 30.3546 14.4899C30.1134 13.9075 29.7598 13.3784 29.3141 12.9327C28.8684 12.487 28.3392 12.1334 27.7569 11.8922C27.1745 11.6509 26.5503 11.5268 25.92 11.5268Z" fill="#3875F2"/>
<path d="M1.92 30.7269C2.98039 30.7269 3.84 29.8673 3.84 28.8069C3.84 27.7465 2.98039 26.8869 1.92 26.8869C0.859613 26.8869 0 27.7465 0 28.8069C0 29.8673 0.859613 30.7269 1.92 30.7269Z" fill="#3875F2"/>
<path d="M9.59999 30.7269C10.6604 30.7269 11.52 29.8673 11.52 28.8069C11.52 27.7465 10.6604 26.8869 9.59999 26.8869C8.53961 26.8869 7.67999 27.7465 7.67999 28.8069C7.67999 29.8673 8.53961 30.7269 9.59999 30.7269Z" fill="#3875F2"/>
<path d="M19.2 28.8069C19.2 29.8673 18.3404 30.7269 17.28 30.7269C16.2196 30.7269 15.36 29.8673 15.36 28.8069C15.36 27.7465 16.2196 26.8869 17.28 26.8869C18.3404 26.8869 19.2 27.7465 19.2 28.8069Z" fill="#3875F2"/>
</svg>
