<svg width="32" height="32" viewBox="0 0 32 32" fill="none" xmlns="http://www.w3.org/2000/svg">
<path d="M26.56 0.640137H22.72V4.48014H26.56C26.8146 4.48014 27.0588 4.58128 27.2388 4.76131C27.4189 4.94135 27.52 5.18553 27.52 5.44014V9.28014H31.36V5.44014C31.36 4.80979 31.2358 4.18562 30.9946 3.60326C30.7534 3.02089 30.3998 2.49175 29.9541 2.04602C29.5084 1.6003 28.9792 1.24674 28.3969 1.00551C27.8145 0.764292 27.1903 0.640137 26.56 0.640137Z" fill="#2CBD3B"/>
<path d="M9.28002 0.640361H5.44002C4.16698 0.640361 2.94608 1.14607 2.04591 2.04625C1.14573 2.94642 0.640019 4.16732 0.640019 5.44036V9.28036H4.48002V5.44036C4.48002 5.18575 4.58116 4.94157 4.7612 4.76154C4.94123 4.5815 5.18541 4.48036 5.44002 4.48036H9.28002V0.640361Z" fill="#2CBD3B"/>
<path d="M27.52 26.5601C27.52 26.8147 27.4189 27.0589 27.2388 27.2389C27.0588 27.4189 26.8146 27.5201 26.56 27.5201H22.72V31.3601H26.56C27.1903 31.3601 27.8145 31.2359 28.3969 30.9947C28.9792 30.7535 29.5084 30.3999 29.9541 29.9542C30.3998 29.5085 30.7534 28.9793 30.9946 28.3969C31.2358 27.8146 31.36 27.1904 31.36 26.5601V22.7201H27.52V26.5601Z" fill="#2CBD3B"/>
<path d="M7.96961 23.2L19.168 8.79999H24.0304L12.832 23.2H7.96961Z" fill="#2CBD3B"/>
<path d="M5.44002 27.5201H9.28002V31.3601H5.44002C4.80967 31.3601 4.1855 31.2359 3.60314 30.9947C3.02077 30.7535 2.49162 30.3999 2.0459 29.9542C1.60018 29.5085 1.24662 28.9793 1.00539 28.3969C0.764171 27.8146 0.640015 27.1904 0.640015 26.5601V22.7201H4.48002V26.5601C4.48002 26.8147 4.58116 27.0589 4.76119 27.2389C4.94123 27.4189 5.18541 27.5201 5.44002 27.5201Z" fill="#2CBD3B"/>
<path d="M9.76002 13.1203C10.8204 13.1203 11.68 12.2607 11.68 11.2003C11.68 10.1399 10.8204 9.28028 9.76002 9.28028C8.69963 9.28028 7.84002 10.1399 7.84002 11.2003C7.84002 12.2607 8.69963 13.1203 9.76002 13.1203Z" fill="#2CBD3B"/>
<path d="M24.16 20.8003C24.16 21.8607 23.3004 22.7203 22.24 22.7203C21.1796 22.7203 20.32 21.8607 20.32 20.8003C20.32 19.7399 21.1796 18.8803 22.24 18.8803C23.3004 18.8803 24.16 19.7399 24.16 20.8003Z" fill="#2CBD3B"/>
</svg>
