<svg width="31" height="31" viewBox="0 0 31 31" fill="none" xmlns="http://www.w3.org/2000/svg">
<path d="M28.8014 15.6166H30.47V18.9566H28.8V18.9565L28.7945 18.9566C26.2508 19.0128 23.7291 18.4754 21.4292 17.3873C20.1313 16.7628 18.7401 16.3547 17.3105 16.1792L17.03 16.1448V16.4274V19.5426V19.7194L17.1967 19.7783C18.4221 20.2115 19.4549 21.0641 20.1126 22.1852C20.7703 23.3063 21.0104 24.6238 20.7906 25.9049C20.5709 27.186 19.9053 28.3481 18.9115 29.1859C17.9177 30.0237 16.6598 30.4832 15.36 30.4832C14.0602 30.4832 12.8023 30.0237 11.8085 29.1859C10.8147 28.3481 10.1491 27.186 9.92935 25.9049C9.70956 24.6238 9.94972 23.3063 10.6074 22.1852C11.2651 21.0641 12.2979 20.2115 13.5233 19.7783L13.69 19.7194V19.5426V16.4274V16.1448L13.4095 16.1792C11.9799 16.3547 10.5886 16.7628 9.29073 17.3874C6.99089 18.4755 4.46916 19.0128 1.92551 18.9566L1.92551 18.9566H1.92H0.25V15.6166H1.91861C2.90023 15.6271 3.88053 15.5421 4.84568 15.3628L5.05 15.3248V15.117V11.1906V11.0138L4.88333 10.9549C3.65788 10.5216 2.62505 9.66908 1.96738 8.54796C1.30971 7.42684 1.06956 6.10931 1.28935 4.82825C1.50915 3.54718 2.17475 2.38506 3.16851 1.54728C4.16227 0.709497 5.42021 0.25 6.72 0.25C8.01978 0.25 9.27773 0.709497 10.2715 1.54728C11.2653 2.38506 11.9309 3.54718 12.1506 4.82825C12.3704 6.10931 12.1303 7.42684 11.4726 8.54796C10.8149 9.66908 9.78212 10.5216 8.55667 10.9549L8.39 11.0138V11.1906V13.7634V14.1405L8.73736 13.9936C10.8285 13.1094 13.0841 12.6809 15.3539 12.7365L15.3539 12.7368L15.3661 12.7365C17.6359 12.6809 19.8915 13.1094 21.9826 13.9936L22.33 14.1405V13.7634V11.1906V11.0138L22.1633 10.9549C20.9379 10.5216 19.9051 9.66908 19.2474 8.54796C18.5897 7.42684 18.3496 6.10931 18.5694 4.82825C18.7891 3.54718 19.4548 2.38506 20.4485 1.54728C21.4423 0.709497 22.7002 0.25 24 0.25C25.2998 0.25 26.5577 0.709497 27.5515 1.54728C28.5453 2.38506 29.2108 3.54718 29.4306 4.82825C29.6504 6.10931 29.4103 7.42684 28.7526 8.54796C28.0949 9.66908 27.0621 10.5216 25.8367 10.9549L25.67 11.0138V11.1906V15.117V15.3248L25.8743 15.3628C26.8395 15.5421 27.8198 15.6271 28.8014 15.6166ZM26.1283 6.18993L25.8831 6.14115L26.1283 6.18993C26.212 5.76899 26.1691 5.33267 26.0048 4.93616C25.8406 4.53964 25.5624 4.20073 25.2056 3.96229C24.8487 3.72385 24.4292 3.59658 24 3.59658C23.4245 3.59658 22.8725 3.8252 22.4656 4.23216C22.0586 4.63911 21.83 5.19106 21.83 5.76658C21.83 6.19576 21.9573 6.61531 22.1957 6.97217C22.4342 7.32902 22.7731 7.60716 23.1696 7.7714C23.5661 7.93564 24.0024 7.97861 24.4233 7.89488C24.8443 7.81115 25.2309 7.60448 25.5344 7.301C25.8379 6.99752 26.0446 6.61086 26.1283 6.18993ZM7.92559 3.96229C7.56873 3.72385 7.14919 3.59658 6.72 3.59658C6.14448 3.59658 5.59253 3.8252 5.18558 4.23216C4.77863 4.63911 4.55 5.19106 4.55 5.76658C4.55 6.19577 4.67727 6.61531 4.91571 6.97217C5.15415 7.32902 5.49306 7.60716 5.88958 7.7714C6.28609 7.93564 6.72241 7.97861 7.14335 7.89488C7.56428 7.81115 7.95094 7.60448 8.25442 7.301C8.5579 6.99752 8.76457 6.61086 8.8483 6.18993C8.93203 5.76899 8.88906 5.33267 8.72482 4.93616C8.56058 4.53964 8.28244 4.20073 7.92559 3.96229ZM14.1544 26.7709C14.5113 27.0093 14.9308 27.1366 15.36 27.1366C15.9355 27.1366 16.4875 26.908 16.8944 26.501C17.3014 26.094 17.53 25.5421 17.53 24.9666C17.53 24.5374 17.4027 24.1178 17.1643 23.761C16.9258 23.4041 16.5869 23.126 16.1904 22.9618C15.7939 22.7975 15.3576 22.7545 14.9367 22.8383C14.5157 22.922 14.1291 23.1287 13.8256 23.4322C13.5221 23.7356 13.3154 24.1223 13.2317 24.5432C13.148 24.9642 13.1909 25.4005 13.3552 25.797C13.5194 26.1935 13.7976 26.5324 14.1544 26.7709Z" fill="#FA8559" stroke="#3B3B3B" stroke-width="0.5"/>
</svg>
