<svg width="33" height="31" viewBox="0 0 33 31" fill="none" xmlns="http://www.w3.org/2000/svg">
<path d="M32.1983 11.546C32.0087 10.9783 31.6602 10.4731 31.1919 10.0869C30.7235 9.70082 30.1538 9.44905 29.5466 9.35983L22.5009 8.33104L19.3199 2.14222C19.045 1.60863 18.6227 1.15994 18.1003 0.846361C17.578 0.532784 16.9761 0.366699 16.3621 0.366699C15.7481 0.366699 15.1463 0.532784 14.6239 0.846361C14.1015 1.15994 13.6793 1.60863 13.4044 2.14222L10.2178 8.33104L3.17768 9.35983C2.56984 9.44832 1.99938 9.69967 1.53029 10.0857C1.06121 10.4717 0.712056 10.9771 0.521993 11.5452C0.33193 12.1132 0.308475 12.7216 0.454261 13.3019C0.600047 13.8822 0.909306 14.4116 1.34735 14.8306L6.35319 19.6263L5.15686 26.6189C5.05625 27.2077 5.12626 27.8121 5.35906 28.3644C5.59186 28.9167 5.97825 29.3951 6.47497 29.7461C6.97169 30.097 7.55912 30.3067 8.17149 30.3515C8.78385 30.3963 9.39697 30.2746 9.94219 29.9999L16.3539 26.785L22.7655 29.9999C23.3111 30.2776 23.9255 30.4016 24.5397 30.3582C25.1539 30.3148 25.7434 30.1056 26.2419 29.7542C26.7404 29.4028 27.128 28.9232 27.3612 28.3692C27.5944 27.8153 27.6639 27.2091 27.5619 26.6189L26.3655 19.6263L31.3714 14.8306C31.8095 14.4118 32.119 13.8827 32.2651 13.3025C32.4111 12.7224 32.388 12.1141 32.1983 11.546ZM22.8262 18.5118L24.2981 27.1547L16.3594 23.1521L8.42058 27.1547L9.89808 18.5064L3.67937 12.5373L12.4175 11.2567L16.3594 3.57824L20.3122 11.262L29.0394 12.5373L22.8262 18.5118Z" fill="#FFE600"/>
</svg>
