<svg width="32" height="32" viewBox="0 0 32 32" fill="none" xmlns="http://www.w3.org/2000/svg">
<path d="M25.4848 0.640146C24.5464 0.638513 23.6212 0.861129 22.7863 1.28945C21.9514 1.71777 21.2309 2.3394 20.6848 3.10255L12.8368 14.1137C12.6112 14.0801 12.3856 14.0801 12.16 14.0801C10.1231 14.0801 8.16971 14.8893 6.72943 16.3296C5.28915 17.7698 4.48001 19.7233 4.48001 21.7601C4.48001 22.7786 4.07544 23.7553 3.3553 24.4754C2.63516 25.1956 1.65845 25.6001 0.640015 25.6001C0.640015 25.6001 3.52001 31.3601 10.24 31.3601C16.48 31.3601 19.816 26.5985 19.84 21.8177C19.84 22.0913 19.84 22.7777 19.84 22.7777C19.8414 22.7618 19.8414 22.7457 19.84 22.7297C19.8714 22.4105 19.8714 22.089 19.84 21.7697C19.8369 21.1597 19.7612 20.5522 19.6144 19.9601L29.4016 11.2001C30.0177 10.6483 30.5105 9.97281 30.8479 9.2177C31.1854 8.46259 31.3599 7.64482 31.36 6.81775V6.52014C31.3587 4.96189 30.7395 3.46776 29.6381 2.36545C28.5367 1.26315 27.0431 0.642687 25.4848 0.640146ZM16.96 21.8033C16.96 25.0193 14.8336 28.4801 10.24 28.4801C8.40484 28.4911 6.62545 27.8497 5.21921 26.6705C5.89367 26.0426 6.43176 25.2826 6.80005 24.4379C7.16833 23.5931 7.35893 22.6817 7.36001 21.7601C7.36001 20.4871 7.86573 19.2662 8.7659 18.366C9.66607 17.4659 10.887 16.9601 12.16 16.9601C13.4331 16.9601 14.6539 17.4659 15.5541 18.366C16.4543 19.2662 16.96 20.4871 16.96 21.7601V21.8033ZM28.48 6.81775C28.4796 7.23903 28.3905 7.65551 28.2185 8.04008C28.0465 8.42464 27.7954 8.76866 27.4816 9.04975L18.3616 17.2097C17.6788 16.2762 16.7945 15.5084 15.7744 14.9633L23.0464 4.77295C23.4152 4.25598 23.9387 3.8696 24.5414 3.66958C25.1441 3.46956 25.7947 3.46627 26.3994 3.66017C27.0041 3.85408 27.5315 4.23514 27.9055 4.74835C28.2795 5.26155 28.4806 5.88033 28.48 6.51534V6.81775Z" fill="#FFA500"/>
</svg>
