<svg width="34" height="30" viewBox="0 0 34 30" fill="none" xmlns="http://www.w3.org/2000/svg">
<path d="M5.84598 11.7898C6.295 11.7881 6.74232 11.7341 7.17909 11.6291L12.2035 20.7372C11.5931 21.6208 11.2344 22.6563 11.1664 23.7311C11.0984 24.8059 11.3236 25.879 11.8177 26.8338C12.3118 27.7885 13.0557 28.5885 13.9688 29.1467C14.8819 29.7049 15.9291 30 16.9968 30C18.0645 30 19.1117 29.7049 20.0248 29.1467C20.9378 28.5885 21.6818 27.7885 22.1759 26.8338C22.67 25.879 22.8952 24.8059 22.8272 23.7311C22.7592 22.6563 22.4005 21.6208 21.7901 20.7372L26.8145 11.6291C27.9052 11.889 29.0471 11.827 30.1039 11.4504C31.1606 11.0737 32.0877 10.3984 32.7745 9.505C33.4613 8.61157 33.8789 7.53771 33.9774 6.41149C34.0759 5.28528 33.8512 4.15424 33.3301 3.15329C32.809 2.15234 32.0135 1.32371 31.0384 0.766244C30.0634 0.208774 28.9499 -0.0540121 27.8309 0.00922927C26.7119 0.0724706 25.6345 0.459069 24.7273 1.12292C23.8201 1.78676 23.1213 2.69984 22.7143 3.75325H11.2846C10.898 2.75414 10.2484 1.8804 9.40591 1.22619C8.56339 0.57198 7.55986 0.1621 6.50347 0.0407202C5.44709 -0.08066 4.37789 0.0910618 3.4111 0.537381C2.44432 0.983701 1.6166 1.6877 1.01714 2.5735C0.417679 3.45931 0.0692129 4.49334 0.00928834 5.56416C-0.0506362 6.63499 0.180253 7.70201 0.677077 8.65025C1.1739 9.59848 1.91782 10.392 2.82867 10.9452C3.73952 11.4985 4.78277 11.7905 5.84598 11.7898ZM16.9994 26.7914C16.4742 26.7914 15.9608 26.6343 15.5241 26.3399C15.0874 26.0455 14.747 25.6272 14.546 25.1377C14.345 24.6482 14.2924 24.1095 14.3949 23.5899C14.4974 23.0703 14.7503 22.5929 15.1217 22.2183C15.4931 21.8436 15.9662 21.5885 16.4814 21.4851C16.9965 21.3818 17.5305 21.4348 18.0157 21.6376C18.5009 21.8403 18.9157 22.1837 19.2075 22.6242C19.4993 23.0648 19.655 23.5827 19.655 24.1125C19.655 24.823 19.3752 25.5044 18.8772 26.0067C18.3792 26.5091 17.7038 26.7914 16.9994 26.7914ZM28.1529 3.21748C28.6781 3.21748 29.1916 3.37459 29.6283 3.66894C30.065 3.9633 30.4054 4.38168 30.6064 4.87118C30.8074 5.36067 30.8599 5.8993 30.7575 6.41895C30.655 6.93859 30.4021 7.41592 30.0307 7.79056C29.6593 8.16521 29.1861 8.42034 28.671 8.52371C28.1559 8.62707 27.6219 8.57402 27.1367 8.37126C26.6514 8.16851 26.2367 7.82515 25.9449 7.38462C25.6531 6.94408 25.4973 6.42615 25.4973 5.89633C25.4973 5.18585 25.7771 4.50448 26.2751 4.00209C26.7731 3.49971 27.4486 3.21748 28.1529 3.21748ZM11.5874 6.96787H22.4115C22.6196 8.14059 23.1752 9.22217 24.0049 10.07L19.2833 18.6905C18.5602 18.3803 17.7825 18.2204 16.9968 18.2204C16.2111 18.2204 15.4334 18.3803 14.7103 18.6905L9.96745 10.07C10.8069 9.22567 11.3719 8.14374 11.5874 6.96787ZM5.84598 3.21748C6.37121 3.21748 6.88464 3.37459 7.32135 3.66894C7.75806 3.9633 8.09843 4.38168 8.29943 4.87118C8.50042 5.36067 8.55301 5.8993 8.45054 6.41895C8.34808 6.93859 8.09516 7.41592 7.72377 7.79056C7.35238 8.16521 6.8792 8.42034 6.36406 8.52371C5.84893 8.62707 5.31498 8.57402 4.82973 8.37126C4.34449 8.16851 3.92974 7.82515 3.63794 7.38462C3.34614 6.94408 3.1904 6.42615 3.1904 5.89633C3.1904 5.18585 3.47018 4.50448 3.9682 4.00209C4.46622 3.49971 5.14168 3.21748 5.84598 3.21748Z" fill="#CA63EE"/>
</svg>
