<svg width="42" height="42" viewBox="0 0 42 42" fill="none" xmlns="http://www.w3.org/2000/svg">
<path d="M20.9995 34.44C23.1041 34.4398 25.1792 33.9454 27.0577 32.9966C28.9362 32.0477 30.5657 30.671 31.8148 28.9773C33.064 27.2836 33.8979 25.3201 34.2495 23.2452C34.6011 21.1702 34.4604 19.0417 33.8389 17.031C32.9519 17.7662 31.8795 18.2429 30.7393 18.4086C31.3113 20.5517 31.1604 22.8236 30.31 24.8722C29.4596 26.9208 27.9573 28.6317 26.0358 29.7398C24.1143 30.8479 21.881 31.2912 19.682 31.0012C17.4829 30.7111 15.441 29.7038 13.8726 28.1354C12.3041 26.5669 11.2968 24.525 11.0068 22.3259C10.7167 20.1269 11.16 17.8936 12.2681 15.9721C13.3762 14.0506 15.0871 12.5483 17.1357 11.6979C19.1844 10.8476 21.4562 10.6966 23.5993 11.2686C23.7651 10.1284 24.2417 9.05601 24.9769 8.16898C23.1278 7.59254 21.1758 7.4226 19.2549 7.6708C17.3339 7.91901 15.4893 8.5795 13.8473 9.60702C12.2054 10.6345 10.805 12.0048 9.74197 13.624C8.67896 15.2432 7.97849 17.073 7.68855 18.9881C7.3986 20.9032 7.52603 22.8584 8.0621 24.7197C8.59817 26.581 9.53022 28.3044 10.7944 29.7719C12.0586 31.2394 13.625 32.4163 15.3864 33.222C17.1478 34.0277 19.0626 34.4432 20.9995 34.44V34.44Z" fill="black"/>
<path d="M20.9998 14.7C20.5584 14.6997 20.1213 14.7863 19.7134 14.9549C19.3055 15.1235 18.9348 15.3709 18.6226 15.6828L15.6826 18.6228C15.0529 19.2529 14.6992 20.1072 14.6992 20.9979C14.6992 21.8887 15.0529 22.743 15.6826 23.373L18.6226 26.313C19.2526 26.9427 20.1069 27.2964 20.9977 27.2964C21.8884 27.2964 22.7427 26.9427 23.3728 26.313L26.3128 23.373C26.9424 22.743 27.2961 21.8887 27.2961 20.9979C27.2961 20.1072 26.9424 19.2529 26.3128 18.6228L23.3728 15.6828C22.7431 15.0539 21.8897 14.7004 20.9998 14.7ZM20.9998 23.94L18.0598 21L20.9998 18.06L23.9398 21L20.9998 23.94Z" fill="black"/>
<path d="M26.8288 12.7848L28.4164 13.5786L29.2102 15.1662C29.2664 15.2785 29.3527 15.373 29.4596 15.439C29.5664 15.505 29.6895 15.5399 29.815 15.5399C29.9406 15.5399 30.0637 15.505 30.1705 15.439C30.2774 15.373 30.3637 15.2785 30.4198 15.1662L31.2136 13.5786L32.8012 12.7848C32.9136 12.7286 33.008 12.6423 33.074 12.5355C33.14 12.4286 33.175 12.3056 33.175 12.18C33.175 12.0544 33.14 11.9313 33.074 11.8245C33.008 11.7177 32.9136 11.6313 32.8012 11.5752L31.2136 10.7814L30.4198 9.19378C30.3637 9.08146 30.2774 8.98701 30.1705 8.92099C30.0637 8.85497 29.9406 8.82001 29.815 8.82001C29.6895 8.82001 29.5664 8.85497 29.4596 8.92099C29.3527 8.98701 29.2664 9.08146 29.2102 9.19378L28.4164 10.7814L26.8288 11.5752C26.7165 11.6313 26.6221 11.7177 26.5561 11.8245C26.49 11.9313 26.4551 12.0544 26.4551 12.18C26.4551 12.3056 26.49 12.4286 26.5561 12.5355C26.6221 12.6423 26.7165 12.7286 26.8288 12.7848V12.7848Z" fill="black"/>
</svg>
