<svg width="42" height="42" viewBox="0 0 42 42" fill="none" xmlns="http://www.w3.org/2000/svg">
<path d="M13.4404 7.56C12.1037 7.56 10.8218 8.091 9.87657 9.03618C8.93139 9.98136 8.40039 11.2633 8.40039 12.6V29.4C8.40039 30.7367 8.93139 32.0186 9.87657 32.9638C10.8218 33.909 12.1037 34.44 13.4404 34.44H33.6004V14.28H29.4004V7.56H13.4404ZM13.516 10.92H26.0404V14.28H13.4404C13.2049 14.2812 12.9718 14.2328 12.7562 14.1381C12.5406 14.0434 12.3473 13.9044 12.1889 13.7301C12.0305 13.5559 11.9104 13.3502 11.8366 13.1266C11.7628 12.903 11.7368 12.6663 11.7604 12.432C11.8143 12.0075 12.0236 11.618 12.3478 11.3388C12.672 11.0596 13.0882 10.9104 13.516 10.92ZM30.2404 17.64V31.08H13.4404C12.9948 31.08 12.5675 30.903 12.2525 30.5879C11.9374 30.2729 11.7604 29.8456 11.7604 29.4V17.346C12.2995 17.5394 12.8677 17.6388 13.4404 17.64H30.2404Z" fill="black"/>
<path d="M26.0394 26.04C26.9672 26.04 27.7194 25.2878 27.7194 24.36C27.7194 23.4322 26.9672 22.68 26.0394 22.68C25.1115 22.68 24.3594 23.4322 24.3594 24.36C24.3594 25.2878 25.1115 26.04 26.0394 26.04Z" fill="black"/>
</svg>
