<svg width="42" height="42" viewBox="0 0 42 42" fill="none" xmlns="http://www.w3.org/2000/svg">
<path d="M16.238 19.1772L19.178 16.2372C19.8076 15.6071 20.1613 14.7528 20.1613 13.8621C20.1613 12.9714 19.8076 12.1171 19.178 11.487L16.238 8.547C15.6079 7.91736 14.7536 7.56366 13.8629 7.56366C12.9721 7.56366 12.1179 7.91736 11.4878 8.547L8.5478 11.487C7.91815 12.1171 7.56445 12.9714 7.56445 13.8621C7.56445 14.7528 7.91815 15.6071 8.5478 16.2372L11.4878 19.1772C12.1179 19.8068 12.9721 20.1605 13.8629 20.1605C14.7536 20.1605 15.6079 19.8068 16.238 19.1772ZM10.9208 13.86L13.8608 10.92L16.8008 13.86L13.8608 16.8L10.9208 13.86Z" fill="black"/>
<path d="M30.5173 22.8228C29.8872 22.1932 29.0329 21.8395 28.1422 21.8395C27.2514 21.8395 26.3971 22.1932 25.7671 22.8228L22.8271 25.7628C22.1974 26.3929 21.8438 27.2472 21.8438 28.1379C21.8438 29.0287 22.1974 29.883 22.8271 30.513L25.7671 33.453C26.3971 34.0827 27.2514 34.4364 28.1422 34.4364C29.0329 34.4364 29.8872 34.0827 30.5173 33.453L33.4573 30.513C34.0869 29.883 34.4406 29.0287 34.4406 28.1379C34.4406 27.2472 34.0869 26.3929 33.4573 25.7628L30.5173 22.8228ZM28.1401 31.08L25.2001 28.14L28.1401 25.2L31.0801 28.14L28.1401 31.08Z" fill="black"/>
<path d="M29.4006 14.9772V19.32H32.7606V11.76C32.7606 11.0916 32.4951 10.4507 32.0225 9.97808C31.55 9.50549 30.909 9.23999 30.2406 9.23999H22.6806V12.6H27.0234L9.68164 29.9418L12.0588 32.34L29.4006 14.9772Z" fill="black"/>
</svg>
