<svg width="50" height="50" viewBox="0 0 50 50" fill="none" xmlns="http://www.w3.org/2000/svg">
<path d="M25 45H24.552C21.8583 44.9594 19.2011 44.371 16.742 43.2708C14.2829 42.1705 12.0734 40.5813 10.248 38.6C6.832 34.8948 4.93544 30.0397 4.93544 25C4.93544 19.9603 6.832 15.1052 10.248 11.4C12.0758 9.42761 14.2825 7.84405 16.7363 6.74403C19.1901 5.644 21.8404 5.05009 24.529 4.99781C27.2175 4.94553 29.889 5.43596 32.3837 6.43977C34.8784 7.44358 37.145 8.94015 39.048 10.84L39.136 10.92L39.88 11.592C39.9744 11.6817 40.0496 11.7896 40.101 11.9093C40.1524 12.0289 40.1788 12.1578 40.1788 12.288C40.1788 12.4182 40.1524 12.5471 40.101 12.6667C40.0496 12.7864 39.9744 12.8943 39.88 12.984L24.952 28.008L17.048 20.104L13.656 23.496L23.256 33.096C23.706 33.5454 24.316 33.7979 24.952 33.7979C25.588 33.7979 26.198 33.5454 26.648 33.096L43.344 16.392C43.896 15.84 44.3301 15.1816 44.6198 14.4568C44.9095 13.7319 45.0489 12.9558 45.0294 12.1754C45.01 11.395 44.8321 10.6268 44.5066 9.91724C44.1812 9.20772 43.7148 8.57177 43.136 8.048L42.44 7.4C40.0778 5.0493 37.2659 3.19882 34.1725 1.95909C31.0791 0.719369 27.7676 0.115832 24.4357 0.184531C21.1038 0.253229 17.8199 0.992755 14.7802 2.35894C11.7406 3.72512 9.00741 5.68992 6.74403 8.136C2.51739 12.7287 0.171387 18.7424 0.171387 24.984C0.171387 31.2256 2.51739 37.2392 6.74403 41.832C9.0044 44.2948 11.7427 46.2714 14.792 47.6413C17.8413 49.0113 21.1376 49.7457 24.48 49.8H25C31.5774 49.8 37.8854 47.1871 42.5363 42.5362C47.1872 37.8853 49.8 31.5774 49.8 25H45C45 30.3043 42.8929 35.3914 39.1422 39.1421C35.3914 42.8929 30.3044 45 25 45Z" fill="white"/>
</svg>
