<svg width="80" height="80" viewBox="0 0 80 80" fill="none" xmlns="http://www.w3.org/2000/svg">
<path d="M36.0002 48.8H44.0002C45.2732 48.8 46.4941 48.2943 47.3943 47.3941C48.2945 46.494 48.8002 45.2731 48.8002 44V36C48.8002 34.727 48.2945 33.5061 47.3943 32.6059C46.4941 31.7057 45.2732 31.2 44.0002 31.2H36.0002C34.7272 31.2 33.5063 31.7057 32.6061 32.6059C31.7059 33.5061 31.2002 34.727 31.2002 36V44C31.2002 45.2731 31.7059 46.494 32.6061 47.3941C33.5063 48.2943 34.7272 48.8 36.0002 48.8ZM36.0002 36H44.0002V44H36.0002V36Z" fill="white"/>
<path d="M15.2002 49.6V54.4H22.3602C23.0586 55.804 24.1962 56.9417 25.6002 57.64V64.8H30.4002V58.4H37.6002V64.8H42.4002V58.4H49.6002V64.8H54.4002V57.64C55.8042 56.9417 56.9418 55.804 57.6402 54.4H64.8002V49.6H58.4002V42.4H64.8002V37.6H58.4002V30.4H64.8002V25.6H57.6402C56.9418 24.196 55.8042 23.0584 54.4002 22.36V15.2H49.6002V21.6H42.4002V15.2H37.6002V21.6H30.4002V15.2H25.6002V22.36C24.1962 23.0584 23.0586 24.196 22.3602 25.6H15.2002V30.4H21.6002V37.6H15.2002V42.4H21.6002V49.6H15.2002ZM26.4002 42.4V28.8C26.4002 28.1635 26.6531 27.553 27.1031 27.103C27.5532 26.6529 28.1637 26.4 28.8002 26.4H51.2002C51.8367 26.4 52.4472 26.6529 52.8973 27.103C53.3473 27.553 53.6002 28.1635 53.6002 28.8V51.2C53.6002 51.8365 53.3473 52.447 52.8973 52.8971C52.4472 53.3472 51.8367 53.6 51.2002 53.6H28.8002C28.1637 53.6 27.5532 53.3472 27.1031 52.8971C26.6531 52.447 26.4002 51.8365 26.4002 51.2V42.4Z" fill="white"/>
</svg>
