<svg width="80" height="80" viewBox="0 0 80 80" fill="none" xmlns="http://www.w3.org/2000/svg">
<path d="M32.4797 60.8H47.5117L52.5517 67.096L56.3037 64.096L49.9037 56.096L49.5997 56.32V56H32.4797C31.0371 55.9988 29.6147 55.6615 28.3251 55.015C27.0355 54.3684 25.9142 53.4304 25.0501 52.2752C24.1861 51.12 23.603 49.7794 23.347 48.3597C23.0911 46.94 23.1694 45.4802 23.5757 44.096L29.5357 23.824C30.0629 22.0279 31.1576 20.4508 32.656 19.3288C34.1544 18.2068 35.9758 17.6003 37.8477 17.6C38.845 17.6063 39.7993 18.007 40.5023 18.7144C41.2052 19.4219 41.5998 20.3787 41.5997 21.376V22.4C41.5997 23.673 41.094 24.8939 40.1938 25.7941C39.2937 26.6943 38.0728 27.2 36.7997 27.2H35.1997C35.1997 27.2 34.1837 39.536 33.7597 44.736L34.5037 44.368C35.9181 43.6602 37.4683 43.2653 39.0489 43.2101C40.6295 43.1549 42.2034 43.4407 43.6637 44.048L45.5037 44.848C46.1167 43.418 47.1334 42.1977 48.4292 41.3366C49.7251 40.4756 51.2439 40.0111 52.7997 40C53.3832 40.001 53.965 40.0627 54.5357 40.184C56.1966 40.5314 57.699 41.4104 58.8157 42.688L62.2397 39.28C60.4575 37.3474 58.1168 36.019 55.5437 35.48C54.6413 35.2915 53.7216 35.1977 52.7997 35.2C51.109 35.2018 49.4354 35.5385 47.8756 36.1908C46.3157 36.843 44.9005 37.7978 43.7117 39C42.3169 38.6034 40.8739 38.4015 39.4237 38.4H39.0957C39.2957 36 39.5037 33.536 39.6717 31.568C41.6236 30.956 43.329 29.7366 44.5393 28.0874C45.7495 26.4382 46.4014 24.4456 46.3997 22.4V21.376C46.3976 19.1063 45.4967 16.9298 43.894 15.3226C42.2914 13.7155 40.1174 12.8084 37.8477 12.8C34.9407 12.801 32.112 13.7429 29.7846 15.4848C27.4573 17.2267 25.7562 19.6751 24.9357 22.464L18.9677 42.736C18.3498 44.8366 18.2299 47.0522 18.6178 49.2072C19.0056 51.3622 19.8903 53.3971 21.2018 55.1504C22.5133 56.9037 24.2155 58.3272 26.1732 59.3079C28.1308 60.2886 30.2902 60.7995 32.4797 60.8Z" fill="white"/>
</svg>
