<svg width="54" height="50" viewBox="0 0 54 50" fill="none" xmlns="http://www.w3.org/2000/svg">
<path d="M53.3976 18.6322C53.0816 17.686 52.5007 16.8439 51.7201 16.2004C50.9396 15.5569 49.9901 15.1373 48.978 14.9886L37.2352 13.2739L31.9335 2.9592C31.4753 2.06989 30.7716 1.32207 29.9009 0.799437C29.0303 0.276808 28.0272 0 27.0039 0C25.9806 0 24.9775 0.276808 24.1069 0.799437C23.2363 1.32207 22.5325 2.06989 22.0743 2.9592L16.7635 13.2739L5.02986 14.9886C4.01678 15.136 3.06602 15.5549 2.28421 16.1983C1.50241 16.8416 0.920484 17.6839 0.603712 18.6308C0.28694 19.5776 0.247849 20.5915 0.490825 21.5587C0.733802 22.5259 1.24923 23.4082 1.97931 24.1066L10.3224 32.0993L8.32849 43.7536C8.1608 44.7349 8.27749 45.7423 8.66549 46.6628C9.05348 47.5833 9.69747 48.3807 10.5253 48.9656C11.3532 49.5505 12.3323 49.8999 13.3529 49.9747C14.3735 50.0494 15.3953 49.8465 16.304 49.3887L26.9901 44.0305L37.6763 49.3887C38.5855 49.8514 39.6096 50.0582 40.6332 49.9859C41.6568 49.9135 42.6394 49.5649 43.4702 48.9792C44.301 48.3936 44.9471 47.5941 45.3358 46.6709C45.7245 45.7477 45.8403 44.7373 45.6702 43.7536L43.6763 32.0993L52.0194 24.1066C52.7496 23.4086 53.2654 22.5267 53.5088 21.5597C53.7523 20.5928 53.7138 19.579 53.3976 18.6322ZM37.7773 30.2418L40.2306 44.6467L26.9993 37.9756L13.768 44.6467L16.2305 30.2329L5.866 20.2843L20.4296 18.1499L26.9993 5.35257L33.5874 18.1589L48.1327 20.2843L37.7773 30.2418Z" fill="white"/>
</svg>
