<svg width="80" height="80" viewBox="0 0 80 80" fill="none" xmlns="http://www.w3.org/2000/svg">
<path d="M54.8001 15.2C52.9805 15.2 51.2018 15.7396 49.6889 16.7505C48.1759 17.7614 46.9967 19.1982 46.3004 20.8793C45.6041 22.5604 45.4219 24.4102 45.7769 26.1948C46.1319 27.9795 47.0081 29.6188 48.2947 30.9054C49.5814 32.192 51.2206 33.0683 53.0053 33.4232C54.7899 33.7782 56.6397 33.596 58.3208 32.8997C60.0019 32.2034 61.4387 31.0242 62.4496 29.5113C63.4605 27.9983 64.0001 26.2196 64.0001 24.4C63.998 21.9607 63.028 19.6218 61.3031 17.897C59.5783 16.1721 57.2394 15.2021 54.8001 15.2ZM54.8001 28.8C53.9299 28.8 53.0792 28.542 52.3556 28.0585C51.632 27.575 51.0681 26.8878 50.735 26.0838C50.402 25.2798 50.3149 24.3951 50.4846 23.5416C50.6544 22.6881 51.0735 21.9041 51.6888 21.2887C52.3042 20.6734 53.0882 20.2543 53.9417 20.0846C54.7952 19.9148 55.6799 20.0019 56.4839 20.3349C57.2879 20.668 57.9751 21.2319 58.4586 21.9555C58.942 22.6791 59.2001 23.5298 59.2001 24.4C59.2001 25.567 58.7365 26.6861 57.9114 27.5113C57.0862 28.3364 55.9671 28.8 54.8001 28.8Z" fill="white"/>
<path d="M59.2002 48.8C59.2002 49.8608 58.7788 50.8783 58.0287 51.6284C57.2785 52.3785 56.2611 52.8 55.2002 52.8H46.5922L51.2962 48.096L47.9042 44.704L39.1042 53.504C38.6548 53.954 38.4023 54.564 38.4023 55.2C38.4023 55.836 38.6548 56.446 39.1042 56.896L47.9042 65.696L51.2962 62.304L46.5922 57.6H55.2002C56.3559 57.6 57.5002 57.3723 58.5678 56.9301C59.6355 56.4879 60.6056 55.8397 61.4228 55.0225C62.2399 54.2054 62.8881 53.2352 63.3304 52.1676C63.7726 51.0999 64.0002 49.9556 64.0002 48.8V37.6H59.2002V48.8Z" fill="white"/>
<path d="M25.2 46.4C23.3804 46.4 21.6017 46.9396 20.0888 47.9505C18.5758 48.9614 17.3966 50.3983 16.7003 52.0793C16.004 53.7604 15.8218 55.6102 16.1768 57.3948C16.5318 59.1795 17.408 60.8188 18.6946 62.1054C19.9813 63.392 21.6205 64.2683 23.4052 64.6232C25.1898 64.9782 27.0396 64.796 28.7207 64.0997C30.4018 63.4034 31.8386 62.2242 32.8495 60.7113C33.8604 59.1983 34.4 57.4196 34.4 55.6C34.3979 53.1607 33.4279 50.8219 31.703 49.097C29.9782 47.3721 27.6393 46.4021 25.2 46.4ZM25.2 60C24.3298 60 23.4791 59.742 22.7555 59.2585C22.0319 58.775 21.468 58.0878 21.1349 57.2838C20.8019 56.4798 20.7148 55.5951 20.8845 54.7416C21.0543 53.8881 21.4734 53.1041 22.0887 52.4888C22.7041 51.8734 23.4881 51.4543 24.3416 51.2846C25.1951 51.1148 26.0798 51.2019 26.8838 51.535C27.6878 51.868 28.375 52.4319 28.8585 53.1555C29.3419 53.8791 29.6 54.7298 29.6 55.6C29.6 56.767 29.1364 57.8861 28.3113 58.7113C27.4861 59.5364 26.367 60 25.2 60Z" fill="white"/>
<path d="M16 40.8H20.8V31.2C20.8 30.1392 21.2214 29.1217 21.9716 28.3716C22.7217 27.6214 23.7391 27.2 24.8 27.2H32.992L28.8 31.024L32 34.576L40.8 26.576C41.04 26.3574 41.2332 26.0923 41.3678 25.7969C41.5024 25.5014 41.5756 25.1817 41.5831 24.8571C41.5906 24.5326 41.5321 24.2098 41.4113 23.9085C41.2904 23.6072 41.1097 23.3335 40.88 23.104L32.08 14.304L28.688 17.696L33.408 22.4H24.8C22.4661 22.4 20.2278 23.3272 18.5775 24.9775C16.9271 26.6278 16 28.8661 16 31.2V40.8Z" fill="white"/>
</svg>
