<svg width="80" height="80" viewBox="0 0 80 80" fill="none" xmlns="http://www.w3.org/2000/svg">
<path d="M62.2402 29.048C61.0425 30.1623 59.5319 30.8827 57.9122 31.112C58.0882 31.472 58.2722 31.84 58.4242 32.216C59.8309 35.5514 60.3059 39.2061 59.7987 42.7903C59.2915 46.3745 57.8211 49.7538 55.5442 52.568C53.5998 49.5029 50.7949 47.0791 47.4802 45.6C48.8963 44.1307 49.8489 42.2773 50.2194 40.2706C50.5898 38.2639 50.3617 36.1925 49.5635 34.3145C48.7653 32.4365 47.4322 30.8348 45.7302 29.7089C44.0283 28.583 42.0328 27.9827 39.9922 27.9827C37.9515 27.9827 35.956 28.583 34.2541 29.7089C32.5522 30.8348 31.2191 32.4365 30.4208 34.3145C29.6226 36.1925 29.3945 38.2639 29.765 40.2706C30.1354 42.2773 31.088 44.1307 32.5042 45.6C29.1899 47.0694 26.3882 49.4923 24.4562 52.56C21.597 49.0118 20.0352 44.5936 20.0293 40.0367C20.0234 35.4799 21.5739 31.0577 24.4239 27.5021C27.274 23.9465 31.2527 21.4708 35.7016 20.4848C40.1505 19.4988 44.8027 20.0616 48.8882 22.08C49.1197 20.4593 49.8429 18.9487 50.9602 17.752C45.7517 15.1916 39.8094 14.5422 34.1709 15.9171C28.5324 17.2921 23.5561 20.6041 20.111 25.2747C16.6659 29.9454 14.971 35.6778 15.3223 41.4708C15.6735 47.2639 18.0487 52.7495 22.0329 56.9697C26.0171 61.1898 31.3571 63.8763 37.1204 64.5599C42.8838 65.2435 48.7041 63.8808 53.565 60.7098C58.4259 57.5389 62.0184 52.7611 63.7151 47.2109C65.4119 41.6608 65.105 35.6909 62.8482 30.344C62.6642 29.904 62.4562 29.472 62.2402 29.048ZM34.4002 38.4C34.4002 37.2924 34.7286 36.2097 35.3439 35.2888C35.9593 34.3679 36.8339 33.6501 37.8571 33.2263C38.8804 32.8024 40.0064 32.6915 41.0927 32.9076C42.179 33.1237 43.1768 33.657 43.96 34.4402C44.7431 35.2234 45.2765 36.2212 45.4926 37.3075C45.7086 38.3938 45.5977 39.5197 45.1739 40.543C44.75 41.5663 44.0323 42.4409 43.1114 43.0562C42.1904 43.6716 41.1077 44 40.0002 44C38.5149 44 37.0906 43.41 36.0404 42.3598C34.9902 41.3096 34.4002 39.8852 34.4002 38.4ZM28.0002 56C29.1601 53.8251 30.8894 52.0063 33.003 50.7381C35.1167 49.4699 37.5352 48.8 40.0002 48.8C42.4651 48.8 44.8837 49.4699 46.9973 50.7381C49.111 52.0063 50.8402 53.8251 52.0002 56C48.5409 58.6026 44.3292 60.01 40.0002 60.01C35.6711 60.01 31.4595 58.6026 28.0002 56Z" fill="white"/>
<path d="M56.8001 26.4C58.5674 26.4 60.0001 24.9673 60.0001 23.2C60.0001 21.4327 58.5674 20 56.8001 20C55.0328 20 53.6001 21.4327 53.6001 23.2C53.6001 24.9673 55.0328 26.4 56.8001 26.4Z" fill="white"/>
</svg>
