<svg width="1440" height="448" viewBox="0 0 1440 448" fill="none" xmlns="http://www.w3.org/2000/svg">
<g opacity="0.2">
<path d="M401.485 28.6399C400.547 28.6383 399.622 28.8609 398.787 29.2892C397.952 29.7175 397.231 30.3392 396.685 31.1023L388.837 42.1135C388.612 42.0799 388.386 42.0799 388.161 42.0799C386.124 42.0799 384.17 42.889 382.73 44.3293C381.29 45.7696 380.481 47.723 380.481 49.7599C380.481 50.7783 380.076 51.755 379.356 52.4752C378.636 53.1953 377.659 53.5999 376.641 53.5999C376.641 53.5999 379.521 59.3599 386.241 59.3599C392.481 59.3599 395.817 54.5983 395.841 49.8175C395.841 50.0911 395.841 50.7775 395.841 50.7775C395.842 50.7615 395.842 50.7455 395.841 50.7295C395.872 50.4103 395.872 50.0887 395.841 49.7695C395.838 49.1595 395.762 48.552 395.615 47.9599L405.402 39.1999C406.018 38.6481 406.511 37.9726 406.849 37.2175C407.186 36.4623 407.36 35.6446 407.361 34.8175V34.5199C407.359 32.9616 406.74 31.4675 405.639 30.3652C404.537 29.2629 403.044 28.6424 401.485 28.6399V28.6399ZM392.961 49.8031C392.961 53.0191 390.834 56.4799 386.241 56.4799C384.405 56.4908 382.626 55.8495 381.22 54.6703C381.894 54.0423 382.432 53.2824 382.801 52.4376C383.169 51.5929 383.36 50.6814 383.361 49.7599C383.361 48.4869 383.866 47.266 384.767 46.3658C385.667 45.4656 386.888 44.9599 388.161 44.9599C389.434 44.9599 390.655 45.4656 391.555 46.3658C392.455 47.266 392.961 48.4869 392.961 49.7599V49.8031ZM404.481 34.8175C404.48 35.2388 404.391 35.6553 404.219 36.0398C404.047 36.4244 403.796 36.7684 403.482 37.0495L394.362 45.2095C393.679 44.276 392.795 43.5082 391.775 42.9631L399.047 32.7727C399.416 32.2557 399.939 31.8694 400.542 31.6693C401.145 31.4693 401.795 31.466 402.4 31.6599C403.005 31.8538 403.532 32.2349 403.906 32.7481C404.28 33.2613 404.481 33.8801 404.481 34.5151V34.8175Z" fill="#FFA500"/>
<path d="M282.561 208.64H278.721V212.48H282.561C282.815 212.48 283.059 212.581 283.239 212.761C283.419 212.941 283.521 213.186 283.521 213.44V217.28H287.361V213.44C287.361 212.81 287.236 212.186 286.995 211.603C286.754 211.021 286.4 210.492 285.955 210.046C285.509 209.6 284.98 209.247 284.397 209.006C283.815 208.764 283.191 208.64 282.561 208.64Z" fill="#2CBD3B"/>
<path d="M265.281 208.64H261.441C260.168 208.64 258.947 209.146 258.047 210.046C257.146 210.946 256.641 212.167 256.641 213.44V217.28H260.481V213.44C260.481 213.186 260.582 212.942 260.762 212.762C260.942 212.582 261.186 212.48 261.441 212.48H265.281V208.64Z" fill="#2CBD3B"/>
<path d="M283.521 234.56C283.521 234.815 283.419 235.059 283.239 235.239C283.059 235.419 282.815 235.52 282.561 235.52H278.721V239.36H282.561C283.191 239.36 283.815 239.236 284.397 238.995C284.98 238.753 285.509 238.4 285.955 237.954C286.4 237.508 286.754 236.979 286.995 236.397C287.236 235.815 287.361 235.19 287.361 234.56V230.72H283.521V234.56Z" fill="#2CBD3B"/>
<path d="M263.97 231.2L275.169 216.8H280.031L268.833 231.2H263.97Z" fill="#2CBD3B"/>
<path d="M261.441 235.52H265.281V239.36H261.441C260.81 239.36 260.186 239.236 259.604 238.995C259.021 238.753 258.492 238.4 258.047 237.954C257.601 237.508 257.247 236.979 257.006 236.397C256.765 235.815 256.641 235.19 256.641 234.56V230.72H260.481V234.56C260.481 234.815 260.582 235.059 260.762 235.239C260.942 235.419 261.186 235.52 261.441 235.52Z" fill="#2CBD3B"/>
<path d="M265.761 221.12C266.821 221.12 267.681 220.261 267.681 219.2C267.681 218.14 266.821 217.28 265.761 217.28C264.7 217.28 263.841 218.14 263.841 219.2C263.841 220.261 264.7 221.12 265.761 221.12Z" fill="#2CBD3B"/>
<path d="M280.161 228.8C280.161 229.861 279.301 230.72 278.241 230.72C277.18 230.72 276.321 229.861 276.321 228.8C276.321 227.74 277.18 226.88 278.241 226.88C279.301 226.88 280.161 227.74 280.161 228.8Z" fill="#2CBD3B"/>
<path d="M156.846 40.7898C157.295 40.7881 157.742 40.7341 158.179 40.6291L163.203 49.7372C162.593 50.6208 162.234 51.6563 162.166 52.7311C162.098 53.8059 162.324 54.879 162.818 55.8338C163.312 56.7885 164.056 57.5885 164.969 58.1467C165.882 58.7049 166.929 59 167.997 59C169.064 59 170.112 58.7049 171.025 58.1467C171.938 57.5885 172.682 56.7885 173.176 55.8338C173.67 54.879 173.895 53.8059 173.827 52.7311C173.759 51.6563 173.401 50.6208 172.79 49.7372L177.814 40.6291C178.905 40.889 180.047 40.827 181.104 40.4504C182.161 40.0737 183.088 39.3984 183.774 38.505C184.461 37.6116 184.879 36.5377 184.977 35.4115C185.076 34.2853 184.851 33.1542 184.33 32.1533C183.809 31.1523 183.013 30.3237 182.038 29.7662C181.063 29.2088 179.95 28.946 178.831 29.0092C177.712 29.0725 176.635 29.4591 175.727 30.1229C174.82 30.7868 174.121 31.6998 173.714 32.7532H162.285C161.898 31.7541 161.248 30.8804 160.406 30.2262C159.563 29.572 158.56 29.1621 157.503 29.0407C156.447 28.9193 155.378 29.0911 154.411 29.5374C153.444 29.9837 152.617 30.6877 152.017 31.5735C151.418 32.4593 151.069 33.4933 151.009 34.5642C150.949 35.635 151.18 36.702 151.677 37.6502C152.174 38.5985 152.918 39.392 153.829 39.9452C154.74 40.4985 155.783 40.7905 156.846 40.7898V40.7898ZM167.999 55.7914C167.474 55.7914 166.961 55.6343 166.524 55.3399C166.087 55.0455 165.747 54.6272 165.546 54.1377C165.345 53.6482 165.292 53.1095 165.395 52.5899C165.497 52.0703 165.75 51.5929 166.122 51.2183C166.493 50.8436 166.966 50.5885 167.481 50.4851C167.997 50.3818 168.53 50.4348 169.016 50.6376C169.501 50.8403 169.916 51.1837 170.207 51.6242C170.499 52.0648 170.655 52.5827 170.655 53.1125C170.655 53.823 170.375 54.5044 169.877 55.0067C169.379 55.5091 168.704 55.7914 167.999 55.7914ZM179.153 32.2175C179.678 32.2175 180.192 32.3746 180.628 32.6689C181.065 32.9633 181.405 33.3817 181.606 33.8712C181.807 34.3607 181.86 34.8993 181.757 35.4189C181.655 35.9386 181.402 36.4159 181.031 36.7906C180.659 37.1652 180.186 37.4203 179.671 37.5237C179.156 37.6271 178.622 37.574 178.137 37.3713C177.651 37.1685 177.237 36.8252 176.945 36.3846C176.653 35.9441 176.497 35.4262 176.497 34.8963C176.497 34.1859 176.777 33.5045 177.275 33.0021C177.773 32.4997 178.449 32.2175 179.153 32.2175ZM162.587 35.9679H173.412C173.62 37.1406 174.175 38.2222 175.005 39.07L170.283 47.6905C169.56 47.3803 168.783 47.2204 167.997 47.2204C167.211 47.2204 166.433 47.3803 165.71 47.6905L160.967 39.07C161.807 38.2257 162.372 37.1437 162.587 35.9679V35.9679ZM156.846 32.2175C157.371 32.2175 157.885 32.3746 158.321 32.6689C158.758 32.9633 159.098 33.3817 159.299 33.8712C159.5 34.3607 159.553 34.8993 159.451 35.4189C159.348 35.9386 159.095 36.4159 158.724 36.7906C158.352 37.1652 157.879 37.4203 157.364 37.5237C156.849 37.6271 156.315 37.574 155.83 37.3713C155.344 37.1685 154.93 36.8252 154.638 36.3846C154.346 35.9441 154.19 35.4262 154.19 34.8963C154.19 34.1859 154.47 33.5045 154.968 33.0021C155.466 32.4997 156.142 32.2175 156.846 32.2175Z" fill="#CA63EE"/>
<path d="M149.6 409.28H154.4C155.164 409.28 155.896 408.977 156.436 408.436C156.976 407.896 157.28 407.164 157.28 406.4V401.6C157.28 400.836 156.976 400.104 156.436 399.564C155.896 399.023 155.164 398.72 154.4 398.72H149.6C148.836 398.72 148.103 399.023 147.563 399.564C147.023 400.104 146.72 400.836 146.72 401.6V406.4C146.72 407.164 147.023 407.896 147.563 408.436C148.103 408.977 148.836 409.28 149.6 409.28ZM149.6 401.6H154.4V406.4H149.6V401.6Z" fill="#3875F2"/>
<path d="M137.12 409.76V412.64H141.416C141.835 413.483 142.518 414.165 143.36 414.584V418.88H146.24V415.04H150.56V418.88H153.44V415.04H157.76V418.88H160.64V414.584C161.483 414.165 162.165 413.483 162.584 412.64H166.88V409.76H163.04V405.44H166.88V402.56H163.04V398.24H166.88V395.36H162.584C162.165 394.518 161.483 393.835 160.64 393.416V389.12H157.76V392.96H153.44V389.12H150.56V392.96H146.24V389.12H143.36V393.416C142.518 393.835 141.835 394.518 141.416 395.36H137.12V398.24H140.96V402.56H137.12V405.44H140.96V409.76H137.12ZM143.84 405.44V397.28C143.84 396.898 143.992 396.532 144.262 396.262C144.532 395.992 144.898 395.84 145.28 395.84H158.72C159.102 395.84 159.468 395.992 159.738 396.262C160.008 396.532 160.16 396.898 160.16 397.28V410.72C160.16 411.102 160.008 411.468 159.738 411.738C159.468 412.008 159.102 412.16 158.72 412.16H145.28C144.898 412.16 144.532 412.008 144.262 411.738C143.992 411.468 143.84 411.102 143.84 410.72V405.44Z" fill="#3875F2"/>
<path d="M43.4879 236.48H52.5071L55.5311 240.258L57.7823 238.458L53.9423 233.658L53.7599 233.792V233.6H43.4879C42.6224 233.599 41.7689 233.397 40.9951 233.009C40.2214 232.621 39.5486 232.058 39.0302 231.365C38.5117 230.672 38.1619 229.868 38.0083 229.016C37.8548 228.164 37.9017 227.288 38.1455 226.458L41.7215 214.294C42.0378 213.217 42.6947 212.27 43.5937 211.597C44.4927 210.924 45.5856 210.56 46.7087 210.56C47.3071 210.564 47.8797 210.804 48.3015 211.229C48.7232 211.653 48.96 212.227 48.9599 212.826V213.44C48.9599 214.204 48.6565 214.936 48.1164 215.476C47.5763 216.017 46.8438 216.32 46.0799 216.32H45.1199C45.1199 216.32 44.5103 223.722 44.2559 226.842L44.7023 226.621C45.551 226.196 46.4811 225.959 47.4294 225.926C48.3778 225.893 49.3222 226.064 50.1983 226.429L51.3023 226.909C51.6701 226.051 52.2801 225.319 53.0576 224.802C53.8352 224.285 54.7465 224.007 55.6799 224C56.03 224.001 56.3791 224.038 56.7215 224.11C57.7181 224.319 58.6195 224.846 59.2895 225.613L61.3439 223.568C60.2746 222.408 58.8702 221.611 57.3263 221.288C56.7849 221.175 56.2331 221.119 55.6799 221.12C54.6655 221.121 53.6613 221.323 52.7254 221.714C51.7895 222.106 50.9404 222.679 50.2271 223.4C49.3902 223.162 48.5244 223.041 47.6543 223.04H47.4575C47.5775 221.6 47.7023 220.122 47.8031 218.941C48.9743 218.574 49.9975 217.842 50.7237 216.852C51.4498 215.863 51.8409 214.667 51.8399 213.44V212.826C51.8387 211.464 51.2981 210.158 50.3365 209.194C49.3749 208.229 48.0706 207.685 46.7087 207.68C44.9645 207.681 43.2673 208.246 41.8709 209.291C40.4745 210.336 39.4538 211.805 38.9615 213.478L35.3807 225.642C35.01 226.902 34.9381 228.231 35.1707 229.524C35.4034 230.817 35.9343 232.038 36.7212 233.09C37.5081 234.142 38.5294 234.996 39.704 235.585C40.8786 236.173 42.1742 236.48 43.4879 236.48V236.48Z" fill="#FA8559"/>
<path d="M1073.49 28.6399C1072.55 28.6383 1071.62 28.8609 1070.79 29.2892C1069.95 29.7175 1069.23 30.3392 1068.69 31.1023L1060.84 42.1135C1060.61 42.0799 1060.39 42.0799 1060.16 42.0799C1058.12 42.0799 1056.17 42.889 1054.73 44.3293C1053.29 45.7696 1052.48 47.723 1052.48 49.7599C1052.48 50.7783 1052.08 51.755 1051.36 52.4752C1050.64 53.1953 1049.66 53.5999 1048.64 53.5999C1048.64 53.5999 1051.52 59.3599 1058.24 59.3599C1064.48 59.3599 1067.82 54.5983 1067.84 49.8175C1067.84 50.0911 1067.84 50.7775 1067.84 50.7775C1067.84 50.7615 1067.84 50.7455 1067.84 50.7295C1067.87 50.4103 1067.87 50.0887 1067.84 49.7695C1067.84 49.1595 1067.76 48.552 1067.62 47.9599L1077.4 39.1999C1078.02 38.6481 1078.51 37.9726 1078.85 37.2175C1079.19 36.4623 1079.36 35.6446 1079.36 34.8175V34.5199C1079.36 32.9616 1078.74 31.4675 1077.64 30.3652C1076.54 29.2629 1075.04 28.6424 1073.49 28.6399V28.6399ZM1064.96 49.8031C1064.96 53.0191 1062.83 56.4799 1058.24 56.4799C1056.41 56.4908 1054.63 55.8495 1053.22 54.6703C1053.89 54.0423 1054.43 53.2824 1054.8 52.4376C1055.17 51.5929 1055.36 50.6814 1055.36 49.7599C1055.36 48.4869 1055.87 47.266 1056.77 46.3658C1057.67 45.4656 1058.89 44.9599 1060.16 44.9599C1061.43 44.9599 1062.65 45.4656 1063.55 46.3658C1064.45 47.266 1064.96 48.4869 1064.96 49.7599V49.8031ZM1076.48 34.8175C1076.48 35.2388 1076.39 35.6553 1076.22 36.0398C1076.05 36.4244 1075.8 36.7684 1075.48 37.0495L1066.36 45.2095C1065.68 44.276 1064.8 43.5082 1063.78 42.9631L1071.05 32.7727C1071.42 32.2557 1071.94 31.8694 1072.54 31.6693C1073.14 31.4693 1073.8 31.466 1074.4 31.6599C1075 31.8538 1075.53 32.2349 1075.91 32.7481C1076.28 33.2613 1076.48 33.8801 1076.48 34.5151V34.8175Z" fill="#FFA500"/>
<path d="M389.442 404.25H391.111V407.59H389.441V407.59L389.435 407.59C386.892 407.646 384.37 407.109 382.07 406.021C380.772 405.396 379.381 404.988 377.951 404.813L377.671 404.778V405.061V408.176V408.353L377.837 408.412C379.063 408.845 380.096 409.697 380.753 410.818C381.411 411.94 381.651 413.257 381.431 414.538C381.211 415.819 380.546 416.981 379.552 417.819C378.558 418.657 377.3 419.116 376.001 419.116C374.701 419.116 373.443 418.657 372.449 417.819C371.455 416.981 370.79 415.819 370.57 414.538C370.35 413.257 370.59 411.94 371.248 410.818C371.906 409.697 372.939 408.845 374.164 408.412L374.331 408.353V408.176V405.061V404.778L374.05 404.813C372.621 404.988 371.229 405.396 369.931 406.021C367.632 407.109 365.11 407.646 362.566 407.59L362.566 407.59H362.561H360.891V404.25H362.559C363.541 404.26 364.521 404.175 365.486 403.996L365.691 403.958V403.75V399.824V399.647L365.524 399.588C364.299 399.155 363.266 398.302 362.608 397.181C361.95 396.06 361.71 394.743 361.93 393.462C362.15 392.18 362.815 391.018 363.809 390.181C364.803 389.343 366.061 388.883 367.361 388.883C368.66 388.883 369.918 389.343 370.912 390.181C371.906 391.018 372.571 392.18 372.791 393.462C373.011 394.743 372.771 396.06 372.113 397.181C371.456 398.302 370.423 399.155 369.197 399.588L369.031 399.647V399.824V402.397V402.774L369.378 402.627C371.469 401.743 373.725 401.314 375.994 401.37L375.994 401.37L376.007 401.37C378.277 401.314 380.532 401.743 382.623 402.627L382.971 402.774V402.397V399.824V399.647L382.804 399.588C381.579 399.155 380.546 398.302 379.888 397.181C379.23 396.06 378.99 394.743 379.21 393.462C379.43 392.18 380.095 391.018 381.089 390.181C382.083 389.343 383.341 388.883 384.641 388.883C385.94 388.883 387.198 389.343 388.192 390.181C389.186 391.018 389.851 392.18 390.071 393.462C390.291 394.743 390.051 396.06 389.393 397.181C388.736 398.302 387.703 399.155 386.477 399.588L386.311 399.647V399.824V403.75V403.958L386.515 403.996C387.48 404.175 388.46 404.26 389.442 404.25ZM368.566 392.596C368.209 392.357 367.79 392.23 367.361 392.23C366.785 392.23 366.233 392.459 365.826 392.865C365.419 393.272 365.191 393.824 365.191 394.4C365.191 394.829 365.318 395.249 365.556 395.605C365.795 395.962 366.134 396.24 366.53 396.405C366.927 396.569 367.363 396.612 367.784 396.528C368.205 396.444 368.592 396.238 368.895 395.934C369.199 395.631 369.405 395.244 369.489 394.823C369.573 394.402 369.53 393.966 369.365 393.569C369.201 393.173 368.923 392.834 368.566 392.596ZM374.795 415.404C375.152 415.643 375.571 415.77 376.001 415.77C376.576 415.77 377.128 415.541 377.535 415.134C377.942 414.727 378.171 414.175 378.171 413.6C378.171 413.171 378.043 412.751 377.805 412.394C377.566 412.037 377.228 411.759 376.831 411.595C376.435 411.431 375.998 411.388 375.577 411.472C375.156 411.555 374.77 411.762 374.466 412.065C374.163 412.369 373.956 412.756 373.872 413.177C373.789 413.597 373.832 414.034 373.996 414.43C374.16 414.827 374.438 415.166 374.795 415.404ZM385.846 392.596C385.489 392.357 385.07 392.23 384.641 392.23C384.065 392.23 383.513 392.459 383.106 392.865C382.699 393.272 382.471 393.824 382.471 394.4C382.471 394.829 382.598 395.249 382.836 395.605C383.075 395.962 383.414 396.24 383.81 396.405C384.207 396.569 384.643 396.612 385.064 396.528C385.485 396.444 385.872 396.238 386.175 395.934C386.479 395.631 386.685 395.244 386.769 394.823C386.853 394.402 386.81 393.966 386.645 393.569C386.481 393.173 386.203 392.834 385.846 392.596Z" fill="#FA8559" stroke="#F1F2F4" stroke-width="0.5"/>
<path d="M628.001 37.2799H624.161V33.4399C624.161 33.1853 624.059 32.9411 623.879 32.7611C623.699 32.581 623.455 32.4799 623.201 32.4799H605.441C605.186 32.4799 604.942 32.581 604.762 32.7611C604.582 32.9411 604.481 33.1853 604.481 33.4399V46.8799C604.481 47.1345 604.582 47.3787 604.762 47.5587C604.942 47.7387 605.186 47.8399 605.441 47.8399H614.081V51.6799H605.441C604.168 51.6799 602.947 51.1742 602.047 50.274C601.146 49.3738 600.641 48.1529 600.641 46.8799V33.4399C600.641 32.1669 601.146 30.946 602.047 30.0458C602.947 29.1456 604.168 28.6399 605.441 28.6399H623.201C624.474 28.6399 625.695 29.1456 626.595 30.0458C627.495 30.946 628.001 32.1669 628.001 33.4399V37.2799Z" fill="#3875F2"/>
<path d="M626.561 40.1598H622.241C620.968 40.1598 619.747 40.6656 618.847 41.5657C617.946 42.4659 617.441 43.6868 617.441 44.9598V51.6798H621.281V44.9598C621.281 44.7052 621.382 44.4611 621.562 44.281C621.742 44.101 621.986 43.9998 622.241 43.9998H626.561C626.815 43.9998 627.059 44.101 627.239 44.281C627.419 44.4611 627.521 44.7052 627.521 44.9598V54.5598C627.521 54.8145 627.419 55.0586 627.239 55.2387C627.059 55.4187 626.815 55.5198 626.561 55.5198H623.681V59.3598H626.561C627.191 59.3598 627.815 59.2357 628.398 58.9945C628.98 58.7532 629.509 58.3997 629.955 57.954C630.4 57.5082 630.754 56.9791 630.995 56.3967C631.236 55.8144 631.361 55.1902 631.361 54.5598V44.9598C631.361 44.3295 631.236 43.7053 630.995 43.123C630.754 42.5406 630.4 42.0115 629.955 41.5657C629.509 41.12 628.98 40.7664 628.398 40.5252C627.815 40.284 627.191 40.1598 626.561 40.1598Z" fill="#3875F2"/>
<path d="M602.561 59.3599C603.621 59.3599 604.481 58.5003 604.481 57.4399C604.481 56.3795 603.621 55.5199 602.561 55.5199C601.5 55.5199 600.641 56.3795 600.641 57.4399C600.641 58.5003 601.5 59.3599 602.561 59.3599Z" fill="#3875F2"/>
<path d="M610.241 59.3599C611.301 59.3599 612.161 58.5003 612.161 57.4399C612.161 56.3795 611.301 55.5199 610.241 55.5199C609.18 55.5199 608.321 56.3795 608.321 57.4399C608.321 58.5003 609.18 59.3599 610.241 59.3599Z" fill="#3875F2"/>
<path d="M619.841 57.4399C619.841 58.5003 618.981 59.3599 617.921 59.3599C616.86 59.3599 616.001 58.5003 616.001 57.4399C616.001 56.3795 616.86 55.5199 617.921 55.5199C618.981 55.5199 619.841 56.3795 619.841 57.4399Z" fill="#3875F2"/>
<path d="M828.846 40.7898C829.295 40.7881 829.742 40.7341 830.179 40.6291L835.203 49.7372C834.593 50.6208 834.234 51.6563 834.166 52.7311C834.098 53.8059 834.324 54.879 834.818 55.8338C835.312 56.7885 836.056 57.5885 836.969 58.1467C837.882 58.7049 838.929 59 839.997 59C841.064 59 842.112 58.7049 843.025 58.1467C843.938 57.5885 844.682 56.7885 845.176 55.8338C845.67 54.879 845.895 53.8059 845.827 52.7311C845.759 51.6563 845.401 50.6208 844.79 49.7372L849.814 40.6291C850.905 40.889 852.047 40.827 853.104 40.4504C854.161 40.0737 855.088 39.3984 855.774 38.505C856.461 37.6116 856.879 36.5377 856.977 35.4115C857.076 34.2853 856.851 33.1542 856.33 32.1533C855.809 31.1523 855.013 30.3237 854.038 29.7662C853.063 29.2088 851.95 28.946 850.831 29.0092C849.712 29.0725 848.635 29.4591 847.727 30.1229C846.82 30.7868 846.121 31.6998 845.714 32.7532H834.285C833.898 31.7541 833.248 30.8804 832.406 30.2262C831.563 29.572 830.56 29.1621 829.503 29.0407C828.447 28.9193 827.378 29.0911 826.411 29.5374C825.444 29.9837 824.617 30.6877 824.017 31.5735C823.418 32.4593 823.069 33.4933 823.009 34.5642C822.949 35.635 823.18 36.702 823.677 37.6502C824.174 38.5985 824.918 39.392 825.829 39.9452C826.74 40.4985 827.783 40.7905 828.846 40.7898V40.7898ZM839.999 55.7914C839.474 55.7914 838.961 55.6343 838.524 55.3399C838.087 55.0455 837.747 54.6272 837.546 54.1377C837.345 53.6482 837.292 53.1095 837.395 52.5899C837.497 52.0703 837.75 51.5929 838.122 51.2183C838.493 50.8436 838.966 50.5885 839.481 50.4851C839.997 50.3818 840.53 50.4348 841.016 50.6376C841.501 50.8403 841.916 51.1837 842.207 51.6242C842.499 52.0648 842.655 52.5827 842.655 53.1125C842.655 53.823 842.375 54.5044 841.877 55.0067C841.379 55.5091 840.704 55.7914 839.999 55.7914ZM851.153 32.2175C851.678 32.2175 852.192 32.3746 852.628 32.6689C853.065 32.9633 853.405 33.3817 853.606 33.8712C853.807 34.3607 853.86 34.8993 853.757 35.4189C853.655 35.9386 853.402 36.4159 853.031 36.7906C852.659 37.1652 852.186 37.4203 851.671 37.5237C851.156 37.6271 850.622 37.574 850.137 37.3713C849.651 37.1685 849.237 36.8252 848.945 36.3846C848.653 35.9441 848.497 35.4262 848.497 34.8963C848.497 34.1859 848.777 33.5045 849.275 33.0021C849.773 32.4997 850.449 32.2175 851.153 32.2175ZM834.587 35.9679H845.412C845.62 37.1406 846.175 38.2222 847.005 39.07L842.283 47.6905C841.56 47.3803 840.783 47.2204 839.997 47.2204C839.211 47.2204 838.433 47.3803 837.71 47.6905L832.967 39.07C833.807 38.2257 834.372 37.1437 834.587 35.9679V35.9679ZM828.846 32.2175C829.371 32.2175 829.885 32.3746 830.321 32.6689C830.758 32.9633 831.098 33.3817 831.299 33.8712C831.5 34.3607 831.553 34.8993 831.451 35.4189C831.348 35.9386 831.095 36.4159 830.724 36.7906C830.352 37.1652 829.879 37.4203 829.364 37.5237C828.849 37.6271 828.315 37.574 827.83 37.3713C827.344 37.1685 826.93 36.8252 826.638 36.3846C826.346 35.9441 826.19 35.4262 826.19 34.8963C826.19 34.1859 826.47 33.5045 826.968 33.0021C827.466 32.4997 828.142 32.2175 828.846 32.2175Z" fill="#CA63EE"/>
<path d="M613.344 397.429C612.625 398.098 611.719 398.53 610.747 398.667C610.853 398.883 610.963 399.104 611.054 399.33C611.898 401.331 612.183 403.524 611.879 405.674C611.575 407.825 610.693 409.852 609.326 411.541C608.16 409.702 606.477 408.248 604.488 407.36C605.338 406.479 605.909 405.367 606.132 404.162C606.354 402.958 606.217 401.716 605.738 400.589C605.259 399.462 604.459 398.501 603.438 397.825C602.417 397.15 601.22 396.79 599.995 396.79C598.771 396.79 597.573 397.15 596.552 397.825C595.531 398.501 594.731 399.462 594.252 400.589C593.773 401.716 593.637 402.958 593.859 404.162C594.081 405.367 594.653 406.479 595.502 407.36C593.514 408.242 591.833 409.696 590.674 411.536C588.958 409.407 588.021 406.756 588.017 404.022C588.014 401.288 588.944 398.635 590.654 396.501C592.364 394.368 594.752 392.883 597.421 392.291C600.09 391.699 602.882 392.037 605.333 393.248C605.472 392.276 605.906 391.369 606.576 390.651C603.451 389.115 599.886 388.725 596.502 389.55C593.119 390.375 590.134 392.363 588.066 395.165C585.999 397.967 584.983 401.407 585.193 404.883C585.404 408.358 586.829 411.65 589.22 414.182C591.61 416.714 594.814 418.326 598.272 418.736C601.73 419.146 605.222 418.329 608.139 416.426C611.055 414.523 613.211 411.657 614.229 408.327C615.247 404.997 615.063 401.415 613.709 398.207C613.598 397.943 613.474 397.683 613.344 397.429ZM596.64 403.04C596.64 402.376 596.837 401.726 597.206 401.173C597.575 400.621 598.1 400.19 598.714 399.936C599.328 399.682 600.004 399.615 600.656 399.745C601.307 399.874 601.906 400.194 602.376 400.664C602.846 401.134 603.166 401.733 603.295 402.385C603.425 403.036 603.359 403.712 603.104 404.326C602.85 404.94 602.419 405.465 601.867 405.834C601.314 406.203 600.665 406.4 600 406.4C599.109 406.4 598.254 406.046 597.624 405.416C596.994 404.786 596.64 403.931 596.64 403.04ZM592.8 413.6C593.496 412.295 594.534 411.204 595.802 410.443C597.07 409.682 598.521 409.28 600 409.28C601.479 409.28 602.93 409.682 604.198 410.443C605.466 411.204 606.504 412.295 607.2 413.6C605.124 415.162 602.597 416.006 600 416.006C597.403 416.006 594.876 415.162 592.8 413.6V413.6Z" fill="#2CBD3B"/>
<path d="M610.08 395.84C611.141 395.84 612 394.98 612 393.92C612 392.86 611.141 392 610.08 392C609.02 392 608.16 392.86 608.16 393.92C608.16 394.98 609.02 395.84 610.08 395.84Z" fill="#2CBD3B"/>
<path d="M821.601 409.28H826.401C827.165 409.28 827.897 408.977 828.437 408.436C828.977 407.896 829.281 407.164 829.281 406.4V401.6C829.281 400.836 828.977 400.104 828.437 399.564C827.897 399.023 827.165 398.72 826.401 398.72H821.601C820.837 398.72 820.104 399.023 819.564 399.564C819.024 400.104 818.721 400.836 818.721 401.6V406.4C818.721 407.164 819.024 407.896 819.564 408.436C820.104 408.977 820.837 409.28 821.601 409.28ZM821.601 401.6H826.401V406.4H821.601V401.6Z" fill="#3875F2"/>
<path d="M809.119 409.76V412.64H813.415C813.834 413.483 814.517 414.165 815.359 414.584V418.88H818.239V415.04H822.559V418.88H825.439V415.04H829.759V418.88H832.639V414.584C833.482 414.165 834.164 413.483 834.583 412.64H838.879V409.76H835.039V405.44H838.879V402.56H835.039V398.24H838.879V395.36H834.583C834.164 394.518 833.482 393.835 832.639 393.416V389.12H829.759V392.96H825.439V389.12H822.559V392.96H818.239V389.12H815.359V393.416C814.517 393.835 813.834 394.518 813.415 395.36H809.119V398.24H812.959V402.56H809.119V405.44H812.959V409.76H809.119ZM815.839 405.44V397.28C815.839 396.898 815.991 396.532 816.261 396.262C816.531 395.992 816.897 395.84 817.279 395.84H830.719C831.101 395.84 831.467 395.992 831.737 396.262C832.007 396.532 832.159 396.898 832.159 397.28V410.72C832.159 411.102 832.007 411.468 831.737 411.738C831.467 412.008 831.101 412.16 830.719 412.16H817.279C816.897 412.16 816.531 412.008 816.261 411.738C815.991 411.468 815.839 411.102 815.839 410.72V405.44Z" fill="#3875F2"/>
<path d="M1061.44 404.25H1063.11V407.59H1061.44V407.59L1061.44 407.59C1058.89 407.646 1056.37 407.109 1054.07 406.021C1052.77 405.396 1051.38 404.988 1049.95 404.813L1049.67 404.778V405.061V408.176V408.353L1049.84 408.412C1051.06 408.845 1052.1 409.697 1052.75 410.818C1053.41 411.94 1053.65 413.257 1053.43 414.538C1053.21 415.819 1052.55 416.981 1051.55 417.819C1050.56 418.657 1049.3 419.116 1048 419.116C1046.7 419.116 1045.44 418.657 1044.45 417.819C1043.46 416.981 1042.79 415.819 1042.57 414.538C1042.35 413.257 1042.59 411.94 1043.25 410.818C1043.91 409.697 1044.94 408.845 1046.16 408.412L1046.33 408.353V408.176V405.061V404.778L1046.05 404.813C1044.62 404.988 1043.23 405.396 1041.93 406.021C1039.63 407.109 1037.11 407.646 1034.57 407.59L1034.57 407.59H1034.56H1032.89V404.25H1034.56C1035.54 404.26 1036.52 404.175 1037.49 403.996L1037.69 403.958V403.75V399.824V399.647L1037.52 399.588C1036.3 399.155 1035.27 398.302 1034.61 397.181C1033.95 396.06 1033.71 394.743 1033.93 393.462C1034.15 392.18 1034.82 391.018 1035.81 390.181C1036.8 389.343 1038.06 388.883 1039.36 388.883C1040.66 388.883 1041.92 389.343 1042.91 390.181C1043.91 391.018 1044.57 392.18 1044.79 393.462C1045.01 394.743 1044.77 396.06 1044.11 397.181C1043.46 398.302 1042.42 399.155 1041.2 399.588L1041.03 399.647V399.824V402.397V402.774L1041.38 402.627C1043.47 401.743 1045.72 401.314 1047.99 401.37L1047.99 401.37L1048.01 401.37C1050.28 401.314 1052.53 401.743 1054.62 402.627L1054.97 402.774V402.397V399.824V399.647L1054.8 399.588C1053.58 399.155 1052.55 398.302 1051.89 397.181C1051.23 396.06 1050.99 394.743 1051.21 393.462C1051.43 392.18 1052.1 391.018 1053.09 390.181C1054.08 389.343 1055.34 388.883 1056.64 388.883C1057.94 388.883 1059.2 389.343 1060.19 390.181C1061.19 391.018 1061.85 392.18 1062.07 393.462C1062.29 394.743 1062.05 396.06 1061.39 397.181C1060.74 398.302 1059.7 399.155 1058.48 399.588L1058.31 399.647V399.824V403.75V403.958L1058.51 403.996C1059.48 404.175 1060.46 404.26 1061.44 404.25ZM1040.57 392.596C1040.21 392.357 1039.79 392.23 1039.36 392.23C1038.79 392.23 1038.23 392.459 1037.83 392.865C1037.42 393.272 1037.19 393.824 1037.19 394.4C1037.19 394.829 1037.32 395.249 1037.56 395.605C1037.79 395.962 1038.13 396.24 1038.53 396.405C1038.93 396.569 1039.36 396.612 1039.78 396.528C1040.2 396.444 1040.59 396.238 1040.9 395.934C1041.2 395.631 1041.41 395.244 1041.49 394.823C1041.57 394.402 1041.53 393.966 1041.37 393.569C1041.2 393.173 1040.92 392.834 1040.57 392.596ZM1046.8 415.404C1047.15 415.643 1047.57 415.77 1048 415.77C1048.58 415.77 1049.13 415.541 1049.54 415.134C1049.94 414.727 1050.17 414.175 1050.17 413.6C1050.17 413.171 1050.04 412.751 1049.8 412.394C1049.57 412.037 1049.23 411.759 1048.83 411.595C1048.43 411.431 1048 411.388 1047.58 411.472C1047.16 411.555 1046.77 411.762 1046.47 412.065C1046.16 412.369 1045.96 412.756 1045.87 413.177C1045.79 413.597 1045.83 414.034 1046 414.43C1046.16 414.827 1046.44 415.166 1046.8 415.404ZM1057.85 392.596C1057.49 392.357 1057.07 392.23 1056.64 392.23C1056.07 392.23 1055.51 392.459 1055.11 392.865C1054.7 393.272 1054.47 393.824 1054.47 394.4C1054.47 394.829 1054.6 395.249 1054.84 395.605C1055.07 395.962 1055.41 396.24 1055.81 396.405C1056.21 396.569 1056.64 396.612 1057.06 396.528C1057.48 396.444 1057.87 396.238 1058.18 395.934C1058.48 395.631 1058.69 395.244 1058.77 394.823C1058.85 394.402 1058.81 393.966 1058.65 393.569C1058.48 393.173 1058.2 392.834 1057.85 392.596Z" fill="#FA8559" stroke="#F1F2F4" stroke-width="0.5"/>
<path d="M1300 37.2799H1296.16V33.4399C1296.16 33.1853 1296.06 32.9411 1295.88 32.7611C1295.7 32.581 1295.46 32.4799 1295.2 32.4799H1277.44C1277.19 32.4799 1276.94 32.581 1276.76 32.7611C1276.58 32.9411 1276.48 33.1853 1276.48 33.4399V46.8799C1276.48 47.1345 1276.58 47.3787 1276.76 47.5587C1276.94 47.7387 1277.19 47.8399 1277.44 47.8399H1286.08V51.6799H1277.44C1276.17 51.6799 1274.95 51.1742 1274.05 50.274C1273.15 49.3738 1272.64 48.1529 1272.64 46.8799V33.4399C1272.64 32.1669 1273.15 30.946 1274.05 30.0458C1274.95 29.1456 1276.17 28.6399 1277.44 28.6399H1295.2C1296.47 28.6399 1297.69 29.1456 1298.59 30.0458C1299.49 30.946 1300 32.1669 1300 33.4399V37.2799Z" fill="#3875F2"/>
<path d="M1298.56 40.1598H1294.24C1292.97 40.1598 1291.75 40.6656 1290.85 41.5657C1289.95 42.4659 1289.44 43.6868 1289.44 44.9598V51.6798H1293.28V44.9598C1293.28 44.7052 1293.38 44.4611 1293.56 44.281C1293.74 44.101 1293.99 43.9998 1294.24 43.9998H1298.56C1298.82 43.9998 1299.06 44.101 1299.24 44.281C1299.42 44.4611 1299.52 44.7052 1299.52 44.9598V54.5598C1299.52 54.8145 1299.42 55.0586 1299.24 55.2387C1299.06 55.4187 1298.82 55.5198 1298.56 55.5198H1295.68V59.3598H1298.56C1299.19 59.3598 1299.82 59.2357 1300.4 58.9945C1300.98 58.7532 1301.51 58.3997 1301.95 57.954C1302.4 57.5082 1302.75 56.9791 1303 56.3967C1303.24 55.8144 1303.36 55.1902 1303.36 54.5598V44.9598C1303.36 44.3295 1303.24 43.7053 1303 43.123C1302.75 42.5406 1302.4 42.0115 1301.95 41.5657C1301.51 41.12 1300.98 40.7664 1300.4 40.5252C1299.82 40.284 1299.19 40.1598 1298.56 40.1598Z" fill="#3875F2"/>
<path d="M1274.56 59.3599C1275.62 59.3599 1276.48 58.5003 1276.48 57.4399C1276.48 56.3795 1275.62 55.5199 1274.56 55.5199C1273.5 55.5199 1272.64 56.3795 1272.64 57.4399C1272.64 58.5003 1273.5 59.3599 1274.56 59.3599Z" fill="#3875F2"/>
<path d="M1282.24 59.3599C1283.3 59.3599 1284.16 58.5003 1284.16 57.4399C1284.16 56.3795 1283.3 55.5199 1282.24 55.5199C1281.18 55.5199 1280.32 56.3795 1280.32 57.4399C1280.32 58.5003 1281.18 59.3599 1282.24 59.3599Z" fill="#3875F2"/>
<path d="M1291.84 57.4399C1291.84 58.5003 1290.98 59.3599 1289.92 59.3599C1288.86 59.3599 1288 58.5003 1288 57.4399C1288 56.3795 1288.86 55.5199 1289.92 55.5199C1290.98 55.5199 1291.84 56.3795 1291.84 57.4399Z" fill="#3875F2"/>
<path d="M1183.84 220.179C1183.65 219.612 1183.3 219.106 1182.83 218.72C1182.36 218.334 1181.79 218.082 1181.19 217.993L1174.14 216.964L1170.96 210.776C1170.69 210.242 1170.26 209.793 1169.74 209.48C1169.22 209.166 1168.62 209 1168 209C1167.39 209 1166.79 209.166 1166.26 209.48C1165.74 209.793 1165.32 210.242 1165.04 210.776L1161.86 216.964L1154.82 217.993C1154.21 218.082 1153.64 218.333 1153.17 218.719C1152.7 219.105 1152.35 219.61 1152.16 220.178C1151.97 220.747 1151.95 221.355 1152.09 221.935C1152.24 222.516 1152.55 223.045 1152.99 223.464L1157.99 228.26L1156.8 235.252C1156.7 235.841 1156.77 236.445 1157 236.998C1157.23 237.55 1157.62 238.028 1158.12 238.379C1158.61 238.73 1159.2 238.94 1159.81 238.985C1160.42 239.03 1161.04 238.908 1161.58 238.633L1167.99 235.418L1174.41 238.633C1174.95 238.911 1175.57 239.035 1176.18 238.992C1176.79 238.948 1177.38 238.739 1177.88 238.388C1178.38 238.036 1178.77 237.556 1179 237.003C1179.23 236.449 1179.3 235.842 1179.2 235.252L1178.01 228.26L1183.01 223.464C1183.45 223.045 1183.76 222.516 1183.91 221.936C1184.05 221.356 1184.03 220.747 1183.84 220.179ZM1174.47 227.145L1175.94 235.788L1168 231.785L1160.06 235.788L1161.54 227.14L1155.32 221.171L1164.06 219.89L1168 212.212L1171.95 219.895L1180.68 221.171L1174.47 227.145Z" fill="#FFE600"/>
<path d="M1285.34 397.429C1284.63 398.098 1283.72 398.53 1282.75 398.667C1282.85 398.883 1282.96 399.104 1283.05 399.33C1283.9 401.331 1284.18 403.524 1283.88 405.674C1283.57 407.825 1282.69 409.852 1281.33 411.541C1280.16 409.702 1278.48 408.248 1276.49 407.36C1277.34 406.479 1277.91 405.367 1278.13 404.162C1278.35 402.958 1278.22 401.716 1277.74 400.589C1277.26 399.462 1276.46 398.501 1275.44 397.825C1274.42 397.15 1273.22 396.79 1272 396.79C1270.77 396.79 1269.57 397.15 1268.55 397.825C1267.53 398.501 1266.73 399.462 1266.25 400.589C1265.77 401.716 1265.64 402.958 1265.86 404.162C1266.08 405.367 1266.65 406.479 1267.5 407.36C1265.51 408.242 1263.83 409.696 1262.67 411.536C1260.96 409.407 1260.02 406.756 1260.02 404.022C1260.01 401.288 1260.94 398.635 1262.65 396.501C1264.36 394.368 1266.75 392.883 1269.42 392.291C1272.09 391.699 1274.88 392.037 1277.33 393.248C1277.47 392.276 1277.91 391.369 1278.58 390.651C1275.45 389.115 1271.89 388.725 1268.5 389.55C1265.12 390.375 1262.13 392.363 1260.07 395.165C1258 397.967 1256.98 401.407 1257.19 404.883C1257.4 408.358 1258.83 411.65 1261.22 414.182C1263.61 416.714 1266.81 418.326 1270.27 418.736C1273.73 419.146 1277.22 418.329 1280.14 416.426C1283.06 414.523 1285.21 411.657 1286.23 408.327C1287.25 404.997 1287.06 401.415 1285.71 398.207C1285.6 397.943 1285.47 397.683 1285.34 397.429ZM1268.64 403.04C1268.64 402.376 1268.84 401.726 1269.21 401.173C1269.58 400.621 1270.1 400.19 1270.71 399.936C1271.33 399.682 1272 399.615 1272.66 399.745C1273.31 399.874 1273.91 400.194 1274.38 400.664C1274.85 401.134 1275.17 401.733 1275.3 402.385C1275.43 403.036 1275.36 403.712 1275.1 404.326C1274.85 404.94 1274.42 405.465 1273.87 405.834C1273.31 406.203 1272.66 406.4 1272 406.4C1271.11 406.4 1270.25 406.046 1269.62 405.416C1268.99 404.786 1268.64 403.931 1268.64 403.04ZM1264.8 413.6C1265.5 412.295 1266.53 411.204 1267.8 410.443C1269.07 409.682 1270.52 409.28 1272 409.28C1273.48 409.28 1274.93 409.682 1276.2 410.443C1277.47 411.204 1278.5 412.295 1279.2 413.6C1277.12 415.162 1274.6 416.006 1272 416.006C1269.4 416.006 1266.88 415.162 1264.8 413.6V413.6Z" fill="#2CBD3B"/>
<path d="M1282.08 395.84C1283.14 395.84 1284 394.98 1284 393.92C1284 392.86 1283.14 392 1282.08 392C1281.02 392 1280.16 392.86 1280.16 393.92C1280.16 394.98 1281.02 395.84 1282.08 395.84Z" fill="#2CBD3B"/>
<path d="M1387.49 236.48H1396.51L1399.53 240.258L1401.78 238.458L1397.94 233.658L1397.76 233.792V233.6H1387.49C1386.62 233.599 1385.77 233.397 1385 233.009C1384.22 232.621 1383.55 232.058 1383.03 231.365C1382.51 230.672 1382.16 229.868 1382.01 229.016C1381.85 228.164 1381.9 227.288 1382.15 226.458L1385.72 214.294C1386.04 213.217 1386.69 212.27 1387.59 211.597C1388.49 210.924 1389.59 210.56 1390.71 210.56C1391.31 210.564 1391.88 210.804 1392.3 211.229C1392.72 211.653 1392.96 212.227 1392.96 212.826V213.44C1392.96 214.204 1392.66 214.936 1392.12 215.476C1391.58 216.017 1390.84 216.32 1390.08 216.32H1389.12C1389.12 216.32 1388.51 223.722 1388.26 226.842L1388.7 226.621C1389.55 226.196 1390.48 225.959 1391.43 225.926C1392.38 225.893 1393.32 226.064 1394.2 226.429L1395.3 226.909C1395.67 226.051 1396.28 225.319 1397.06 224.802C1397.84 224.285 1398.75 224.007 1399.68 224C1400.03 224.001 1400.38 224.038 1400.72 224.11C1401.72 224.319 1402.62 224.846 1403.29 225.613L1405.34 223.568C1404.27 222.408 1402.87 221.611 1401.33 221.288C1400.78 221.175 1400.23 221.119 1399.68 221.12C1398.67 221.121 1397.66 221.323 1396.73 221.714C1395.79 222.106 1394.94 222.679 1394.23 223.4C1393.39 223.162 1392.52 223.041 1391.65 223.04H1391.46C1391.58 221.6 1391.7 220.122 1391.8 218.941C1392.97 218.574 1394 217.842 1394.72 216.852C1395.45 215.863 1395.84 214.667 1395.84 213.44V212.826C1395.84 211.464 1395.3 210.158 1394.34 209.194C1393.37 208.229 1392.07 207.685 1390.71 207.68C1388.96 207.681 1387.27 208.246 1385.87 209.291C1384.47 210.336 1383.45 211.805 1382.96 213.478L1379.38 225.642C1379.01 226.902 1378.94 228.231 1379.17 229.524C1379.4 230.817 1379.93 232.038 1380.72 233.09C1381.51 234.142 1382.53 234.996 1383.7 235.585C1384.88 236.173 1386.17 236.48 1387.49 236.48V236.48Z" fill="#FA8559"/>
</g>
</svg>
