<svg width="24" height="22" viewBox="0 0 24 22" fill="none" xmlns="http://www.w3.org/2000/svg">
<path d="M10.8665 1.26087C11.2401 0.186195 12.7599 0.186193 13.1335 1.26087L15.0174 6.68076C15.1822 7.15485 15.6247 7.47629 16.1265 7.48652L21.8633 7.60343C23.0008 7.62661 23.4704 9.07206 22.5638 9.75942L17.9913 13.226C17.5914 13.5292 17.4224 14.0493 17.5677 14.5298L19.2293 20.0219C19.5588 21.1109 18.3292 22.0042 17.3953 21.3544L12.6854 18.077C12.2734 17.7903 11.7266 17.7903 11.3146 18.077L6.6047 21.3544C5.67081 22.0042 4.44123 21.1109 4.77069 20.0219L6.43228 14.5298C6.57762 14.0493 6.40863 13.5292 6.00867 13.226L1.43621 9.75943C0.529575 9.07206 0.999229 7.62661 2.13674 7.60343L7.87354 7.48652C8.37535 7.47629 8.81778 7.15485 8.98257 6.68076L10.8665 1.26087Z" fill="#FFA500"/>
</svg>
